<?xml version="1.0" encoding="UTF-8"?>
<svg id="Layer_1" xmlns="http://www.w3.org/2000/svg" version="1.1" viewBox="0 0 800 800">
  <!-- Generator: Adobe Illustrator 29.1.0, SVG Export Plug-In . SVG Version: 2.1.0 Build 142)  -->
  <defs>
    <style>
      .st0 {
        fill: #aea393;
      }
    </style>
  </defs>
  <path class="st0" d="M409.4,155c7.7,5.9,8.8-6.5,12.1-10.1,97.7-107.6,195.6-27,207.7,94.3,8.3,82.7-12.2,158-50.4,230.1-5.7,10.7-28.2,37.9-26.9,46.4,51,33.1,119,101,75.6,165.4-50.7,75.2-180.6,25.3-240.5-14.7-53.5,41.4-221.4,98.1-230.6-11.6-4.9-58.3,41.9-93.4,76.9-131.1-53-88.1-85.3-176.1-77-281.1,11.5-146.7,142-215.5,249.2-97.7,3,3.3,3.6,9.7,4.1,10.1ZM269.5,98.9c-29.1,5-56.6,30.6-71.6,54.9-56,91.2-29.8,221.9,17.5,311.5,4,7.5,27.2,47.7,32.7,48.1,27.9-18.8,143.3-100.3,148.2-128.5.6-3.4-20.6-50.9-22.6-65.6-7.2-53.5,3.1-107.6,31.2-153.5-30.7-41.1-81.2-76.1-135.4-66.9ZM543.9,505.9c62-92.4,107.1-226.9,59.2-334.6-33.8-76.1-114.6-88.3-171.5-28.8-23.4,24.5-8.4,22.3,0,45.1,19.4,52,21.2,103.7,1.1,156.1-3.4,8.9-23.1,42.4-22.8,45.2,1.8,21.9,80,81.8,100.1,95.8,5.3,3.7,30.8,23.3,33.9,21.1ZM413.3,175.4c-6.5-5.9-7,2-9.1,5.2-34.3,52.9-38.6,142.5-1.1,194.6,32-45.5,41-100,27.2-153.6-1.6-6.1-15.2-44.6-17-46.3ZM409.2,395.8l-151.1,132.6c33.5,48.6,79.1,88.6,128.6,120.4,6.5,0,66.4-46.9,75.6-55.1,9-8,68.1-69.1,69-74,1-5.3-3.1-6.7-5.9-9.7-19.6-20.9-59.5-42.4-81.8-65.1-12-12.3-28.1-33.3-34.6-49.1ZM401.2,661c52.6,30.7,161.3,74.7,210.3,20.7,50.1-55.2-19.5-125.6-65.5-155.4l-144.8,134.7ZM372.6,661l-128.5-126.4c-42,29.6-106,103.6-59.1,152.9,44.1,46.4,141.6-1.1,187.7-26.5Z"/>
</svg>