<?xml version="1.0" encoding="UTF-8"?>
<svg id="Layer_1" xmlns="http://www.w3.org/2000/svg" version="1.1" viewBox="0 0 1014 298">
  <!-- Generator: Adobe Illustrator 29.1.0, SVG Export Plug-In . SVG Version: 2.1.0 Build 142)  -->
  <defs>
    <style>
      .st0 {
        fill: #aea393;
      }
    </style>
  </defs>
  <g>
    <path d="M178.9,67.5c2.1,1.6,2.3-1.7,3.3-2.7,26.2-28.8,52.4-7.2,55.5,25.2,2.2,22.1-3.3,42.2-13.5,61.6-1.5,2.9-7.5,10.1-7.2,12.5,13.6,8.9,31.8,27,20.2,44.2-13.5,20.2-48.4,6.8-64.3-3.9-14.4,11.1-59.2,26.3-61.7-3.1-1.3-15.6,11.2-25,20.6-35.1-14.1-23.5-22.8-47.1-20.6-75.2,3.1-39.3,38-57.7,66.6-26.2.7.8,1,2.6,1.1,2.7h0ZM141.6,52.5c-7.8,1.4-15.2,8.2-19.1,14.7-15,24.4-8,59.3,4.6,83.3,1.1,2,7.3,12.8,8.8,12.9,7.5-5.1,38.3-26.8,39.6-34.4s-5.5-13.6-6-17.5c-1.9-14.4.8-28.8,8.3-41.1-8.2-11-21.8-20.4-36.2-18h0ZM214.9,161.4c16.6-24.7,28.6-60.7,15.8-89.5-9.1-20.4-30.6-23.7-45.8-7.7-6.2,6.5-2.2,6,0,12,5.2,13.9,5.7,27.8.3,41.7-1,2.4-6.1,11.3-6.1,12.1.5,5.8,21.4,21.9,26.7,25.7,1.4,1,8.2,6.2,9.1,5.7h0ZM180,73c-1.7-1.6-1.9.5-2.4,1.4-9.2,14.1-10.3,38.1-.3,52.1,8.6-12.1,11-26.7,7.3-41.1-.4-1.6-4.1-11.9-4.5-12.4h0ZM178.9,131.9l-40.4,35.5c9,13,21.1,23.7,34.4,32.2,1.7,0,17.7-12.6,20.3-14.8,2.4-2.1,18.3-18.5,18.5-19.9s-.8-1.8-1.6-2.5c-5.3-5.6-15.9-11.3-21.9-17.4-3.2-3.3-7.5-8.9-9.3-13.1h0ZM176.7,202.9c14,8.2,43.2,20,56.3,5.5,13.4-14.8-5.2-33.6-17.5-41.6l-38.8,36h0ZM169.1,202.9l-34.4-33.8c-11.2,7.9-28.4,27.8-15.8,40.9,11.8,12.4,37.9-.3,50.2-7.1h.1Z"/>
    <g>
      <path class="st0" d="M179,67.4c1.9,1.5,2.1-1.8,3.1-2.7,28.6-31.5,56.4-3.3,57.2,30.9,1.2,19.9-4.6,39.5-14.1,56.8-2,3.4-4.6,6.3-6.4,9.7-.2.5-.6,1.3-.6,1.8l-.5-.7c4.4,3,8.6,6.2,12.2,10,7.2,7.4,13.8,17.7,11.1,28.5-2.9,10.9-13.2,17.2-24,17.5-15.5.4-31.5-6-44.5-14.1h1c-7.9,5.9-17.1,9.7-26.5,12.4-9.4,2.3-20.5,4-29.2-1.5-6.9-4.4-8.8-13.2-7.7-20.8s5.6-14.3,10.7-19.6c3.3-3.7,6.8-7,10-10.5l-.2,2c-13.8-22.3-23.1-48.6-20.6-75.1,1.4-28.1,24.1-54.1,53.1-39.3,4.1,2.1,8,5.1,11.3,8.2,1.4,1.3,2.6,2.6,3.9,4,.5.7.8,1.9,1,2.5h-.1ZM178.8,67.6h0v-.3c-.2-.7-.4-1.6-1-2.2-1.3-1.4-2.5-2.7-3.9-3.9-6-5.7-13.5-10.1-21.9-11.4-19.9-3.1-34.3,13.5-38,31.6-1.6,7.2-1.8,14.6-1.6,21.9.7,22.7,9.7,44,21.4,63.2l-.8,1c-7.9,8.6-18.2,16.3-20.2,28.3-3.3,28.8,29.9,22.5,47,15,4.5-2,9.1-4.2,13-7.3,4.4,3.1,9.2,5.6,14,7.8,13.1,5.8,31.5,11.2,44.3,2.5,6.2-4.4,10-12.2,8.9-19.9-2.3-12.7-13.4-22.2-23.7-28.9l-.4-.3c-.3-2.3,1.1-4.1,2.1-5.9,3-4.4,5.7-8.4,7.7-13.3,7.3-15.5,11.6-32.5,11-49.7,0-33.3-26.1-61.5-54.5-30.8-1,1.1-1.4,4.4-3.5,2.7h-.1Z"/>
      <path class="st0" d="M141.6,52.6c-16,3.6-23.5,21.5-25.4,36.3-3.2,23.8,4.1,55.2,19.6,73.8,5.9-4,15.5-11.5,22.3-17.2,3.6-3.1,7.2-6.1,10.5-9.5,2.1-2.2,4.3-4.3,5.4-7.1-1.1-3.2-3.7-9.2-5.1-13.4-2-5.8-1.8-12.4-1.5-18.4.8-9.7,4-19.3,9.3-27.5v1.5c-7.7-11.2-20.9-20.9-35.2-18.5h.1ZM141.4,52.3c14.5-2.4,28.5,6.3,37.3,17.3l.5.6-.4.8c-7,12-9.6,26.5-7.7,40.2,1.3,5.8,4,11.2,5.8,16.9,1.2,6.8-23.1,23.4-28.9,27.6-4,2.7-8,5.5-12,8.1-.4,0-.7-.2-1-.4-3.6-3.8-5.9-8.7-8.6-13.1-7.4-14.3-12.9-29.7-13.8-45.8-.8-12.8,1.7-26,8.7-36.9,4.5-7.3,11.6-13.7,20.3-15.4h-.1Z"/>
      <path class="st0" d="M214.8,161.3c14.4-24.5,25.1-55,17.4-83.4-1.3-3.9-2.7-7.9-5.1-11.3-5.7-9-16.3-13.7-26.6-10.9-5.9,1.7-11.1,5.4-15.2,9.9-1.1,1.3-2.5,2.6-2.4,4.2,0,.3.3.8.7,1.4,3.4,4.6,4.6,10.7,5.9,16.3,2.1,10.7,1.1,22-3.3,32-1.8,3.7-3.9,7.1-5.7,10.7v.2s0,.2,0,0v-.2h0c0,.5.2.8.4,1.3,1.9,3.5,5,6.3,7.9,9.2,6,5.8,12.6,11.1,19.2,16.3,2.2,1.6,4.2,3.6,6.8,4.5h-.1ZM215,161.5c-.6.3-1.6-.3-2.2-.6-4.3-2.4-8.3-5.3-12.4-8.1-4.5-3.3-9.1-6.8-13.3-10.5-3.4-3.3-7.4-6.3-9.3-10.9-.1-.4-.3-.8-.3-1.3,0-.7.4-1.5.5-1.8,1.7-3.5,3.6-6.9,5.3-10.3,5.4-13.3,5.1-28.5-.1-41.9-.7-2.1-2.3-3.5-3-5.8-.5-2.7,1.7-4.9,3.3-6.5,13.2-13.9,33.4-14.4,44.6,2.1,18.9,30,6.5,69-13,95.6h-.1Z"/>
      <path class="st0" d="M179.9,73.1c-.4-.4-1.1-.7-1.4-.3-1.9,3.7-3.8,7.6-4.6,11.7-3,13.6-5.5,29.8,4.1,41.4h-1.5c4.8-7.8,7.7-16.7,8-25.8.4-9.1-1-18.6-4.6-27h0ZM180.1,72.9c.6,1,1.1,2.3,1.5,3.3,1.8,4.4,4.1,8.6,5.2,13.3,3.2,13-.4,27.2-8.7,37.6l-.8,1.1c-3-4.5-4.9-9.7-6.1-14.9-3.7-14.7-2.4-26.5,6.4-39.1.6-1.2,1.1-2.9,2.6-1.4h-.1Z"/>
      <path class="st0" d="M178.8,132.1c-12.9,12.1-26,25-39.6,36.2l.2-1.6c2.1,3.3,4.4,6.4,6.9,9.5,7.4,9.2,16.9,16.6,27,22.6h-.5c1.7-1.1,3.1-2.2,4.6-3.3,2.9-2.3,7-5.4,9.7-7.7,4.8-3.6,9.2-8.4,13.3-12.8,3.2-3.4,6.3-6.7,9.3-10.2l.2-.2s0,.3,0,.1h0c-1.8-1.7-3.9-3.8-6-5.4-6.4-5.2-13.8-9.7-18.9-16.4-2.4-3.3-5-6.8-6.2-10.8h0ZM178.9,131.8c4,7.2,9.8,13.3,16.7,18,5.3,3.8,11.1,7.1,15.7,11.7.7.6,1.8,1.5,1.9,2.6.2,1-.1,1.9-.7,2.6-3,3.8-6.3,7.2-9.5,10.6-2.7,2.6-6.1,6.3-9,8.9-5,4-9.9,7.6-15.1,11.2-1.9,1.1-3.8,2.7-5.9,3.2h-.4c-13.2-9.5-25.9-20.2-35.5-33.3,13.1-12.5,28-24.1,42-35.5h-.2Z"/>
      <path class="st0" d="M176.9,202.9c12.5,5.5,25.7,10.9,39.4,11.1,9,.4,18.7-4.3,20.6-13.8,2.1-12.9-12.5-25.4-22.3-31.9l2-.2c-1.6,1.5-3.1,3-4.6,4.4-11,10.2-23.5,20.6-35.1,30.4h0ZM176.6,202.9c10.6-10.8,21.8-22.4,32.8-32.6,2-1.8,4-3.7,6-5.5l1.1.7c10.8,7.5,24,20.5,21.4,34.7-2.1,9.8-11.8,15.9-21.4,16.3-13.7.5-28.7-5.8-39.8-13.6h-.1Z"/>
      <path class="st0" d="M168.9,202.9c-11.8-10.6-24.4-21.3-34.8-33.2h1.1c-9.9,6.4-20.2,18.3-19.3,30.6.8,8.3,8.8,13.4,16.9,13.1,12.7,0,24.7-5.9,36.2-10.7h0ZM169.2,202.9c-1.5,1.2-4,2.5-5.6,3.6-9.5,5.4-19.7,10.1-30.9,10.5-9.6.3-18.9-6.2-19.5-16.3-.3-12.5,12-24.8,21-32.2l.5-.4.5.5c12.1,10.5,23.3,22.6,34,34.4h0Z"/>
    </g>
  </g>
  <g>
    <g>
      <g>
        <path d="M379.9,52.4c-.1,1.5-.7,3.4-1.6,5.9-.4,1.1-.6,1.9-.8,2.7s-.4,1.1-.4,1.2c0,0,.8,0,2.1-.5,1.2-.4,2.8-.8,4.6-1.3,11.5-3.5,22.7-5.9,33.5-7.3s19.7-1.5,26.6-.2c5.8,1,9.1,3.8,9.8,8.5.5,2.1.1,3.6-1,4.9-1.7,1.8-3.4,1.8-5.2,0s-.6-.7-.7-1.1-.2-1-.2-1.7,0-1,.1-1.5c0-.5.2-.7.4-1,1.6-2.7-1.2-4.5-8.4-5.6-2.3-.2-5.9-.4-10.8-.2-4.9,0-9,.4-12.3.7-8,1.1-15.8,2.7-23.3,4.9-2.3.6-4.6,1.3-7,2.1s-4.6,1.5-6.4,1.9c-1.8.6-2.8,1-3.2,1.1-.1.1-.7,1.5-1.8,3.8s-2.3,5.2-3.9,8.5c-1.7,3.9-3.9,8.9-6.4,14.7-2.1,4.7-4.1,9.2-5.9,13.4-9,20.4-15.8,36.5-20.5,48.4-4.7,11.9-8.6,22.7-11.5,32.4-.6,1.9-1.2,3.8-1.7,5.6s-.8,3.2-1.1,4l-.7,3v.4c-.2.4.2.5,1.3.5,2.9,0,4.2,1.6,4,4.9,0,.6-.2,1.1-.5,1.8-.2.6-.7,1.5-1.5,2.3-.5.7-1.2,1.7-2.2,2.9s-2.1,2.3-3.2,3.3c-1.1,1-1.9,1.2-2.8,1s-1.1-1.7-1.1-4c.2-4,2.1-11.5,5.5-22.7,3.4-11.2,7.8-23.3,12.9-36.4,2.5-6.7,5.3-13.4,8.1-20,2.8-6.7,7-16.6,12.9-30,1-2.1,1.7-3.9,2.3-5.3.6-1.5,1-2.3,1-2.3,0,0,0-.1-.4-.2-.2,0-.5-.2-1-.2-2.7-.6-3.8-2.5-3.5-5.7.4-2.4,1.9-6.4,4.6-12.1l1.7-3.4c.5-1,.8-1.6,1-1.8.1-.2.2-.5.2-.6v-.4c-.1,0-1,.2-2.5.7-1.6.6-3.5,1.3-5.8,2.3s-4.7,1.9-7.2,3c-9.7,4.2-19.5,9-29.3,14.4-9.7,5.3-18,10.6-24.6,15.5-5.7,4.2-10.6,8.5-14.6,12.6s-6.1,7-6.1,8.6,3.8,1.6,11.4-.6c9.3-2.7,19.7-6.6,31.1-11.7,12.6-5.6,20-9.7,22.2-12.1,1.5-1.7,2.9-2.2,4.5-1.2.6.4,1.2.8,1.6,1.6s.6,1.5.6,2.2-.2,1.6-.8,2.3-1.3,1.2-2.1,1.6c-.5.1-1.3.6-2.8,1.2-1.5.6-2.9,1.3-4.6,2.1-11.4,5.2-22.9,9.8-34.7,13.7-11.8,4-19.7,5.9-23.7,5.9s-5.3-1.3-5.6-3.9c0-1,0-1.9.4-2.9s1-2.2,1.9-3.5c5.6-7.9,16.4-16.8,32.4-26.5,15.9-9.8,34-18.7,54.1-26.7l7-2.8,3.4-5.6c2.9-4.6,5-7.9,6.4-9.7,1.5-1.8,2.5-2.8,3.4-2.8s.4,0,.6.2c.2.1.6.4.8.5l.6.6c0,.2.1.5.2.8v1.6-.6Z"/>
        <path d="M371.8,163.8c-1.1,0-1.8-.1-2.4-.4-2.3-1.2-3.5-3.5-3.5-7s.6-5.8,1.7-9.8h0c0-.1-1.2.8-3.3,2.7-4.7,4.2-8.3,6.3-10.8,6.3s-2.5-.7-3.2-2.2c-.2-.7-.4-1.6-.4-2.5,0-2.4,1.1-5.1,3.4-8.1,4.2-4.9,8.6-7.2,13.1-7.2s5,1.1,6.4,3.3c.2.4.4.8.4,1.5,0,1.8-.4,3.3-1,4s-1.2,2.2-1.8,3.9c-1.1,3.6-1.7,6.6-1.7,8.7s.4,2.7,1.2,3.5c.6.6,1.2,1,1.9,1,2.5,0,7.3-2.7,14.1-8,2.5-1.9,4.2-3.6,5.2-5s1.5-2.5,1.5-3.9.4-2.2,1-2.7,1.3-.7,1.9-.7c1.1,0,1.8.5,2.2,1.6.2.6.4,1.3.4,1.9,0,1.8-.6,3-1.7,3.8-.5.2-1.8,1.2-4,3.2-3.4,3-6.8,5.6-10.1,7.9-3.3,2.2-5.7,3.6-7.5,4.1-1,.4-2.1.5-3.2.5v-.2ZM353.6,152.2c1.2,0,3.4-1.5,6.7-4.4,2.8-2.5,4.5-4.2,5-5.3.1-.4.2-1,.2-1.7s-.5-1.5-1.5-1.5-2.2.5-3.8,1.5c-3.2,2.1-5.3,4.5-6.6,7.3-.6,1.3-1,2.4-1,3.2s.2,1,.7,1h.1Z"/>
        <path d="M386.7,170.1c-.7-.7-.5-3,1-6.9,1.1-3,1.9-5.5,2.5-7.4s1.1-3.3,1.5-4.4c.4-1,.5-1.7.5-2.2v-1c-.5-1.7-.2-3.3.6-4.7.8-1.6,2.1-2.3,3.5-2.3s2.3.5,2.8,1.6.7,2.3.5,3.6-.8,2.7-1.8,3.8c-.4.4-.6.7-.8,1.1s-.4.6-.4.6c0,0-.2.6-.6,1.5s-1,2.1-1.6,3.4c-.6,1.2-1,2.3-1.5,3.3s-.6,1.3-.6,1.5c0,0,.4-.2.8-.8.5-.5,1.1-1.2,1.8-2.1,1.6-1.7,3.5-3.8,5.9-6.1s4.6-4.2,6.6-5.9c1.7-1.3,3.3-2.4,4.9-3.2s2.7-1.1,3.5-1c2.2.4,3.6,2.5,4.5,6.8,1,5.3,2.4,8.3,4.4,9,1.8.7,5.1-.2,9.7-2.7,3.9-2.1,7.3-4.2,10.2-6.4,2.9-2.3,5-4.4,6.1-6.2,1.1-2.2,2.5-3.3,4.2-3.3s1.9.5,2.5,1.5.6,1.9.4,3-.8,1.9-1.9,2.7c-.2.1-.7.5-1.5.8s-1.3.8-1.9,1.3c-13.8,8.6-22.8,12.9-26.8,12.9s-3.5-.7-5-2.1-2.7-4.2-3.8-8.7c-.7-3.4-1.5-5.1-2.1-5.1s-1.2.5-2.7,1.5c-1.5,1-2.9,2.1-4.4,3.2-1.9,1.7-4.2,3.8-6.8,6.3s-4.9,5.2-7.2,7.9c-1.1,1.3-2.1,2.5-2.9,3.5-.8,1-1.5,1.5-1.6,1.6-.5.2-1,.4-1.5.4s-.8-.2-1.1-.5v.4Z"/>
        <path d="M454.7,139.2c.7-.7,1.7-1,2.8-.8,1.1.1,1.9.6,2.5,1.6.6,1.1.7,2.3.4,3.9-.4,1.6-1.1,2.7-2.2,3.3-.6.2-1.2,1.1-1.9,2.3s-1.6,3.3-2.5,5.9c-2.7,7.2-3.2,11.7-1.5,13.6.2.2.6.5,1,.5h1.8c4-.4,11.4-4.6,22.2-12.7,9-6.8,13.5-11,13.5-12.7s.8-3,2.5-3.9,3.3-.7,4.9.4c.6.6,1,1.5,1.1,2.3,0,1,0,1.8-.5,2.7-.2.5-.6.8-1.2,1.3s-1,.8-1.6,1.2c-.5.4-1,.5-1.2.5-.5,0-1.3.5-2.8,1.3-1.3.8-3.5,2.3-6.3,4.5-15.1,11.2-24.8,17.2-29.1,18-1.1.2-1.8.4-2.5.4s-1.2-.1-1.9-.4c-.4-.1-.7-.4-1.2-.6s-.7-.5-1-.7c-.6-.6-1-1.5-1.3-2.5-.4-1.1-.5-2.2-.5-3.2s.2-2.7.6-4.6c.4-1.9.8-3.9,1.5-5.8.8-2.8,1.6-5,1.9-6.4.4-1.5.6-2.7.6-3.5s.2-1.9.6-3c.5-1.1,1-1.9,1.6-2.5h-.1ZM465,130.2c-.6,1.2-1.5,1.9-2.5,2.2-1.1.4-2.2.2-3.3-.4-1.1-.7-1.7-1.8-1.8-3s.2-2.4,1.1-3.5c.7-1.1,1.8-1.6,3.2-1.6s2.7.7,3.5,2.2c.6,1.3.6,2.8-.1,4.2h0Z"/>
        <path d="M511,163.8c-1.1,0-1.8-.1-2.4-.4-2.3-1.2-3.5-3.5-3.5-7s.6-5.8,1.7-9.8h0c0-.1-1.2.8-3.3,2.7-4.7,4.2-8.3,6.3-10.8,6.3s-2.5-.7-3.2-2.2c-.2-.7-.4-1.6-.4-2.5,0-2.4,1.1-5.1,3.4-8.1,4.2-4.9,8.6-7.2,13.1-7.2s5,1.1,6.4,3.3c.2.4.4.8.4,1.5,0,1.8-.4,3.3-1,4s-1.2,2.2-1.8,3.9c-1.1,3.6-1.7,6.6-1.7,8.7s.4,2.7,1.2,3.5c.6.6,1.2,1,1.9,1,2.5,0,7.3-2.7,14.1-8,2.5-1.9,4.2-3.6,5.2-5s1.5-2.5,1.5-3.9.4-2.2,1-2.7,1.3-.7,1.9-.7c1.1,0,1.8.5,2.2,1.6.2.6.4,1.3.4,1.9,0,1.8-.6,3-1.7,3.8-.5.2-1.8,1.2-4,3.2-3.4,3-6.8,5.6-10.1,7.9-3.3,2.2-5.7,3.6-7.5,4.1-1,.4-2.1.5-3.2.5v-.2ZM492.8,152.2c1.2,0,3.4-1.5,6.7-4.4,2.8-2.5,4.5-4.2,5-5.3.1-.4.2-1,.2-1.7s-.5-1.5-1.5-1.5-2.2.5-3.8,1.5c-3.2,2.1-5.3,4.5-6.6,7.3-.6,1.3-1,2.4-1,3.2s.2,1,.7,1h.1Z"/>
        <path d="M566.8,107.4c.5-.6,1.5-1.3,2.8-2.4s2.7-2.1,4.1-2.9c1.5-.8,2.5-1.3,3.4-1.5.6,0,3.6-1.5,9.2-4.4,2.4-1.2,5-2.7,7.8-4s5.2-2.7,7-3.6l6.6-3.3.8-1.8c.2-.6.7-1.7,1.5-3.3s1.3-3.4,2.2-5.3l2.8-6.9-1.2-1.2c-.6-.5-1-1-1.2-1.2s-.2-.8-.2-1.7.2-1.7.7-2.5,1.3-1.8,2.5-3,1.6-1.5,2.3-1.8c.7-.2,1.5-.4,2.1-.2,1.7.5,2.5,1.6,2.5,3.2s-2.4,7.9-7.3,18.5c-.6,1.3-1.1,2.5-1.5,3.5-.4,1-.6,1.5-.6,1.5,0,0,.5,0,1-.2.6-.2,1.2-.5,2.1-.8,5.8-2.7,12.4-5.6,19.5-8.6s14.1-5.8,20.5-8.3c2.4-1,5-1.9,7.5-2.9,2.5-1,4.7-1.8,6.3-2.4,1.5-.6,2.8-1.1,4-1.5s1.8-.6,2.1-.6c.5,0,1,.2,1.5.6.5.5.6,1,.6,1.5s-.4,1-1,2.1c-.6,1-1.2,2.1-1.9,2.9-.7,1-1.2,1.6-1.7,1.9-1.1.6-2.1.7-3.2.5-1.1-.2-1.8-1-2.3-2.1,0-.2-.2-.5-.2-.7s-.1-.4-.1-.4c-.2,0-1.8.5-4.6,1.6-2.9,1.1-6.2,2.3-10,3.8-3.8,1.5-7,2.8-10,4-4.2,1.7-8.7,3.6-13.6,5.9-4.9,2.3-9.2,4.2-12.9,6.1s-5.7,2.8-6.1,3.3c-.1.2-.6,1-1.2,2.3s-1.5,3-2.3,5c-1,2.1-2.5,5.3-4.7,9.8s-4.5,9.2-6.9,14.1c-2.5,5-4.6,9.1-6.1,12.4-1.5,3.2-2.2,4.7-2.1,4.7s.6-.1,1.6-.5c1-.2,2.1-.7,3.3-1.2,3.4-1.2,8.1-2.9,14.2-5,6.1-2.1,12.4-4.1,19.2-6.2,4.7-1.5,8.5-2.7,11.2-3.5,2.7-.8,4.7-1.6,5.9-2.1,1.2-.5,2.2-.8,2.5-1.2,1.5-1.1,2.8-1.2,4-.6,1.5.6,2.2,1.6,2.2,3.3s-.2,1.7-.7,2.2h-.1c-.1.2-.4.4-.5.5s-.4.2-.6.2-.7,0-1.2.1h-3.2c-1.6,0-3,0-4.1.2s-2.7.5-4.6,1c-5.2,1.3-11.3,3.2-18,5.2-6.8,2.2-12.9,4.2-18.3,6.3-1.9.7-4.1,1.6-6.4,2.5-2.3,1-4.2,1.8-6.1,2.5-1.7.7-2.8,1.2-3,1.5,0,0-.6.8-1.3,2.3-.7,1.5-1.7,3.3-2.8,5.2-7.9,15.7-14.6,30.8-19.9,45.4,0,0,0,.2-.1.4-.2.7-.7,1.9-1.3,3.5-.6,1.6-1.1,3.3-1.7,5-.5,1.7-.8,3.3-1.1,4.5-.2,1.2,0,1.8.4,1.9,1.1,0,1.9.4,2.8,1.1.7.7,1.2,1.7,1.2,2.7s-.5,1.9-1.5,2.9-2.2,1.6-3.4,1.9-2.3.4-3.3-.1c-2.1-.8-2.1-4.5,0-10.7,2.5-7.5,5.8-16.3,10.1-26.3,4.2-10,8.6-19.5,13.1-28.6,2.9-5.6,4.1-8.4,3.6-8.4s-.5.1-1.2.5c-.6.4-1.5.8-2.3,1.3-.8.6-1.6,1.1-1.9,1.5-.5.4-.7.6-1,1-.2.4-.4.7-.5,1.1-.5,1.5-1.3,2.4-2.5,2.8s-2.4.2-3.6-.4c-1.5-1-2.2-2.2-1.9-3.6.1-1.5,1.1-2.5,2.8-3.2.6-.2,1.8-.7,3.8-1.6,1.8-.8,3.9-1.8,5.9-2.8,2.1-1,3.8-1.8,5.1-2.4l1.5-.6,8-16.6c10.1-20.6,14.9-30.8,14.4-30.8s-5.5,2.8-14.6,7.9c-2.2,1.2-3.9,2.2-5.1,2.9s-2.1,1.3-2.7,1.7-1,.7-1.1,1.1-.2.6-.4,1c-.2,1.7-1.7,3.3-4.4,4.9-3,1.8-5.3,2.7-7,2.7s-1.2,0-1.5-.2c-.4-.1-.7-.5-1.2-.8-1.2-1.3-1.5-2.8-.5-4.1l-.7-.2Z"/>
        <path d="M642.6,165.4c-.6,0-1.2,0-1.8-.1-3.8-.6-5.9-2.7-6.7-5.9v-.6c0-3.8,1.8-7.8,5.5-12.4s7.5-7.4,11.7-8.5h.6c.5,0,1,.1,1.7.6,1.8,1.2,2.8,3.2,2.8,5.7s-.5,3.6-1.6,5.9c-1.1,2.3-2.7,4.2-4.7,5.9-1,.6-1.8,1-2.5,1s-1.8-.6-2.5-1.7c-.1-.2-.2-.6-.4-1s-.1-.7-.1-1.3v-3.8c0-1.8-.1-2.8-.5-2.8s-.5.1-.8.5c-1.9,1.8-3.5,4.1-4.6,6.9-.8,1.9-1.3,3.5-1.3,4.7,0,2.2,2.1,3.3,6.1,3.3s9.1-1.8,15.4-5.6c4.2-2.4,8-5.1,11.4-7.9,3.2-2.7,4.9-4.6,5.3-5.9.2-.5.5-1,.7-1.5.6-.8,1.5-1.3,2.5-1.3s1.6.2,2.7.8c1.2.6,1.9,1.7,1.9,3s-1,2.4-3,3.5c-1,.5-3.3,1.8-7.2,4.4-11.3,7.6-19.8,12-25.4,13-2.2.6-4,.8-5.2.8h.1ZM649.5,151.1c2.3-2.9,3.5-5.5,3.5-7.8s-.4-1.8-1-1.8-.6.4-.6,1.2v1.9c0,.8-.1,1.7-.6,2.5-.6,1.1-.8,1.9-1,2.8l-.2,1.2h-.1Z"/>
        <path d="M693.2,170.9c-2.3,0-4-.7-5.1-2.3-1-1.2-1.5-3.8-1.5-7.5v-3.8c0-3.5-.2-5.9-1.1-7.4s-2.7-2.5-5.6-3.3c-3.2-1-4.9-2.7-4.9-5.2s.1-1.8.5-2.9c.6-2.1,1.7-3.6,3.2-4.7,1.1-.7,2.1-1.2,3.2-1.2s.8,0,1.2.1c2.2.7,3.3,2.5,3.3,5.2s-.1,2.3-.5,3.3c-.4,1.7-.6,2.8-.6,3.3,0,.7.4,1.2,1.2,1.7,1.3,1.2,2.2,2.5,2.5,4,.1.8.2,3.5.4,7.8,0,5,.4,7.8.7,8.4.5.8,1.3,1.3,2.7,1.3,1.9,0,4.6-1.2,7.8-3.5,4.7-3.6,8.7-7.5,12.1-11.8s5.3-7.8,5.7-10.6c0-.8.4-1.7.8-2.7.7-1.7,1.7-2.5,2.9-2.5s.8,0,1.2.4c1.1.7,1.7,1.8,1.7,3.2v1.6c0,.8-.7,1.8-2.1,2.9-.6.4-1.6,1.5-2.8,3.3-4.4,6.4-9.5,12-15.3,16.8-5.1,4.1-9,6.2-11.8,6.2h0ZM679,142.1c.6,0,1.2-.7,2.1-2.2.5-1.1.7-1.9.7-2.5s0-.6-.4-.6-.8.4-1.3,1-.8,1.3-1.1,2.1-.4,1.2-.4,1.7,0,.6.4.6Z"/>
        <path d="M731.2,170.9c-2.3,0-4-.7-5.1-2.3-1-1.2-1.5-3.8-1.5-7.5v-3.8c0-3.5-.2-5.9-1.1-7.4s-2.7-2.5-5.6-3.3c-3.2-1-4.9-2.7-4.9-5.2s.1-1.8.5-2.9c.6-2.1,1.7-3.6,3.2-4.7,1.1-.7,2.1-1.2,3.2-1.2s.8,0,1.2.1c2.2.7,3.3,2.5,3.3,5.2s-.1,2.3-.5,3.3c-.4,1.7-.6,2.8-.6,3.3,0,.7.4,1.2,1.2,1.7,1.3,1.2,2.2,2.5,2.5,4,.1.8.2,3.5.4,7.8,0,5,.4,7.8.7,8.4.5.8,1.3,1.3,2.7,1.3,1.9,0,4.6-1.2,7.8-3.5,4.7-3.6,8.7-7.5,12.1-11.8,3.4-4.2,5.3-7.8,5.7-10.6,0-.8.4-1.7.8-2.7.7-1.7,1.7-2.5,2.9-2.5s.8,0,1.2.4c1.1.7,1.7,1.8,1.7,3.2v1.6c0,.8-.7,1.8-2.1,2.9-.6.4-1.6,1.5-2.8,3.3-4.4,6.4-9.5,12-15.3,16.8-5.1,4.1-9,6.2-11.8,6.2h0ZM717,142.1c.6,0,1.2-.7,2.1-2.2.5-1.1.7-1.9.7-2.5s0-.6-.4-.6-.8.4-1.3,1-.8,1.3-1.1,2.1-.4,1.2-.4,1.7,0,.6.4.6Z"/>
        <path d="M759.7,165.4c-.6,0-1.2,0-1.8-.1-3.8-.6-5.9-2.7-6.7-5.9v-.6c0-3.8,1.8-7.8,5.5-12.4,3.6-4.6,7.5-7.4,11.7-8.5h.6c.5,0,1,.1,1.7.6,1.8,1.2,2.8,3.2,2.8,5.7s-.5,3.6-1.6,5.9c-1.1,2.3-2.7,4.2-4.7,5.9-1,.6-1.8,1-2.5,1s-1.8-.6-2.5-1.7c-.1-.2-.2-.6-.4-1s-.1-.7-.1-1.3v-3.8c0-1.8-.1-2.8-.5-2.8s-.5.1-.8.5c-1.9,1.8-3.5,4.1-4.6,6.9-.8,1.9-1.3,3.5-1.3,4.7,0,2.2,2.1,3.3,6.1,3.3s9.1-1.8,15.4-5.6c4.2-2.4,8-5.1,11.4-7.9,3.2-2.7,4.9-4.6,5.3-5.9.2-.5.5-1,.7-1.5.6-.8,1.5-1.3,2.5-1.3s1.6.2,2.7.8c1.2.6,1.9,1.7,1.9,3s-1,2.4-3,3.5c-1,.5-3.3,1.8-7.2,4.4-11.3,7.6-19.8,12-25.4,13-2.2.6-4,.8-5.2.8h.1ZM766.6,151.1c2.3-2.9,3.5-5.5,3.5-7.8s-.4-1.8-1-1.8-.6.4-.6,1.2v1.9c0,.8-.1,1.7-.6,2.5-.6,1.1-.8,1.9-1,2.8l-.2,1.2h-.1Z"/>
        <path d="M795.8,139.2c.7-.7,1.7-1,2.8-.8,1.1.1,1.9.6,2.5,1.6.6,1.1.7,2.3.4,3.9-.4,1.6-1.1,2.7-2.2,3.3-.6.2-1.2,1.1-1.9,2.3s-1.6,3.3-2.5,5.9c-2.7,7.2-3.2,11.7-1.5,13.6.2.2.6.5,1,.5h1.8c4-.4,11.4-4.6,22.2-12.7,9-6.8,13.5-11,13.5-12.7s.8-3,2.5-3.9c1.7-.8,3.3-.7,4.9.4.6.6,1,1.5,1.1,2.3,0,1,0,1.8-.5,2.7-.2.5-.6.8-1.2,1.3s-1,.8-1.6,1.2c-.5.4-1,.5-1.2.5-.5,0-1.3.5-2.8,1.3-1.3.8-3.5,2.3-6.3,4.5-15.1,11.2-24.8,17.2-29.1,18-1.1.2-1.8.4-2.5.4s-1.2-.1-1.9-.4c-.4-.1-.7-.4-1.2-.6s-.7-.5-1-.7c-.6-.6-1-1.5-1.3-2.5s-.5-2.2-.5-3.2.2-2.7.6-4.6c.4-1.9.8-3.9,1.5-5.8.8-2.8,1.6-5,1.9-6.4.4-1.5.6-2.7.6-3.5s.2-1.9.6-3c.5-1.1,1-1.9,1.6-2.5h-.1ZM806.1,130.2c-.6,1.2-1.5,1.9-2.5,2.2-1.1.4-2.2.2-3.3-.4-1.1-.7-1.7-1.8-1.8-3s.2-2.4,1.1-3.5c.7-1.1,1.8-1.6,3.2-1.6s2.7.7,3.5,2.2c.6,1.3.6,2.8-.1,4.2h0Z"/>
        <path d="M848.3,170.9c-2.3,0-4-.7-5.1-2.3-1-1.2-1.5-3.8-1.5-7.5v-3.8c0-3.5-.2-5.9-1.1-7.4s-2.7-2.5-5.6-3.3c-3.2-1-4.9-2.7-4.9-5.2s.1-1.8.5-2.9c.6-2.1,1.7-3.6,3.2-4.7,1.1-.7,2.1-1.2,3.2-1.2s.8,0,1.2.1c2.2.7,3.3,2.5,3.3,5.2s-.1,2.3-.5,3.3c-.4,1.7-.6,2.8-.6,3.3,0,.7.4,1.2,1.2,1.7,1.3,1.2,2.2,2.5,2.5,4,.1.8.2,3.5.4,7.8,0,5,.4,7.8.7,8.4.5.8,1.3,1.3,2.7,1.3,1.9,0,4.6-1.2,7.8-3.5,4.7-3.6,8.7-7.5,12.1-11.8s5.3-7.8,5.7-10.6c0-.8.4-1.7.8-2.7.7-1.7,1.7-2.5,2.9-2.5s.8,0,1.2.4c1.1.7,1.7,1.8,1.7,3.2v1.6c0,.8-.7,1.8-2.1,2.9-.6.4-1.6,1.5-2.8,3.3-4.4,6.4-9.5,12-15.3,16.8-5.1,4.1-9,6.2-11.8,6.2h0ZM834.1,142.1c.6,0,1.2-.7,2.1-2.2.5-1.1.7-1.9.7-2.5s0-.6-.4-.6-.8.4-1.3,1-.8,1.3-1.1,2.1-.4,1.2-.4,1.7,0,.6.4.6Z"/>
        <path d="M893.5,163.8c-1.1,0-1.8-.1-2.4-.4-2.3-1.2-3.5-3.5-3.5-7s.6-5.8,1.7-9.8h0c0-.1-1.2.8-3.3,2.7-4.7,4.2-8.3,6.3-10.8,6.3s-2.5-.7-3.2-2.2c-.2-.7-.4-1.6-.4-2.5,0-2.4,1.1-5.1,3.4-8.1,4.2-4.9,8.6-7.2,13.1-7.2s5,1.1,6.4,3.3c.2.4.4.8.4,1.5,0,1.8-.4,3.3-1,4s-1.2,2.2-1.8,3.9c-1.1,3.6-1.7,6.6-1.7,8.7s.4,2.7,1.2,3.5c.6.6,1.2,1,1.9,1,2.5,0,7.3-2.7,14.1-8,2.5-1.9,4.2-3.6,5.2-5s1.5-2.5,1.5-3.9.4-2.2,1-2.7,1.3-.7,1.9-.7c1.1,0,1.8.5,2.2,1.6.2.6.4,1.3.4,1.9,0,1.8-.6,3-1.7,3.8-.5.2-1.8,1.2-4,3.2-3.4,3-6.8,5.6-10.1,7.9-3.3,2.2-5.7,3.6-7.5,4.1-1,.4-2.1.5-3.2.5v-.2ZM875.3,152.2c1.2,0,3.4-1.5,6.7-4.4,2.8-2.5,4.5-4.2,5-5.3.1-.4.2-1,.2-1.7s-.5-1.5-1.5-1.5-2.2.5-3.8,1.5c-3.2,2.1-5.3,4.5-6.6,7.3-.6,1.3-1,2.4-1,3.2s.2,1,.7,1h.1Z"/>
      </g>
      <path d="M366.2,125.2l5.7-5.9h-1.9c2.1,2.4,4.2,4.9,6.3,7.3s1.5.5,1.9,0,.5-1.3,0-1.9c-2.1-2.4-4.2-4.9-6.3-7.3s-1.5-.5-1.9,0l-5.7,5.9c-1.2,1.2.7,3.2,1.9,1.9h0Z"/>
    </g>
    <g>
      <g>
        <path class="st0" d="M338.5,222.3c.2-.5.7-1.5,1.3-2.8.6-1.5,1.2-3,1.8-4.7s1.2-3.3,1.7-4.7c.4-1,.6-1.7.7-2.3s.2-1.1.4-1.5v-1.2c0-1.5.5-2.4,1.3-2.9s1.7-.2,2.7.6c1,.8,1,2.1,0,3.6-.1.4-.5.8-.8,1.6-.4.7-.7,1.5-1.1,2.3s-.7,1.6-1,2.2c-.2.6-.4,1-.4,1,0,0,.2-.1.6-.5l1.5-1.5c2.4-2.3,4.9-4.2,7.2-5.7,2.3-1.5,4.2-2.2,5.7-2.2s1.5.2,2.1.8.8,1.2.8,1.9c0,2.3-2.1,5.8-6.3,10.7-.4.4-.6.6-.7.8-.2.2-.2.4-.2.4,0,0,.5,0,1-.4.5-.2,1.2-.6,2.1-1.1s1.6-1,2.4-1.5c3.4-2.3,6.2-4.7,8.5-7.4.7-.8,1.1-1.5,1.3-2.1.2-.5.4-1.1.4-1.7v-1c0-.2.2-.5.5-.7.2-.2.5-.4.6-.5.2,0,.5-.1.8-.1,1.3.1,2.1.6,2.2,1.3s-.1,1.5-.6,2.3c-.5.8-1.1,1.3-1.6,1.7-7.2,7.3-13.7,11.9-19.7,14-.6.1-1.1.4-1.6.6s-.8.5-1.1.6c-2.1,1.6-3.6,2.7-4.7,3.4-1.1.7-2.3,1.3-3.5,1.8-1.1.4-2.1.6-3,.7h-1.5l-2.3,5.5c-2.9,6.8-4.6,10.3-5.1,10.8-.2.2-.6.5-1,.5s-.7,0-1.1-.4-.2-.4-.4-.6,0-.5,0-1,.5-1.8,1.1-3.5,1.3-3.6,2.3-5.8c.4-1,1-2.2,1.7-3.5.7-1.3,1.3-2.7,2.1-3.9.6-1.2,1.2-2.1,1.5-2.4.1-.2.4-.5.6-.8s.4-.6.5-.8h.4ZM346.4,223.4l.6-.5h-1.1c-3.2.6-5.1,1.3-5.8,2.4l-.4.7h1.2c.4,0,.6-.1,1-.4.7-.2,1.5-.6,2.4-1.1s1.7-.8,2.2-1.2h-.1ZM354.3,208.6c-1.5,1.1-3.3,2.8-5.6,5.1s-4.1,4.6-5.8,6.8c-.4.4-.5.7-.5.7h.4c.1,0,.6,0,1.3-.2.7,0,1.6-.2,2.4-.4,1,0,1.8-.2,2.4-.4.7,0,1.1-.1,1.2-.2.4-.1,1.1-.7,2.2-1.8,1.1-1,2.2-2.1,3.2-3.3,3.6-4.1,5.3-6.9,5.2-8.4v-.6q0-.1-.2-.2h-.6c-.5,0-1.3.2-2.3.7-1.1.5-2.1,1.1-3.3,1.8v.4Z"/>
        <path class="st0" d="M359.3,231.9c-.5,0-1-.1-1.3-.5-.4-.4-.6-.8-.6-1.5v-.7c.2-1.2,1.5-3.3,3.8-5.9,1.6-1.8,3.3-3.5,5.2-5.3,1.3-1.2,2.2-2.1,2.4-2.8v-.6c.5-.8.7-1.7,1.1-2.8l.2-.8c2.1-7.8,4.4-11.7,7-11.7s1.6.5,1.6,1.5-.8,2.4-2.7,4.1c-.7.6-1.2,1.2-1.6,1.7-.4.7-.6,1.7-1,2.7-1,2.4-1.3,3.8-1.3,4h0c.1,0,1.2-.6,3-1.9l6.8-4.5c1.2-.7,2.2-1.3,2.7-1.7.8-.6,1.5-1.2,1.6-1.7.5-1.1,1.2-1.6,2.2-1.6s1.3.5,1.6,1.3v.7c0,1.1-.7,1.8-2.4,2.1-.5,0-.8.1-1.3.4-.8.4-3,1.7-6.8,4.4-4.7,3.3-7.6,5.3-8.5,6.3-.2.4-.6,1-1,1.9-1.7,4.2-3.8,7.6-6.1,10.2-1.8,2.1-3.4,3-4.7,3v-.2ZM359.8,229.6c.2,0,.8-.5,1.7-1.3,1.7-1.6,3.3-3.6,4.5-6.3.4-.6.5-1,.5-1.1s0,0,0,0c-.1,0-.5.2-1.1.8-1.3,1.3-2.7,2.9-4,4.6-1.2,1.6-1.8,2.5-1.8,3.2s0,0,0,0h.2Z"/>
        <path class="st0" d="M388.3,200.2c.5-.5,1.1-.6,1.8-.6s1.2.4,1.6,1c.4.7.5,1.5.2,2.5-.2,1-.7,1.7-1.5,2.1-.4.1-.8.6-1.2,1.5-.5.8-1,2.1-1.6,3.8-1.7,4.5-2.1,7.4-1,8.6.1.1.4.2.6.4h1.2c2.5-.2,7.3-2.9,14.1-8.1,5.7-4.2,8.6-7,8.6-8.1s.5-1.9,1.6-2.4,2.1-.5,3,.2c.4.4.6.8.6,1.5s0,1.2-.4,1.7c-.1.2-.4.6-.7.8-.4.2-.6.5-1,.7s-.6.4-.7.4c-.2,0-.8.2-1.7.8-.8.5-2.2,1.5-4,2.9-9.6,7.2-15.8,10.9-18.6,11.4-.7.1-1.2.2-1.6.2s-.8,0-1.2-.2c-.2,0-.5-.2-.7-.4-.2-.1-.5-.4-.6-.5-.4-.4-.6-1-.8-1.6-.2-.7-.4-1.3-.4-2.1s.1-1.7.4-2.9.6-2.4,1-3.8c.6-1.8,1-3.2,1.2-4.1s.4-1.7.4-2.2.1-1.2.4-1.9c.2-.7.6-1.2,1-1.6h0ZM394.8,194.4c-.4.7-1,1.2-1.6,1.5s-1.3.1-2.1-.2c-.7-.5-1.1-1.1-1.1-1.9s.1-1.6.6-2.2c.5-.7,1.2-1,2.1-1s1.7.5,2.2,1.3c.4.8.4,1.7,0,2.7h-.1Z"/>
        <path class="st0" d="M412.8,218.6c-.6,0-1.1,0-1.5-.1-2.1-.8-3-2.5-3-5.1s.7-4.5,2.1-7.2c1.1-2.2,2.5-4.2,4.5-6.1,1.8-1.8,3.6-3.3,5.5-4.1,1-.5,1.7-.7,2.4-.7s1.7.5,2.1,1.5c0,.4.1.7.1,1.1,0,1.2-.4,2.5-1.1,4-.7,1.6-1.6,2.3-2.8,2.3s-1.1-.2-1.6-.7c-.4-.2-.5-.5-.6-.7,0-.2-.1-.5-.1-1s0-.7.2-1c.1-.2.4-.6.8-1.1.7-.7,1-1.2,1-1.2h0c-.1,0-.6.2-1.5.7-3.4,2.2-5.9,5.2-7.8,8.9-1,2.1-1.5,3.9-1.5,5.3,0,2.2,1,3.3,3,3.3,3.3,0,8.4-2.2,15.2-6.7,2.5-1.7,4.5-3.2,5.9-4.4.7-.6,1-1,1.1-1.2v-.4c0-.4-.1-.6-.1-.8,0-.5.1-1,.5-1.5.4-.5.8-.7,1.7-.7s1.7.5,2.1,1.3c0,.2.1.6.1.8,0,.5-.2,1.1-.7,1.6-1.5,1.2-4.6,3.5-9.5,6.7-7.2,4.7-12.6,7-16.6,7h0Z"/>
        <path class="st0" d="M434.1,223.9c-1.2,0-2.2-.6-2.8-1.8s-.7-2.1-.8-3.3c0-2.5.7-5.5,2.2-9.1,1.6-4,3.6-7,6.1-9,1-.8,2.1-1.2,3.2-1.2s2.5.7,3.6,2.3c.6,1,1,1.9,1.2,3,0,.7.2,1.2.4,1.2s.6,0,1.2-.2c2.9-1,4.6-1.8,4.9-2.8.5-1.1,1.3-1.6,2.3-1.6s1.5.4,2.1,1.2c.1.4.2.6.2,1,0,1.2-.7,1.9-2.3,2.3-.7.1-2.5.7-5.3,1.7-.7.2-1.3.4-1.7.5-1,.2-1.5.4-1.6.5-.2.4-.4.8-.5,1.3-.4,1-.8,2.2-1.6,3.6-1.2,2.3-2.4,4.2-3.6,5.7-2.7,3.3-5,4.9-6.7,4.9l-.4-.2ZM434.2,221.4c.5,0,1-.2,1.7-.7,1.3-1,2.8-2.7,4.4-5,1.6-2.3,2.8-4.5,3.5-6.4l.2-.8c-1.7-.2-3-.8-4-1.7-.4-.4-.7-.6-1-.6s-.7.5-1.5,1.5c-1.5,2.3-2.7,4.5-3.4,6.7-.7,1.8-1.1,3.5-1.1,5s.4,2.1,1,2.1h.1ZM444.4,205.1h0c0-.2-.1-.5-.5-.8-.6-.6-1.1-1-1.3-1s-.2,0-.2.1c0,.5.4,1,1.1,1.5.4.2.6.4.8.4h.1Z"/>
        <path class="st0" d="M456.9,196.8c.5-1.2,1.1-2.4,1.7-3.9s1.2-2.8,1.7-4c0-.2.2-.5.2-.7l1.8-4.2-.5-.6c-1-1.3-1-2.7.4-4,1.7-1.8,3.2-2.1,4.5-.7s.5.7.5,1.1-.1,1.1-.5,1.8c-.4.8-.8,1.9-1.6,3.4-2.2,4.4-4.6,9.3-7.2,15.2-2.5,5.7-5,11.5-7,17.4-2.1,5.8-3.3,11.2-3.9,15.9l-.2,2.4,1,1.1c.4.4.6.7.7,1,.1.2.2.5.2,1,0,1-.2,1.6-.8,1.9s-1.3.5-2.2.2c-1.5-.6-2.1-2.1-2.1-4.5s1-7,2.5-12c1.6-4.9,3.4-9.8,5.5-14.9,2.1-5,3.8-9.2,5.3-12.6h-.1Z"/>
        <path class="st0" d="M459.8,223.9c-1.2,0-2.2-.6-2.8-1.8s-.7-2.1-.8-3.3c0-2.5.7-5.5,2.2-9.1,1.6-4,3.6-7,6.1-9,1-.8,2.1-1.2,3.2-1.2s2.5.7,3.6,2.3c.6,1,1,1.9,1.2,3,0,.7.2,1.2.4,1.2s.6,0,1.2-.2c2.9-1,4.6-1.8,4.9-2.8.5-1.1,1.3-1.6,2.3-1.6s1.5.4,2.1,1.2c.1.4.2.6.2,1,0,1.2-.7,1.9-2.3,2.3-.7.1-2.5.7-5.3,1.7-.7.2-1.3.4-1.7.5-1,.2-1.5.4-1.6.5-.2.4-.4.8-.5,1.3-.4,1-.8,2.2-1.6,3.6-1.2,2.3-2.4,4.2-3.6,5.7-2.7,3.3-5,4.9-6.7,4.9l-.4-.2ZM459.9,221.4c.5,0,1-.2,1.7-.7,1.3-1,2.8-2.7,4.4-5,1.6-2.3,2.8-4.5,3.5-6.4l.2-.8c-1.7-.2-3-.8-4-1.7-.4-.4-.7-.6-1-.6s-.7.5-1.5,1.5c-1.5,2.3-2.7,4.5-3.4,6.7-.7,1.8-1.1,3.5-1.1,5s.4,2.1,1,2.1h.1ZM470.1,205.1h0c0-.2-.1-.5-.5-.8-.6-.6-1.1-1-1.3-1s-.2,0-.2.1c0,.5.4,1,1.1,1.5.4.2.6.4.8.4h.1Z"/>
        <path class="st0" d="M485.6,205.3c-1.2-.7-1.6-1.8-1.2-3.2v-.6c.1,0-.4.5-.4.5-.5.4-1.1,1.1-1.9,2.2s-1.6,2.2-2.2,3.3c-.8,1.6-1.6,3-2.1,4.5-.5,1.5-.6,2.5-.6,3.3s.7,1.2,1.9.5,3.3-2.4,6.4-5.3c2.4-2.3,4.2-3.9,5.5-4.9s2.2-1.5,3-1.7c1.1-.2,1.8,0,2.4.7.8,1.5.7,3.9-.2,7.4,0,.5-.2,1-.4,1.7,0,0,.2,0,.5-.4.4-.2.7-.5,1.2-.8,3.8-2.8,7.6-5.3,11.9-7.8.7-.4,1.3-.7,1.9-1.2s1.1-.8,1.5-1.1c1.5-1.2,2.4-1.5,3-.8.5.6.2,1.6-.8,2.8-.2.2-.6.5-.8.6s-.7.2-1.2.4c-.4,0-.7.1-1.2.2-.4,0-.7.2-1,.4-1.6.8-3.8,2.2-6.6,4.1s-5.3,3.8-7.8,5.7l-2.2,1.7-1.5,3c-3.9,7.6-7.8,13.4-11.7,17.1-2.7,2.5-4.7,3.5-6.3,2.8-1.3-.6-1.7-1.9-1.2-3.8,1.3-4.2,6.7-10.2,16.1-18l2.8-2.3.7-1.8c1-2.2,1.5-4.1,1.8-5.9.2-1.7.1-2.8-.4-2.9-.2,0-.8.2-1.7.8-.8.6-1.7,1.2-2.7,1.9-.4.4-1,.8-1.7,1.6-.7.7-1.6,1.5-2.4,2.2-2.3,2.2-4.1,3.8-5.3,4.6-1.2.8-2.2,1.3-3,1.2-.5,0-1,0-1.3-.4-.5-.2-.8-.5-1-.8-.8-1.7-.5-4.2.8-7.4,1.3-3.3,3.5-6.4,6.4-9.7,4.2-4.7,7.3-6.1,9.1-4.1,0,0,.2.2.4.6,0,.2.2.5.2.8s.1.7.1,1c0,.4,0,.7-.2,1.2-.4,1.3-1,2.5-1.7,3.8-.8,1.2-1.6,1.9-2.3,2.4-1.1.5-1.9.5-2.8,0h-.1ZM486.2,227.8c.6-.8,1.2-1.8,1.8-2.9s1.2-2.1,1.6-2.8c.5-.8.6-1.2.6-1.3,0,0-.6.4-1.6,1.2s-2.1,1.9-3.4,3.3c-1.3,1.3-2.5,2.5-3.6,3.8s-1.9,2.2-2.4,2.8-.7,1-1.2,1.8c-.6.8-1.1,1.7-1.6,2.7-.5.8-.6,1.5-.4,1.8.1.2.8,0,2.2-.8,2.3-1.7,5-4.7,8-9.2v-.2ZM487.2,198.7c-.4.4-.7.6-1,1s-.4.6-.4.7,0,0,.2,0,.4-.2.5-.4c.2-.1.4-.4.6-.6s.4-.4.5-.6l.5-.7-.8.5h-.1Z"/>
        <path class="st0" d="M525.5,215.8c-.6,0-1.2,0-1.6-.2-1.5-.7-2.2-2.3-2.2-4.5s.4-3.8,1.1-6.3h0s-.7.6-2.1,1.7c-3,2.7-5.2,4-6.9,4s-1.6-.5-2.1-1.5c-.1-.5-.2-1-.2-1.6,0-1.5.7-3.3,2.2-5.2,2.7-3,5.5-4.6,8.4-4.6s3.2.7,4.1,2.1c.1.2.2.5.2,1,0,1.2-.2,2.1-.6,2.5s-.8,1.3-1.2,2.4c-.7,2.3-1.1,4.1-1.1,5.6s.2,1.7.7,2.3c.4.4.7.6,1.2.6,1.7,0,4.6-1.7,8.9-5.1,1.6-1.2,2.7-2.3,3.3-3.2s1-1.7,1-2.4.2-1.5.6-1.7.8-.5,1.2-.5c.7,0,1.1.4,1.5,1,.1.4.2.8.2,1.2,0,1.2-.4,1.9-1.1,2.4-.4.1-1.2.8-2.5,2.1-2.2,1.9-4.2,3.5-6.4,5-2.1,1.5-3.6,2.3-4.7,2.7-.6.2-1.3.4-2.1.4h.2ZM513.8,208.4c.7,0,2.2-1,4.2-2.8,1.8-1.6,2.8-2.7,3.2-3.4,0-.2.1-.6.1-1.1s-.4-1-1-1-1.3.4-2.4,1c-2.1,1.3-3.4,2.8-4.1,4.6-.4.8-.6,1.6-.6,2.1s.1.6.5.6h.1Z"/>
      </g>
      <path class="st0" d="M446.6,195c2.1-2.7,4.4-5.1,6.9-7.3s.7-1.9,0-2.5-1.8-.7-2.5,0c-2.5,2.2-4.9,4.6-6.9,7.3s-.5.7-.5,1.3.2,1,.5,1.3c.6.6,1.9.8,2.5,0h0Z"/>
    </g>
  </g>
</svg>