<?xml version="1.0" encoding="UTF-8"?>
<svg id="Layer_1" xmlns="http://www.w3.org/2000/svg" version="1.1" viewBox="0 0 800 800">
  <!-- Generator: Adobe Illustrator 29.1.0, SVG Export Plug-In . SVG Version: 2.1.0 Build 142)  -->
  <defs>
    <style>
      .st0 {
        fill: #aea393;
      }
    </style>
  </defs>
  <g>
    <path d="M127.8,337c2,1.5,2.2-1.6,3.1-2.6,24.8-27.3,49.6-6.8,52.6,23.9,2.1,20.9-3.1,40-12.8,58.3-1.4,2.7-7.1,9.6-6.8,11.8,12.9,8.4,30.1,25.6,19.1,41.9-12.8,19.1-45.8,6.4-60.9-3.7-13.6,10.5-56.1,24.9-58.4-2.9-1.2-14.8,10.6-23.7,19.5-33.2-13.4-22.3-21.6-44.6-19.5-71.2,2.9-37.2,36-54.6,63.1-24.8.7.8.9,2.5,1,2.6ZM92.4,322.8c-7.4,1.3-14.4,7.8-18.1,13.9-14.2,23.1-7.6,56.2,4.4,78.9,1,1.9,6.9,12.1,8.3,12.2,7.1-4.8,36.3-25.4,37.5-32.6s-5.2-12.9-5.7-16.6c-1.8-13.6.8-27.3,7.9-38.9-7.8-10.4-20.6-19.3-34.3-17ZM161.9,425.9c15.7-23.4,27.1-57.5,15-84.8-8.6-19.3-29-22.4-43.4-7.3-5.9,6.2-2.1,5.7,0,11.4,4.9,13.2,5.4,26.3.3,39.5-.9,2.3-5.8,10.7-5.8,11.5.5,5.5,20.3,20.7,25.3,24.3,1.3.9,7.8,5.9,8.6,5.4ZM128.8,342.2c-1.6-1.5-1.8.5-2.3,1.3-8.7,13.4-9.8,36.1-.3,49.3,8.1-11.5,10.4-25.3,6.9-38.9-.4-1.5-3.9-11.3-4.3-11.7ZM127.8,398l-38.3,33.6c8.5,12.3,20,22.4,32.6,30.5,1.6,0,16.8-11.9,19.2-14,2.3-2,17.3-17.5,17.5-18.8.2-1.3-.8-1.7-1.5-2.4-5-5.3-15.1-10.7-20.7-16.5-3-3.1-7.1-8.4-8.8-12.4ZM125.7,465.2c13.3,7.8,40.9,18.9,53.3,5.2,12.7-14-4.9-31.8-16.6-39.4l-36.7,34.1ZM118.5,465.2l-32.6-32c-10.6,7.5-26.9,26.3-15,38.7,11.2,11.7,35.9-.3,47.5-6.7Z"/>
    <g>
      <path class="st0" d="M127.9,336.9c1.8,1.4,2-1.7,2.9-2.6,27.1-29.8,53.4-3.1,54.2,29.3,1.1,18.8-4.4,37.4-13.4,53.8-1.9,3.2-4.4,6-6.1,9.2-.2.5-.6,1.2-.6,1.7,0,0-.5-.7-.5-.7,4.2,2.8,8.1,5.9,11.6,9.5,6.8,7,13.1,16.8,10.5,27-2.7,10.3-12.5,16.3-22.7,16.6-14.7.4-29.8-5.7-42.1-13.4,0,0,.9,0,.9,0-7.5,5.6-16.2,9.2-25.1,11.7-8.9,2.2-19.4,3.8-27.7-1.4-6.5-4.2-8.3-12.5-7.3-19.7,1-7.2,5.3-13.5,10.1-18.6,3.1-3.5,6.4-6.6,9.5-9.9,0,0-.2,1.9-.2,1.9-13.1-21.1-21.9-46-19.5-71.1,1.3-26.6,22.8-51.2,50.3-37.2,3.9,2,7.6,4.8,10.7,7.8,1.3,1.2,2.5,2.5,3.7,3.8.5.7.8,1.8.9,2.4h0ZM127.7,337.1s0,0,0-.1c0,0,0,0,0,0v-.2c-.2-.7-.4-1.5-.9-2.1-1.2-1.3-2.4-2.6-3.7-3.7-5.7-5.4-12.8-9.6-20.7-10.8-18.8-2.9-32.5,12.8-36,29.9-1.5,6.8-1.7,13.8-1.5,20.7.7,21.5,9.2,41.7,20.3,59.9,0,0-.8.9-.8.9-7.5,8.1-17.2,15.4-19.1,26.8-3.1,27.3,28.3,21.3,44.5,14.2,4.3-1.9,8.6-4,12.3-6.9,4.2,2.9,8.7,5.3,13.3,7.4,12.4,5.5,29.8,10.6,42,2.4,5.9-4.2,9.5-11.6,8.4-18.8-2.2-12-12.7-21-22.4-27.4,0,0-.4-.3-.4-.3-.3-2.2,1-3.9,2-5.6,2.8-4.2,5.4-8,7.3-12.6,6.9-14.7,11-30.8,10.4-47.1,0-31.5-24.7-58.2-51.6-29.2-.9,1-1.3,4.2-3.3,2.6h0Z"/>
      <path class="st0" d="M92.4,322.9c-15.2,3.4-22.3,20.4-24.1,34.4-3,22.5,3.9,52.3,18.6,69.9,5.6-3.8,14.7-10.9,21.1-16.3,3.4-2.9,6.8-5.8,9.9-9,2-2.1,4.1-4.1,5.1-6.7-1-3-3.5-8.7-4.8-12.7-1.9-5.5-1.7-11.7-1.4-17.4.8-9.2,3.8-18.3,8.8-26,0,0,0,1.4,0,1.4-7.3-10.6-19.8-19.8-33.3-17.5h0ZM92.3,322.6c13.7-2.3,27,6,35.3,16.4,0,0,.5.6.5.6s-.4.8-.4.8c-6.6,11.4-9.1,25.1-7.3,38.1,1.2,5.5,3.8,10.6,5.5,16,1.1,6.4-21.9,22.2-27.4,26.1-3.8,2.6-7.6,5.2-11.4,7.7-.4,0-.7-.2-.9-.4-3.4-3.6-5.6-8.2-8.1-12.4-7-13.5-12.2-28.1-13.1-43.4-.8-12.1,1.6-24.6,8.2-34.9,4.3-6.9,11-13,19.2-14.6h0Z"/>
      <path class="st0" d="M161.8,425.8c13.6-23.2,23.8-52.1,16.5-79-1.2-3.7-2.6-7.5-4.8-10.7-5.4-8.5-15.4-13-25.2-10.3-5.6,1.6-10.5,5.1-14.4,9.4-1,1.2-2.4,2.5-2.3,4,0,.3.3.8.7,1.3,3.2,4.4,4.4,10.1,5.6,15.4,2,10.1,1,20.8-3.1,30.3-1.7,3.5-3.7,6.7-5.4,10.1,0,0,0,.2,0,.2,0,0,0,.2,0,0,0,0,0-.1,0-.2,0,0,0,0,0,0h0c0,.5.2.8.4,1.2,1.8,3.3,4.7,6,7.5,8.7,5.7,5.5,11.9,10.5,18.2,15.4,2.1,1.5,4,3.4,6.4,4.3h0ZM162,426c-.6.3-1.5-.3-2.1-.6-4.1-2.3-7.9-5-11.7-7.7-4.3-3.1-8.6-6.4-12.6-9.9-3.2-3.1-7-6-8.8-10.3-.1-.4-.3-.8-.3-1.2,0-.7.4-1.4.5-1.7,1.6-3.3,3.4-6.5,5-9.8,5.1-12.6,4.8-27-.1-39.7-.7-2-2.2-3.3-2.8-5.5-.5-2.6,1.6-4.6,3.1-6.2,12.5-13.2,31.6-13.6,42.2,2,17.9,28.4,6.2,65.3-12.3,90.5h0Z"/>
      <path class="st0" d="M128.7,342.3c-.4-.4-1-.7-1.3-.3-1.8,3.5-3.6,7.2-4.4,11.1-2.8,12.9-5.2,28.2,3.9,39.2,0,0-1.4,0-1.4,0,4.5-7.4,7.3-15.8,7.6-24.4.4-8.6-.9-17.6-4.4-25.6h0ZM128.9,342.1c.6.9,1,2.2,1.4,3.1,1.7,4.2,3.9,8.1,4.9,12.6,3,12.3-.4,25.8-8.2,35.6,0,0-.8,1-.8,1-2.8-4.3-4.6-9.2-5.8-14.1-3.5-13.9-2.3-25.1,6.1-37,.6-1.1,1-2.7,2.5-1.3h0Z"/>
      <path class="st0" d="M127.7,398.2c-12.2,11.5-24.6,23.7-37.5,34.3,0,0,.2-1.5.2-1.5,2,3.1,4.2,6.1,6.5,9,7,8.7,16,15.7,25.6,21.4,0,0-.5-.1-.5-.1,0,0,0,0,0,0h0c1.6-.9,2.9-2,4.4-3,2.7-2.2,6.6-5.1,9.2-7.3,4.5-3.4,8.7-8,12.6-12.1,3-3.2,6-6.3,8.8-9.7,0,0,.2-.2.2-.2,0,0,0,.3,0,.1,0,0,0,0,0,0-1.7-1.6-3.7-3.6-5.7-5.1-6.1-4.9-13.1-9.2-17.9-15.5-2.3-3.1-4.7-6.4-5.9-10.2h0ZM127.8,397.9c3.8,6.8,9.3,12.6,15.8,17,5,3.6,10.5,6.7,14.9,11.1.7.6,1.7,1.4,1.8,2.5.2.9-.1,1.8-.7,2.5-2.8,3.6-6,6.8-9,10-2.6,2.5-5.8,6-8.5,8.4-4.7,3.8-9.4,7.2-14.3,10.6-1.8,1-3.6,2.6-5.6,3,0,0-.2,0-.2,0h-.2c-12.5-9-24.5-19.1-33.6-31.5,12.4-11.8,26.5-22.8,39.8-33.6h0Z"/>
      <path class="st0" d="M125.9,465.2c11.8,5.2,24.3,10.3,37.3,10.5,8.5.4,17.7-4.1,19.5-13.1,2-12.2-11.8-24.1-21.1-30.2,0,0,1.9-.2,1.9-.2-1.5,1.4-2.9,2.8-4.4,4.2-10.4,9.7-22.3,19.5-33.2,28.8h0ZM125.6,465.2c10-10.2,20.6-21.2,31.1-30.9,1.9-1.7,3.8-3.5,5.7-5.2,0,0,1,.7,1,.7,10.2,7.1,22.7,19.4,20.3,32.9-2,9.3-11.2,15.1-20.3,15.4-13,.5-27.2-5.5-37.7-12.9h0Z"/>
      <path class="st0" d="M118.3,465.2c-11.2-10-23.1-20.2-33-31.4,0,0,1,0,1,0-9.4,6.1-19.1,17.3-18.3,29,.8,7.9,8.3,12.7,16,12.4,12,0,23.4-5.6,34.3-10.1h0ZM118.6,465.2c-1.4,1.1-3.8,2.4-5.3,3.4-9,5.1-18.7,9.6-29.3,9.9-9.1.3-17.9-5.9-18.5-15.4-.3-11.8,11.4-23.5,19.9-30.5,0,0,.5-.4.5-.4l.5.5c11.5,9.9,22.1,21.4,32.2,32.6h0Z"/>
    </g>
  </g>
  <g>
    <g>
      <g>
        <path d="M291.9,322.1c-.1,1.2-.6,2.8-1.3,4.9-.3.9-.5,1.6-.7,2.2-.2.6-.3.9-.3,1,0,0,.7,0,1.7-.4,1-.3,2.3-.7,3.8-1.1,9.5-2.9,18.7-4.9,27.6-6,8.9-1.1,16.2-1.2,21.9-.2,4.8.8,7.5,3.1,8.1,7,.4,1.7.1,3-.8,4-1.4,1.5-2.8,1.5-4.3,0-.3-.3-.5-.6-.6-.9-.1-.3-.2-.8-.2-1.4s0-.8.1-1.2c0-.4.2-.6.3-.8,1.3-2.2-1-3.7-6.9-4.6-1.9-.2-4.9-.3-8.9-.2-4,0-7.4.3-10.1.6-6.6.9-13,2.2-19.2,4-1.9.5-3.8,1.1-5.8,1.7-2,.6-3.8,1.2-5.3,1.6-1.5.5-2.3.8-2.6.9-.1.1-.6,1.2-1.5,3.1s-1.9,4.3-3.2,7c-1.4,3.2-3.2,7.3-5.3,12.1-1.7,3.9-3.4,7.6-4.9,11-7.4,16.8-13,30.1-16.9,39.9s-7.1,18.7-9.5,26.7c-.5,1.6-1,3.1-1.4,4.6-.4,1.5-.7,2.6-.9,3.3l-.6,2.5c0,.1,0,.2,0,.3-.2.3.2.4,1.1.4,2.4,0,3.5,1.3,3.3,4,0,.5-.2.9-.4,1.5-.2.5-.6,1.2-1.2,1.9-.4.6-1,1.4-1.8,2.4s-1.7,1.9-2.6,2.7c-.9.8-1.6,1-2.3.8s-.9-1.4-.9-3.3c.2-3.3,1.7-9.5,4.5-18.7,2.8-9.2,6.4-19.2,10.6-30,2.1-5.5,4.4-11,6.7-16.5,2.3-5.5,5.8-13.7,10.6-24.7.8-1.7,1.4-3.2,1.9-4.4.5-1.2.8-1.9.8-1.9s0-.1-.3-.2c-.2,0-.4-.2-.8-.2-2.2-.5-3.1-2.1-2.9-4.7.3-2,1.6-5.3,3.8-10,.5-1,1-2,1.4-2.8.4-.8.7-1.3.8-1.5.1-.2.2-.4.2-.5,0-.2,0-.3,0-.3-.1,0-.8.2-2.1.6-1.3.5-2.9,1.1-4.8,1.9-1.9.8-3.9,1.6-5.9,2.5-8,3.5-16.1,7.4-24.1,11.9-8,4.4-14.8,8.7-20.3,12.8-4.7,3.5-8.7,7-12,10.4-3.3,3.4-5,5.8-5,7.1s3.1,1.3,9.4-.5c7.7-2.2,16.2-5.4,25.6-9.6,10.4-4.6,16.5-8,18.3-10,1.2-1.4,2.4-1.8,3.7-1,.5.3,1,.7,1.3,1.3s.5,1.2.5,1.8-.2,1.3-.7,1.9-1.1,1-1.7,1.3c-.4.1-1.1.5-2.3,1-1.2.5-2.4,1.1-3.8,1.7-9.4,4.3-18.9,8.1-28.6,11.3-9.7,3.3-16.2,4.9-19.5,4.9s-4.4-1.1-4.6-3.2c0-.8,0-1.6.3-2.4s.8-1.8,1.6-2.9c4.6-6.5,13.5-13.8,26.7-21.8,13.1-8.1,28-15.4,44.6-22l5.8-2.3,2.8-4.6c2.4-3.8,4.1-6.5,5.3-8,1.2-1.5,2.1-2.3,2.8-2.3s.3,0,.5.2c.2.1.5.3.7.4.2.2.4.4.5.5,0,.2.1.4.2.7,0,.3,0,.7,0,1.3Z"/>
        <path d="M285.2,413.9c-.9,0-1.5-.1-2-.3-1.9-1-2.9-2.9-2.9-5.8s.5-4.8,1.4-8.1h0c0-.1,0-.1,0-.1,0,0-1,.8-2.7,2.3-3.9,3.5-6.8,5.2-8.9,5.2s-2.1-.6-2.6-1.8c-.2-.6-.3-1.3-.3-2.1,0-2,.9-4.2,2.8-6.7,3.5-4,7.1-5.9,10.8-5.9s4.1.9,5.3,2.7c.2.3.3.7.3,1.2,0,1.5-.3,2.7-.8,3.3s-1,1.8-1.5,3.2c-.9,3-1.4,5.4-1.4,7.2s.3,2.2,1,2.9c.5.5,1,.8,1.6.8,2.1,0,6-2.2,11.6-6.6,2.1-1.6,3.5-3,4.3-4.1.8-1.1,1.2-2.1,1.2-3.2s.3-1.8.8-2.2,1.1-.6,1.6-.6c.9,0,1.5.4,1.8,1.3.2.5.3,1.1.3,1.6,0,1.5-.5,2.5-1.4,3.1-.4.2-1.5,1-3.3,2.6-2.8,2.5-5.6,4.6-8.3,6.5-2.7,1.8-4.7,3-6.2,3.4-.8.3-1.7.4-2.6.4ZM270.2,404.3c1,0,2.8-1.2,5.5-3.6,2.3-2.1,3.7-3.5,4.1-4.4.1-.3.2-.8.2-1.4s-.4-1.2-1.2-1.2-1.8.4-3.1,1.2c-2.6,1.7-4.4,3.7-5.4,6-.5,1.1-.8,2-.8,2.6s.2.8.6.8Z"/>
        <path d="M297.5,419.1c-.6-.6-.4-2.5.8-5.7.9-2.5,1.6-4.5,2.1-6.1s.9-2.7,1.2-3.6c.3-.8.4-1.4.4-1.8,0-.4,0-.6,0-.8-.4-1.4-.2-2.7.5-3.9.7-1.3,1.7-1.9,2.9-1.9s1.9.4,2.3,1.3c.4.9.6,1.9.4,3-.2,1.1-.7,2.2-1.5,3.1-.3.3-.5.6-.7.9s-.3.5-.3.5-.2.5-.5,1.2-.8,1.7-1.3,2.8c-.5,1-.8,1.9-1.2,2.7s-.5,1.1-.5,1.2c0,0,.3-.2.7-.7.4-.4.9-1,1.5-1.7,1.3-1.4,2.9-3.1,4.9-5s3.8-3.5,5.4-4.9c1.4-1.1,2.7-2,4-2.6s2.2-.9,2.9-.8c1.8.3,3,2.1,3.7,5.6.8,4.4,2,6.8,3.6,7.4,1.5.6,4.2-.2,8-2.2,3.2-1.7,6-3.5,8.4-5.3,2.4-1.9,4.1-3.6,5-5.1.9-1.8,2.1-2.7,3.5-2.7s1.6.4,2.1,1.2.5,1.6.3,2.5c-.2.9-.7,1.6-1.6,2.2-.2.1-.6.4-1.2.7s-1.1.7-1.6,1.1c-11.4,7.1-18.8,10.6-22.1,10.6s-2.9-.6-4.1-1.7c-1.2-1.1-2.2-3.5-3.1-7.2-.6-2.8-1.2-4.2-1.7-4.2s-1,.4-2.2,1.2c-1.2.8-2.4,1.7-3.6,2.6-1.6,1.4-3.5,3.1-5.6,5.2-2.1,2.1-4,4.3-5.9,6.5-.9,1.1-1.7,2.1-2.4,2.9-.7.8-1.2,1.2-1.3,1.3-.4.2-.8.3-1.2.3-.4,0-.7-.2-.9-.4Z"/>
        <path d="M353.5,393.6c.6-.6,1.4-.8,2.3-.7.9.1,1.6.5,2.1,1.3.5.9.6,1.9.3,3.2-.3,1.3-.9,2.2-1.8,2.7-.5.2-1,.9-1.6,1.9-.6,1-1.3,2.7-2.1,4.9-2.2,5.9-2.6,9.6-1.2,11.2.2.2.5.4.8.4s.8,0,1.5,0c3.3-.3,9.4-3.8,18.3-10.5,7.4-5.6,11.1-9.1,11.1-10.5s.7-2.5,2.1-3.2c1.4-.7,2.7-.6,4,.3.5.5.8,1.2.9,1.9,0,.8,0,1.5-.4,2.2-.2.4-.5.7-1,1.1s-.8.7-1.3,1c-.4.3-.8.4-1,.4-.4,0-1.1.4-2.3,1.1-1.1.7-2.9,1.9-5.2,3.7-12.4,9.2-20.4,14.2-24,14.8-.9.2-1.5.3-2.1.3s-1-.1-1.6-.3c-.3-.1-.6-.3-1-.5s-.6-.4-.8-.6c-.5-.5-.8-1.2-1.1-2.1-.3-.9-.4-1.8-.4-2.6s.2-2.2.5-3.8c.3-1.6.7-3.2,1.2-4.8.7-2.3,1.3-4.1,1.6-5.3.3-1.2.5-2.2.5-2.9s.2-1.6.5-2.5c.4-.9.8-1.6,1.3-2.1ZM362,386.2c-.5,1-1.2,1.6-2.1,1.8-.9.3-1.8.2-2.7-.3-.9-.6-1.4-1.5-1.5-2.5s.2-2,.9-2.9c.6-.9,1.5-1.3,2.6-1.3s2.2.6,2.9,1.8c.5,1.1.5,2.3-.1,3.5Z"/>
        <path d="M399.9,413.9c-.9,0-1.5-.1-2-.3-1.9-1-2.9-2.9-2.9-5.8s.5-4.8,1.4-8.1h0c0-.1,0-.1,0-.1,0,0-1,.8-2.7,2.3-3.9,3.5-6.8,5.2-8.9,5.2s-2.1-.6-2.6-1.8c-.2-.6-.3-1.3-.3-2.1,0-2,.9-4.2,2.8-6.7,3.5-4,7.1-5.9,10.8-5.9s4.1.9,5.3,2.7c.2.3.3.7.3,1.2,0,1.5-.3,2.7-.8,3.3s-1,1.8-1.5,3.2c-.9,3-1.4,5.4-1.4,7.2s.3,2.2,1,2.9c.5.5,1,.8,1.6.8,2.1,0,6-2.2,11.6-6.6,2.1-1.6,3.5-3,4.3-4.1.8-1.1,1.2-2.1,1.2-3.2s.3-1.8.8-2.2,1.1-.6,1.6-.6c.9,0,1.5.4,1.8,1.3.2.5.3,1.1.3,1.6,0,1.5-.5,2.5-1.4,3.1-.4.2-1.5,1-3.3,2.6-2.8,2.5-5.6,4.6-8.3,6.5-2.7,1.8-4.7,3-6.2,3.4-.8.3-1.7.4-2.6.4ZM384.9,404.3c1,0,2.8-1.2,5.5-3.6,2.3-2.1,3.7-3.5,4.1-4.4.1-.3.2-.8.2-1.4s-.4-1.2-1.2-1.2-1.8.4-3.1,1.2c-2.6,1.7-4.4,3.7-5.4,6-.5,1.1-.8,2-.8,2.6s.2.8.6.8Z"/>
        <path d="M445.9,367.4c.4-.5,1.2-1.1,2.3-2s2.2-1.7,3.4-2.4c1.2-.7,2.1-1.1,2.8-1.2.5,0,3-1.2,7.6-3.6,2-1,4.1-2.2,6.4-3.3s4.3-2.2,5.8-3l5.4-2.7.7-1.5c.2-.5.6-1.4,1.2-2.7s1.1-2.8,1.8-4.4l2.3-5.7-1-1c-.5-.4-.8-.8-1-1s-.2-.7-.2-1.4.2-1.4.6-2.1c.4-.7,1.1-1.5,2.1-2.5.7-.7,1.3-1.2,1.9-1.5.6-.2,1.2-.3,1.7-.2,1.4.4,2.1,1.3,2.1,2.6s-2,6.5-6,15.2c-.5,1.1-.9,2.1-1.2,2.9-.3.8-.5,1.2-.5,1.2,0,0,.4,0,.8-.2.5-.2,1-.4,1.7-.7,4.8-2.2,10.2-4.6,16.1-7.1s11.6-4.8,16.9-6.8c2-.8,4.1-1.6,6.2-2.4,2.1-.8,3.9-1.5,5.2-2,1.2-.5,2.3-.9,3.3-1.2s1.5-.5,1.7-.5c.4,0,.8.2,1.2.5.4.4.5.8.5,1.2s-.3.8-.8,1.7c-.5.8-1,1.7-1.6,2.4-.6.8-1,1.3-1.4,1.6-.9.5-1.7.6-2.6.4-.9-.2-1.5-.8-1.9-1.7,0-.2-.2-.4-.2-.6s-.1-.3-.1-.3c-.2,0-1.5.4-3.8,1.3-2.4.9-5.1,1.9-8.2,3.1-3.1,1.2-5.8,2.3-8.2,3.3-3.5,1.4-7.2,3-11.2,4.9s-7.6,3.5-10.6,5-4.7,2.3-5,2.7c-.1.2-.5.8-1,1.9-.5,1.1-1.2,2.5-1.9,4.1-.8,1.7-2.1,4.4-3.9,8.1-1.8,3.7-3.7,7.6-5.7,11.6-2.1,4.1-3.8,7.5-5,10.2-1.2,2.6-1.8,3.9-1.7,3.9s.5-.1,1.3-.4c.8-.2,1.7-.6,2.7-1,2.8-1,6.7-2.4,11.7-4.1,5-1.7,10.2-3.4,15.8-5.1,3.9-1.2,7-2.2,9.2-2.9,2.2-.7,3.9-1.3,4.9-1.7,1-.4,1.8-.7,2.1-1,1.2-.9,2.3-1,3.3-.5,1.2.5,1.8,1.3,1.8,2.7s-.2,1.4-.6,1.8c0,0,0,0-.1.1-.1.1-.3.2-.4.3s-.3.2-.5.2c-.2,0-.6,0-1,.1-.5,0-1.1,0-1.9,0h-.7c-1.3,0-2.5,0-3.4.2s-2.2.4-3.8.8c-4.3,1.1-9.3,2.6-14.8,4.3-5.6,1.8-10.6,3.5-15.1,5.2-1.6.6-3.4,1.3-5.3,2.1-1.9.8-3.5,1.5-5,2.1-1.4.6-2.3,1-2.5,1.2,0,0-.5.7-1.1,1.9-.6,1.2-1.4,2.7-2.3,4.3-6.5,12.9-12,25.4-16.4,37.4,0,0,0,.2-.1.3-.2.6-.6,1.6-1.1,2.9-.5,1.3-.9,2.7-1.4,4.1-.4,1.4-.7,2.7-.9,3.7-.2,1,0,1.5.3,1.6.9,0,1.6.3,2.3.9.6.6,1,1.4,1,2.2s-.4,1.6-1.2,2.4-1.8,1.3-2.8,1.6-1.9.3-2.7-.1c-1.7-.7-1.7-3.7,0-8.8,2.1-6.2,4.8-13.4,8.3-21.7,3.5-8.2,7.1-16.1,10.8-23.6,2.4-4.6,3.4-6.9,3-6.9s-.4.1-1,.4c-.5.3-1.2.7-1.9,1.1-.7.5-1.3.9-1.6,1.2-.4.3-.6.5-.8.8-.2.3-.3.6-.4.9-.4,1.2-1.1,2-2.1,2.3s-2,.2-3-.3c-1.2-.8-1.8-1.8-1.6-3,.1-1.2.9-2.1,2.3-2.6.5-.2,1.5-.6,3.1-1.3,1.5-.7,3.2-1.5,4.9-2.3,1.7-.8,3.1-1.5,4.2-2l1.2-.5,6.6-13.7c8.3-17,12.3-25.4,11.9-25.4-.5,0-4.5,2.3-12,6.5-1.8,1-3.2,1.8-4.2,2.4-1,.6-1.7,1.1-2.2,1.4-.5.3-.8.6-.9.9s-.2.5-.3.8c-.2,1.4-1.4,2.7-3.6,4-2.5,1.5-4.4,2.2-5.8,2.2s-1,0-1.2-.2c-.3-.1-.6-.4-1-.7-1-1.1-1.2-2.3-.4-3.4Z"/>
        <path d="M508.3,415.2c-.5,0-1,0-1.5-.1-3.1-.5-4.9-2.2-5.5-4.9v-.5c0-3.1,1.5-6.4,4.5-10.2s6.2-6.1,9.6-7h.5c.4,0,.8.1,1.4.5,1.5,1,2.3,2.6,2.3,4.7s-.4,3-1.3,4.9c-.9,1.9-2.2,3.5-3.9,4.9-.8.5-1.5.8-2.1.8s-1.5-.5-2.1-1.4c-.1-.2-.2-.5-.3-.8s-.1-.6-.1-1.1c0-.5,0-1.1,0-1.9v-1.2c0-1.5-.1-2.3-.4-2.3s-.4.1-.7.4c-1.6,1.5-2.9,3.4-3.8,5.7-.7,1.6-1.1,2.9-1.1,3.9,0,1.8,1.7,2.7,5,2.7s7.5-1.5,12.7-4.6c3.5-2,6.6-4.2,9.4-6.5,2.6-2.2,4-3.8,4.4-4.9.2-.4.4-.8.6-1.2.5-.7,1.2-1.1,2.1-1.1s1.3.2,2.2.7c1,.5,1.6,1.4,1.6,2.5s-.8,2-2.5,2.9c-.8.4-2.7,1.5-5.9,3.6-9.3,6.3-16.3,9.9-20.9,10.7-1.8.5-3.3.7-4.3.7ZM514,403.4c1.9-2.4,2.9-4.5,2.9-6.4s-.3-1.5-.8-1.5-.5.3-.5,1v1.6c0,.7-.1,1.4-.5,2.1-.5.9-.7,1.6-.8,2.3l-.2,1Z"/>
        <path d="M550,419.7c-1.9,0-3.3-.6-4.2-1.9-.8-1-1.2-3.1-1.2-6.2v-3.1c0-2.9-.2-4.9-.9-6.1s-2.2-2.1-4.6-2.7c-2.6-.8-4-2.2-4-4.3s.1-1.5.4-2.4c.5-1.7,1.4-3,2.6-3.9.9-.6,1.7-1,2.6-1s.7,0,1,.1c1.8.6,2.7,2.1,2.7,4.3s-.1,1.9-.4,2.7c-.3,1.4-.5,2.3-.5,2.7,0,.6.3,1,1,1.4,1.1,1,1.8,2.1,2.1,3.3.1.7.2,2.9.3,6.4,0,4.1.3,6.4.6,6.9.4.7,1.1,1.1,2.2,1.1,1.6,0,3.8-1,6.4-2.9,3.9-3,7.2-6.2,10-9.7,2.8-3.5,4.4-6.4,4.7-8.7,0-.7.3-1.4.7-2.2.6-1.4,1.4-2.1,2.4-2.1s.7,0,1,.3c.9.6,1.4,1.5,1.4,2.6s0,.6,0,1.3c0,.7-.6,1.5-1.7,2.4-.5.3-1.3,1.2-2.3,2.7-3.6,5.3-7.8,9.9-12.6,13.8-4.2,3.4-7.4,5.1-9.7,5.1ZM538.3,396c.5,0,1-.6,1.7-1.8.4-.9.6-1.6.6-2.1s0-.5-.3-.5c-.3,0-.7.3-1.1.8s-.7,1.1-.9,1.7c-.2.6-.3,1-.3,1.4s0,.5.3.5Z"/>
        <path d="M581.3,419.7c-1.9,0-3.3-.6-4.2-1.9-.8-1-1.2-3.1-1.2-6.2v-3.1c0-2.9-.2-4.9-.9-6.1s-2.2-2.1-4.6-2.7c-2.6-.8-4-2.2-4-4.3s.1-1.5.4-2.4c.5-1.7,1.4-3,2.6-3.9.9-.6,1.7-1,2.6-1s.7,0,1,.1c1.8.6,2.7,2.1,2.7,4.3s-.1,1.9-.4,2.7c-.3,1.4-.5,2.3-.5,2.7,0,.6.3,1,1,1.4,1.1,1,1.8,2.1,2.1,3.3.1.7.2,2.9.3,6.4,0,4.1.3,6.4.6,6.9.4.7,1.1,1.1,2.2,1.1,1.6,0,3.8-1,6.4-2.9,3.9-3,7.2-6.2,10-9.7,2.8-3.5,4.4-6.4,4.7-8.7,0-.7.3-1.4.7-2.2.6-1.4,1.4-2.1,2.4-2.1s.7,0,1,.3c.9.6,1.4,1.5,1.4,2.6s0,.6,0,1.3c0,.7-.6,1.5-1.7,2.4-.5.3-1.3,1.2-2.3,2.7-3.6,5.3-7.8,9.9-12.6,13.8-4.2,3.4-7.4,5.1-9.7,5.1ZM569.6,396c.5,0,1-.6,1.7-1.8.4-.9.6-1.6.6-2.1s0-.5-.3-.5c-.3,0-.7.3-1.1.8s-.7,1.1-.9,1.7c-.2.6-.3,1-.3,1.4s0,.5.3.5Z"/>
        <path d="M604.8,415.2c-.5,0-1,0-1.5-.1-3.1-.5-4.9-2.2-5.5-4.9v-.5c0-3.1,1.5-6.4,4.5-10.2s6.2-6.1,9.6-7h.5c.4,0,.8.1,1.4.5,1.5,1,2.3,2.6,2.3,4.7s-.4,3-1.3,4.9c-.9,1.9-2.2,3.5-3.9,4.9-.8.5-1.5.8-2.1.8s-1.5-.5-2.1-1.4c-.1-.2-.2-.5-.3-.8s-.1-.6-.1-1.1c0-.5,0-1.1,0-1.9v-1.2c0-1.5-.1-2.3-.4-2.3s-.4.1-.7.4c-1.6,1.5-2.9,3.4-3.8,5.7-.7,1.6-1.1,2.9-1.1,3.9,0,1.8,1.7,2.7,5,2.7s7.5-1.5,12.7-4.6c3.5-2,6.6-4.2,9.4-6.5,2.6-2.2,4-3.8,4.4-4.9.2-.4.4-.8.6-1.2.5-.7,1.2-1.1,2.1-1.1s1.3.2,2.2.7c1,.5,1.6,1.4,1.6,2.5s-.8,2-2.5,2.9c-.8.4-2.7,1.5-5.9,3.6-9.3,6.3-16.3,9.9-20.9,10.7-1.8.5-3.3.7-4.3.7ZM610.5,403.4c1.9-2.4,2.9-4.5,2.9-6.4s-.3-1.5-.8-1.5-.5.3-.5,1v1.6c0,.7-.1,1.4-.5,2.1-.5.9-.7,1.6-.8,2.3l-.2,1Z"/>
        <path d="M634.5,393.6c.6-.6,1.4-.8,2.3-.7.9.1,1.6.5,2.1,1.3.5.9.6,1.9.3,3.2-.3,1.3-.9,2.2-1.8,2.7-.5.2-1,.9-1.6,1.9-.6,1-1.3,2.7-2.1,4.9-2.2,5.9-2.6,9.6-1.2,11.2.2.2.5.4.8.4s.8,0,1.5,0c3.3-.3,9.4-3.8,18.3-10.5,7.4-5.6,11.1-9.1,11.1-10.5s.7-2.5,2.1-3.2c1.4-.7,2.7-.6,4,.3.5.5.8,1.2.9,1.9,0,.8,0,1.5-.4,2.2-.2.4-.5.7-1,1.1s-.8.7-1.3,1c-.4.3-.8.4-1,.4-.4,0-1.1.4-2.3,1.1-1.1.7-2.9,1.9-5.2,3.7-12.4,9.2-20.4,14.2-24,14.8-.9.2-1.5.3-2.1.3s-1-.1-1.6-.3c-.3-.1-.6-.3-1-.5s-.6-.4-.8-.6c-.5-.5-.8-1.2-1.1-2.1-.3-.9-.4-1.8-.4-2.6s.2-2.2.5-3.8c.3-1.6.7-3.2,1.2-4.8.7-2.3,1.3-4.1,1.6-5.3.3-1.2.5-2.2.5-2.9s.2-1.6.5-2.5c.4-.9.8-1.6,1.3-2.1ZM643,386.2c-.5,1-1.2,1.6-2.1,1.8-.9.3-1.8.2-2.7-.3-.9-.6-1.4-1.5-1.5-2.5s.2-2,.9-2.9c.6-.9,1.5-1.3,2.6-1.3s2.2.6,2.9,1.8c.5,1.1.5,2.3-.1,3.5Z"/>
        <path d="M677.8,419.7c-1.9,0-3.3-.6-4.2-1.9-.8-1-1.2-3.1-1.2-6.2v-3.1c0-2.9-.2-4.9-.9-6.1s-2.2-2.1-4.6-2.7c-2.6-.8-4-2.2-4-4.3s.1-1.5.4-2.4c.5-1.7,1.4-3,2.6-3.9.9-.6,1.7-1,2.6-1s.7,0,1,.1c1.8.6,2.7,2.1,2.7,4.3s-.1,1.9-.4,2.7c-.3,1.4-.5,2.3-.5,2.7,0,.6.3,1,1,1.4,1.1,1,1.8,2.1,2.1,3.3.1.7.2,2.9.3,6.4,0,4.1.3,6.4.6,6.9.4.7,1.1,1.1,2.2,1.1,1.6,0,3.8-1,6.4-2.9,3.9-3,7.2-6.2,10-9.7,2.8-3.5,4.4-6.4,4.7-8.7,0-.7.3-1.4.7-2.2.6-1.4,1.4-2.1,2.4-2.1s.7,0,1,.3c.9.6,1.4,1.5,1.4,2.6s0,.6,0,1.3c0,.7-.6,1.5-1.7,2.4-.5.3-1.3,1.2-2.3,2.7-3.6,5.3-7.8,9.9-12.6,13.8-4.2,3.4-7.4,5.1-9.7,5.1ZM666.1,396c.5,0,1-.6,1.7-1.8.4-.9.6-1.6.6-2.1s0-.5-.3-.5c-.3,0-.7.3-1.1.8s-.7,1.1-.9,1.7c-.2.6-.3,1-.3,1.4s0,.5.3.5Z"/>
        <path d="M715,413.9c-.9,0-1.5-.1-2-.3-1.9-1-2.9-2.9-2.9-5.8s.5-4.8,1.4-8.1h0c0-.1,0-.1,0-.1,0,0-1,.8-2.7,2.3-3.9,3.5-6.8,5.2-8.9,5.2s-2.1-.6-2.6-1.8c-.2-.6-.3-1.3-.3-2.1,0-2,.9-4.2,2.8-6.7,3.5-4,7.1-5.9,10.8-5.9s4.1.9,5.3,2.7c.2.3.3.7.3,1.2,0,1.5-.3,2.7-.8,3.3s-1,1.8-1.5,3.2c-.9,3-1.4,5.4-1.4,7.2s.3,2.2,1,2.9c.5.5,1,.8,1.6.8,2.1,0,6-2.2,11.6-6.6,2.1-1.6,3.5-3,4.3-4.1.8-1.1,1.2-2.1,1.2-3.2s.3-1.8.8-2.2,1.1-.6,1.6-.6c.9,0,1.5.4,1.8,1.3.2.5.3,1.1.3,1.6,0,1.5-.5,2.5-1.4,3.1-.4.2-1.5,1-3.3,2.6-2.8,2.5-5.6,4.6-8.3,6.5-2.7,1.8-4.7,3-6.2,3.4-.8.3-1.7.4-2.6.4ZM700,404.3c1,0,2.8-1.2,5.5-3.6,2.3-2.1,3.7-3.5,4.1-4.4.1-.3.2-.8.2-1.4s-.4-1.2-1.2-1.2-1.8.4-3.1,1.2c-2.6,1.7-4.4,3.7-5.4,6-.5,1.1-.8,2-.8,2.6s.2.8.6.8Z"/>
      </g>
      <path d="M280.6,382.1l4.7-4.9h-1.6c1.7,2,3.5,4,5.2,6s1.2.4,1.6,0,.4-1.1,0-1.6c-1.7-2-3.5-4-5.2-6s-1.2-.4-1.6,0l-4.7,4.9c-1,1,.6,2.6,1.6,1.6h0Z"/>
    </g>
    <g>
      <g>
        <path class="st0" d="M257.8,462.1c.2-.4.6-1.2,1.1-2.3.5-1.2,1-2.5,1.5-3.9.5-1.4,1-2.7,1.4-3.9.3-.8.5-1.4.6-1.9.1-.5.2-.9.3-1.2,0-.3,0-.7,0-1,0-1.2.4-2,1.1-2.4.7-.4,1.4-.2,2.2.5.8.7.8,1.7,0,3-.1.3-.4.7-.7,1.3-.3.6-.6,1.2-.9,1.9s-.6,1.3-.8,1.8c-.2.5-.3.8-.3.8s.2-.1.5-.4c.3-.3.7-.7,1.2-1.2,2-1.9,4-3.5,5.9-4.7,1.9-1.2,3.5-1.8,4.7-1.8.7,0,1.2.2,1.7.7.5.5.7,1,.7,1.6,0,1.9-1.7,4.8-5.2,8.8-.3.3-.5.5-.6.7-.2.2-.2.3-.2.3,0,0,.4,0,.8-.3.4-.2,1-.5,1.7-.9.7-.4,1.3-.8,2-1.2,2.8-1.9,5.1-3.9,7-6.1.6-.7.9-1.2,1.1-1.7.2-.4.3-.9.3-1.4s0-.6,0-.8.2-.4.4-.6c.2-.2.4-.3.5-.4.2,0,.4-.1.7-.1,1.1.1,1.7.5,1.8,1.1s-.1,1.2-.5,1.9c-.4.7-.9,1.1-1.3,1.4-5.9,6-11.3,9.8-16.2,11.5-.5.1-.9.3-1.3.5-.4.2-.7.4-.9.5-1.7,1.3-3,2.2-3.9,2.8-.9.6-1.9,1.1-2.9,1.5-.9.3-1.7.5-2.5.6h-1.2c0,0-1.9,4.5-1.9,4.5-2.4,5.6-3.8,8.5-4.2,8.9-.2.2-.5.4-.8.4-.3,0-.6,0-.9-.3-.1-.1-.2-.3-.3-.5s0-.4,0-.8c0-.5.4-1.5.9-2.9.5-1.4,1.1-3,1.9-4.8.3-.8.8-1.8,1.4-2.9.6-1.1,1.1-2.2,1.7-3.2.5-1,1-1.7,1.2-2,.1-.2.3-.4.5-.7s.3-.5.4-.7ZM264.3,463l.5-.4h-.9c-2.6.5-4.2,1.1-4.8,2l-.3.6h.4c.1,0,.3,0,.6,0,.3,0,.5-.1.8-.3.6-.2,1.2-.5,2-.9.8-.4,1.4-.7,1.8-1ZM270.8,450.8c-1.2.9-2.7,2.3-4.6,4.2s-3.4,3.8-4.8,5.6c-.3.3-.4.6-.4.6,0,0,0,0,.3,0,.1,0,.5,0,1.1-.2.6,0,1.3-.2,2-.3.8,0,1.5-.2,2-.3.6,0,.9-.1,1-.2.3-.1.9-.6,1.8-1.5.9-.8,1.8-1.7,2.6-2.7,3-3.4,4.4-5.7,4.3-6.9,0-.2,0-.4,0-.5s0-.1-.2-.2c-.1,0-.3,0-.5,0-.4,0-1.1.2-1.9.6-.9.4-1.7.9-2.7,1.5Z"/>
        <path class="st0" d="M274.9,470c-.4,0-.8-.1-1.1-.4-.3-.3-.5-.7-.5-1.2v-.6c.2-1,1.2-2.7,3.1-4.9,1.3-1.5,2.7-2.9,4.3-4.4,1.1-1,1.8-1.7,2-2.3v-.5c.4-.7.6-1.4.9-2.3l.2-.7c1.7-6.4,3.6-9.6,5.8-9.6s1.3.4,1.3,1.2-.7,2-2.2,3.4c-.6.5-1,1-1.3,1.4-.3.6-.5,1.4-.8,2.2-.8,2-1.1,3.1-1.1,3.3h0c.1,0,1-.5,2.5-1.6l5.6-3.7c1-.6,1.8-1.1,2.2-1.4.7-.5,1.2-1,1.3-1.4.4-.9,1-1.3,1.8-1.3s1.1.4,1.3,1.1v.6c0,.9-.6,1.5-2,1.7-.4,0-.7.1-1.1.3-.7.3-2.5,1.4-5.6,3.6-3.9,2.7-6.3,4.4-7,5.2-.2.3-.5.8-.8,1.6-1.4,3.5-3.1,6.3-5,8.4-1.5,1.7-2.8,2.5-3.9,2.5ZM275.3,468.1c.2,0,.7-.4,1.4-1.1,1.4-1.3,2.7-3,3.7-5.2.3-.5.4-.8.4-.9s0,0,0,0c-.1,0-.4.2-.9.7-1.1,1.1-2.2,2.4-3.3,3.8-1,1.3-1.5,2.1-1.5,2.6s0,0,0,0Z"/>
        <path class="st0" d="M298.8,443.9c.4-.4.9-.5,1.5-.5s1,.3,1.3.8c.3.6.4,1.2.2,2.1-.2.8-.6,1.4-1.2,1.7-.3.1-.7.5-1,1.2-.4.7-.8,1.7-1.3,3.1-1.4,3.7-1.7,6.1-.8,7.1.1.1.3.2.5.3.2,0,.5,0,1,0,2.1-.2,6-2.4,11.6-6.7,4.7-3.5,7.1-5.8,7.1-6.7s.4-1.6,1.3-2c.9-.4,1.7-.4,2.5.2.3.3.5.7.5,1.2s0,1-.3,1.4c-.1.2-.3.5-.6.7-.3.2-.5.4-.8.6s-.5.3-.6.3c-.2,0-.7.2-1.4.7-.7.4-1.8,1.2-3.3,2.4-7.9,5.9-13,9-15.3,9.4-.6.1-1,.2-1.3.2s-.7,0-1-.2c-.2,0-.4-.2-.6-.3-.2-.1-.4-.3-.5-.4-.3-.3-.5-.8-.7-1.3-.2-.6-.3-1.1-.3-1.7s.1-1.4.3-2.4.5-2,.8-3.1c.5-1.5.8-2.6,1-3.4s.3-1.4.3-1.8.1-1,.3-1.6c.2-.6.5-1,.8-1.3ZM304.2,439.1c-.3.6-.8,1-1.3,1.2s-1.1.1-1.7-.2c-.6-.4-.9-.9-.9-1.6,0-.7.1-1.3.5-1.8.4-.6,1-.8,1.7-.8s1.4.4,1.8,1.1c.3.7.3,1.4,0,2.2Z"/>
        <path class="st0" d="M319,459c-.5,0-.9,0-1.2-.1-1.7-.7-2.5-2.1-2.5-4.2s.6-3.7,1.7-5.9c.9-1.8,2.1-3.5,3.7-5,1.5-1.5,3-2.7,4.5-3.4.8-.4,1.4-.6,2-.6.8,0,1.4.4,1.7,1.2,0,.3.1.6.1.9,0,1-.3,2.1-.9,3.3-.6,1.3-1.3,1.9-2.3,1.9s-.9-.2-1.3-.6c-.3-.2-.4-.4-.5-.6,0-.2-.1-.4-.1-.8s0-.6.2-.8c.1-.2.3-.5.7-.9.6-.6.8-1,.8-1h0c-.1,0-.5.2-1.2.6-2.8,1.8-4.9,4.3-6.4,7.3-.8,1.7-1.2,3.2-1.2,4.4,0,1.8.8,2.7,2.5,2.7,2.7,0,6.9-1.8,12.5-5.5,2.1-1.4,3.7-2.6,4.9-3.6.6-.5.8-.8.9-1,0,0,0-.2,0-.3,0-.3-.1-.5-.1-.7,0-.4.1-.8.4-1.2.3-.4.7-.6,1.4-.6s1.4.4,1.7,1.1c0,.2.1.5.1.7,0,.4-.2.9-.6,1.3-1.2,1-3.8,2.9-7.8,5.5-5.9,3.9-10.4,5.8-13.7,5.8Z"/>
        <path class="st0" d="M336.5,463.4c-1,0-1.8-.5-2.3-1.5-.4-.8-.6-1.7-.7-2.7,0-2.1.6-4.5,1.8-7.5,1.3-3.3,3-5.8,5-7.4.8-.7,1.7-1,2.6-1s2.1.6,3,1.9c.5.8.8,1.6,1,2.5,0,.6.2,1,.3,1s.5,0,1-.2c2.4-.8,3.8-1.5,4-2.3.4-.9,1.1-1.3,1.9-1.3s1.2.3,1.7,1c.1.3.2.5.2.8,0,1-.6,1.6-1.9,1.9-.6.1-2.1.6-4.4,1.4-.6.2-1.1.3-1.4.4-.8.2-1.2.3-1.3.4-.2.3-.3.7-.4,1.1-.3.8-.7,1.8-1.3,3-1,1.9-2,3.5-3,4.7-2.2,2.7-4.1,4-5.5,4ZM336.6,461.3c.4,0,.8-.2,1.4-.6,1.1-.8,2.3-2.2,3.6-4.1,1.3-1.9,2.3-3.7,2.9-5.3l.2-.7c-1.4-.2-2.5-.7-3.3-1.4-.3-.3-.6-.5-.8-.5s-.6.4-1.2,1.2c-1.2,1.9-2.2,3.7-2.8,5.5-.6,1.5-.9,2.9-.9,4.1s.3,1.7.8,1.7ZM345,447.9c0,0,0,0,0,0,0-.2-.1-.4-.4-.7-.5-.5-.9-.8-1.1-.8s-.2,0-.2.1c0,.4.3.8.9,1.2.3.2.5.3.7.3Z"/>
        <path class="st0" d="M355.3,441.1c.4-1,.9-2,1.4-3.2.5-1.2,1-2.3,1.4-3.3,0-.2.2-.4.2-.6l1.5-3.5-.4-.5c-.8-1.1-.8-2.2.3-3.3,1.4-1.5,2.6-1.7,3.7-.6.3.3.4.6.4.9,0,.3-.1.9-.4,1.5-.3.7-.7,1.6-1.3,2.8-1.8,3.6-3.8,7.7-5.9,12.5-2.1,4.7-4.1,9.5-5.8,14.3-1.7,4.8-2.7,9.2-3.2,13.1l-.2,2,.8.9c.3.3.5.6.6.8.1.2.2.4.2.8,0,.8-.2,1.3-.7,1.6s-1.1.4-1.8.2c-1.2-.5-1.7-1.7-1.7-3.7,0-2.5.8-5.8,2.1-9.9,1.3-4,2.8-8.1,4.5-12.3,1.7-4.1,3.1-7.6,4.4-10.4Z"/>
        <path class="st0" d="M357.7,463.4c-1,0-1.8-.5-2.3-1.5-.4-.8-.6-1.7-.7-2.7,0-2.1.6-4.5,1.8-7.5,1.3-3.3,3-5.8,5-7.4.8-.7,1.7-1,2.6-1s2.1.6,3,1.9c.5.8.8,1.6,1,2.5,0,.6.2,1,.3,1s.5,0,1-.2c2.4-.8,3.8-1.5,4-2.3.4-.9,1.1-1.3,1.9-1.3s1.2.3,1.7,1c.1.3.2.5.2.8,0,1-.6,1.6-1.9,1.9-.6.1-2.1.6-4.4,1.4-.6.2-1.1.3-1.4.4-.8.2-1.2.3-1.3.4-.2.3-.3.7-.4,1.1-.3.8-.7,1.8-1.3,3-1,1.9-2,3.5-3,4.7-2.2,2.7-4.1,4-5.5,4ZM357.8,461.3c.4,0,.8-.2,1.4-.6,1.1-.8,2.3-2.2,3.6-4.1,1.3-1.9,2.3-3.7,2.9-5.3l.2-.7c-1.4-.2-2.5-.7-3.3-1.4-.3-.3-.6-.5-.8-.5s-.6.4-1.2,1.2c-1.2,1.9-2.2,3.7-2.8,5.5-.6,1.5-.9,2.9-.9,4.1s.3,1.7.8,1.7ZM366.2,447.9c0,0,0,0,0,0,0-.2-.1-.4-.4-.7-.5-.5-.9-.8-1.1-.8s-.2,0-.2.1c0,.4.3.8.9,1.2.3.2.5.3.7.3Z"/>
        <path class="st0" d="M379,448.1c-1-.6-1.3-1.5-1-2.6v-.5c.1,0-.3.4-.3.4-.4.3-.9.9-1.6,1.8-.7.9-1.3,1.8-1.8,2.7-.7,1.3-1.3,2.5-1.7,3.7-.4,1.2-.5,2.1-.5,2.7,0,.8.6,1,1.6.4,1-.6,2.7-2,5.3-4.4,2-1.9,3.5-3.2,4.5-4,1-.8,1.8-1.2,2.5-1.4.9-.2,1.5,0,2,.6.7,1.2.6,3.2-.2,6.1,0,.4-.2.8-.3,1.4,0,0,.2,0,.4-.3.3-.2.6-.4,1-.7,3.1-2.3,6.3-4.4,9.8-6.4.6-.3,1.1-.6,1.6-1,.5-.4.9-.7,1.2-.9,1.2-1,2-1.2,2.5-.7.4.5.2,1.3-.7,2.3-.2.2-.5.4-.7.5-.2.1-.6.2-1,.3-.3,0-.6.1-1,.2-.3,0-.6.2-.8.3-1.3.7-3.1,1.8-5.4,3.4s-4.4,3.1-6.4,4.7l-1.8,1.4-1.2,2.5c-3.2,6.3-6.4,11-9.6,14.1-2.2,2.1-3.9,2.9-5.2,2.3-1.1-.5-1.4-1.6-1-3.1,1.1-3.5,5.5-8.4,13.3-14.8l2.3-1.9.6-1.5c.8-1.8,1.2-3.4,1.5-4.9.2-1.4.1-2.3-.3-2.4-.2,0-.7.2-1.4.7-.7.5-1.4,1-2.2,1.6-.3.3-.8.7-1.4,1.3-.6.6-1.3,1.2-2,1.8-1.9,1.8-3.4,3.1-4.4,3.8-1,.7-1.8,1.1-2.5,1-.4,0-.8,0-1.1-.3-.4-.2-.7-.4-.8-.7-.7-1.4-.4-3.5.7-6.1,1.1-2.7,2.9-5.3,5.3-8,3.5-3.9,6-5,7.5-3.4,0,0,.2.2.3.5,0,.2.2.4.2.7,0,.3.1.6.1.8,0,.3,0,.6-.2,1-.3,1.1-.8,2.1-1.4,3.1-.7,1-1.3,1.6-1.9,2-.9.4-1.6.4-2.3,0ZM379.5,466.6c.5-.7,1-1.5,1.5-2.4.5-.9,1-1.7,1.3-2.3.4-.7.5-1,.5-1.1,0,0-.5.3-1.3,1-.8.7-1.7,1.6-2.8,2.7-1.1,1.1-2.1,2.1-3,3.1-.9,1-1.6,1.8-2,2.3s-.6.8-1,1.5c-.5.7-.9,1.4-1.3,2.2-.4.7-.5,1.2-.3,1.5.1.2.7,0,1.8-.7,1.9-1.4,4.1-3.9,6.6-7.6ZM380.3,442.6c-.3.3-.6.5-.8.8s-.3.5-.3.6,0,0,.2,0,.3-.2.4-.3c.2-.1.3-.3.5-.5.2-.2.3-.3.4-.5l.4-.6-.7.4Z"/>
        <path class="st0" d="M411.8,456.7c-.5,0-1,0-1.3-.2-1.2-.6-1.8-1.9-1.8-3.7s.3-3.1.9-5.2h0c0,0,0,0,0,0,0,0-.6.5-1.7,1.4-2.5,2.2-4.3,3.3-5.7,3.3s-1.3-.4-1.7-1.2c-.1-.4-.2-.8-.2-1.3,0-1.2.6-2.7,1.8-4.3,2.2-2.5,4.5-3.8,6.9-3.8s2.6.6,3.4,1.7c.1.2.2.4.2.8,0,1-.2,1.7-.5,2.1s-.7,1.1-1,2c-.6,1.9-.9,3.4-.9,4.6s.2,1.4.6,1.9c.3.3.6.5,1,.5,1.4,0,3.8-1.4,7.3-4.2,1.3-1,2.2-1.9,2.7-2.6s.8-1.4.8-2,.2-1.2.5-1.4.7-.4,1-.4c.6,0,.9.3,1.2.8.1.3.2.7.2,1,0,1-.3,1.6-.9,2-.3.1-1,.7-2.1,1.7-1.8,1.6-3.5,2.9-5.3,4.1-1.7,1.2-3,1.9-3.9,2.2-.5.2-1.1.3-1.7.3ZM402.2,450.6c.6,0,1.8-.8,3.5-2.3,1.5-1.3,2.3-2.2,2.6-2.8,0-.2.1-.5.1-.9s-.3-.8-.8-.8-1.1.3-2,.8c-1.7,1.1-2.8,2.3-3.4,3.8-.3.7-.5,1.3-.5,1.7s.1.5.4.5Z"/>
      </g>
      <path class="st0" d="M346.8,439.6c1.7-2.2,3.6-4.2,5.7-6s.6-1.6,0-2.1-1.5-.6-2.1,0c-2.1,1.8-4,3.8-5.7,6s-.4.6-.4,1.1.2.8.4,1.1c.5.5,1.6.7,2.1,0h0Z"/>
    </g>
  </g>
</svg>