<?xml version="1.0" encoding="UTF-8"?>
<svg id="Layer_1" xmlns="http://www.w3.org/2000/svg" version="1.1" viewBox="0 0 800 800">
  <!-- Generator: Adobe Illustrator 29.1.0, SVG Export Plug-In . SVG Version: 2.1.0 Build 142)  -->
  <defs>
    <style>
      .st0 {
        fill: #aea393;
      }
    </style>
  </defs>
  <g>
    <g>
      <path class="st0" d="M259.7,465c.2-.3.5-1,.9-1.9.4-1,.8-2.1,1.3-3.3.4-1.2.8-2.3,1.2-3.3.2-.7.4-1.2.5-1.6.1-.4.2-.7.2-1,0-.3,0-.6,0-.9,0-1,.3-1.7.9-2,.6-.3,1.2-.2,1.9.4s.7,1.4,0,2.5c-.1.2-.3.6-.5,1.1-.2.5-.5,1-.7,1.6-.3.6-.5,1.1-.7,1.5-.2.4-.3.7-.3.7s.1,0,.4-.4c.3-.3.6-.6,1-1,1.7-1.6,3.3-2.9,4.9-3.9,1.6-1,2.9-1.5,3.9-1.5.6,0,1,.2,1.5.6.4.4.6.8.6,1.3,0,1.6-1.5,4-4.4,7.3-.2.2-.4.4-.5.6-.1.2-.2.3-.2.3,0,0,.3,0,.7-.3.4-.2.8-.5,1.4-.8.6-.3,1.1-.7,1.6-1,2.4-1.6,4.3-3.3,5.9-5.1.5-.6.8-1,.9-1.4.2-.3.3-.7.3-1.2s0-.5,0-.6c0-.2.2-.3.3-.5s.3-.3.5-.3.3,0,.6,0c.9,0,1.4.4,1.5.9s0,1-.5,1.6c-.4.6-.7,1-1.1,1.2-4.9,5-9.5,8.2-13.5,9.6-.4.1-.8.3-1.1.4-.3.2-.6.3-.7.4-1.4,1.1-2.5,1.9-3.3,2.4-.8.5-1.6.9-2.4,1.2-.7.3-1.4.4-2.1.5h-1c0,0-1.6,3.8-1.6,3.8-2,4.7-3.2,7.1-3.5,7.4-.2.2-.4.3-.7.3-.3,0-.5,0-.7-.3-.1-.1-.2-.3-.2-.4,0-.1,0-.4,0-.7,0-.4.3-1.2.7-2.4.4-1.2,1-2.5,1.6-4,.3-.7.7-1.5,1.2-2.5.5-1,1-1.9,1.4-2.7.5-.8.8-1.4,1-1.7.1-.1.3-.3.4-.5s.3-.4.4-.6ZM265.1,465.8l.4-.3h-.8c-2.2.4-3.5.9-4,1.7l-.3.5h.3c0,0,.3,0,.5,0,.2,0,.4-.1.7-.2.5-.2,1-.4,1.7-.7.7-.3,1.2-.6,1.5-.8ZM270.6,455.6c-1,.7-2.3,1.9-3.8,3.5-1.5,1.6-2.9,3.2-4,4.7-.2.3-.3.5-.3.5,0,0,0,0,.2,0,.1,0,.4,0,.9-.1.5,0,1.1-.1,1.7-.2.7,0,1.2-.1,1.7-.2.5,0,.8-.1.8-.1.3-.1.8-.5,1.5-1.2.8-.7,1.5-1.4,2.2-2.2,2.5-2.8,3.7-4.8,3.6-5.8,0-.2,0-.3,0-.4,0,0,0-.1-.2-.1s-.2,0-.4,0c-.4,0-.9.2-1.6.5-.7.3-1.5.8-2.2,1.3Z"/>
      <path class="st0" d="M274,471.6c-.4,0-.7-.1-.9-.3-.3-.2-.4-.5-.4-1v-.5c.1-.9,1-2.2,2.6-4.1,1.1-1.2,2.3-2.5,3.6-3.7.9-.8,1.5-1.4,1.6-1.9v-.4c.3-.6.5-1.2.7-2v-.5c1.5-5.4,3.1-8.1,5-8.1s1.1.3,1.1,1-.6,1.7-1.9,2.8c-.5.4-.8.8-1.1,1.2-.2.5-.4,1.1-.7,1.8-.6,1.7-.9,2.6-.9,2.7h0c0,0,.8-.4,2.1-1.3l4.7-3.1c.8-.5,1.5-.9,1.9-1.2.6-.4,1-.8,1.1-1.2.4-.7.9-1.1,1.5-1.1s.9.3,1.1.9v.5c0,.8-.5,1.2-1.6,1.4-.3,0-.6.1-.9.2-.6.2-2.1,1.2-4.7,3-3.3,2.3-5.2,3.7-5.9,4.4-.2.2-.4.7-.7,1.3-1.2,2.9-2.6,5.2-4.1,7-1.3,1.4-2.4,2.1-3.3,2.1ZM274.3,470c.1,0,.5-.3,1.2-.9,1.2-1.1,2.2-2.5,3.1-4.3.2-.4.3-.6.3-.8s0,0,0,0c0,0-.3.2-.7.6-.9.9-1.8,2-2.7,3.2-.8,1.1-1.2,1.8-1.2,2.2s0,0,0,0Z"/>
      <path class="st0" d="M290.4,478.9c-.2,0-.3,0-.5-.1-.5-.2-.7-.7-.7-1.3s.2-1.3.5-2.3c1.5-3.5,4.8-7.8,10-12.9l2.4-2.3c3.1-6.3,4.7-9.6,4.7-9.8h0s-.3.1-.3.1c-1.8,1.3-4.9,4.2-9.5,8.7-2.9,2.9-4.5,4.4-4.8,4.6-.4.1-.7.2-.9.2-.7,0-1.1-.5-1.1-1.6s.5-2.7,1.4-5.1c.3-.8.5-1.3.5-1.6s0-.3,0-.5c0-.2,0-.4,0-.6,0-1,.5-2,1.6-3.2.8-.9,1.6-1.3,2.1-1.3s.5,0,.7.3c.4.3.5.6.5,1.1s-.2.9-.6,1.7c-.7,1.5-1.3,2.5-2,2.8-.7.3-1.4,1.7-2.3,4.4-.3.9-.5,1.5-.5,1.9s0,0,0,0c.1,0,.6-.3,1.3-1,.7-.7,2-1.9,3.7-3.6,6.3-6.3,10-9.4,11-9.4s.3.1.5.3c.2.2.3.4.3.6,0,.6-.7,2.4-2.2,5.4-1,2-1.5,3-1.5,3.2.1,0,.5-.3,1.2-.8.8-.6,1.7-1.2,2.5-1.7.9-.6,1.6-1.1,2.1-1.4.8-.6,1.4-1.1,1.6-1.6.2-.5.5-.8.7-1.1.2-.2.5-.3.9-.3s.8.1,1.1.4c.3.3.4.6.4.9s-.3.8-.8,1.1c-.4.3-.7.4-1,.4s-.9.3-1.9.9c-2.3,1.4-5.1,3.4-8.4,6.2-2.4,4.2-4.3,7.6-5.9,10.1-2.9,4.5-5,7.2-6.1,8-.3.2-.6.3-.8.3ZM290.8,477.1l.4-.4c.4-.3,1-1,1.6-2,1.3-1.6,2.8-3.8,4.5-6.7,1.4-2.2,2.1-3.4,2.1-3.6h0c0,0-.5.4-1.2,1.2-4.3,4.9-6.8,8.8-7.5,11.5Z"/>
      <path class="st0" d="M313.2,462.5c-.4,0-.7,0-1-.1-1.4-.6-2.1-1.7-2.1-3.5s.5-3.1,1.4-4.9c.8-1.5,1.8-2.9,3.1-4.2,1.3-1.3,2.5-2.2,3.7-2.9.7-.3,1.2-.5,1.7-.5.7,0,1.2.3,1.5,1,0,.2.1.5.1.8,0,.8-.2,1.7-.7,2.8-.5,1.1-1.1,1.6-1.9,1.6s-.7-.2-1.1-.5c-.2-.2-.4-.4-.4-.5s0-.4,0-.7,0-.5.1-.7c0-.2.3-.4.6-.8.5-.5.7-.8.7-.9h0c0,0-.4.1-1,.5-2.3,1.5-4.1,3.6-5.3,6.1-.7,1.4-1,2.7-1,3.7,0,1.5.7,2.3,2.1,2.3,2.3,0,5.7-1.5,10.5-4.6,1.7-1.1,3.1-2.1,4.1-3,.5-.4.7-.7.7-.8,0,0,0-.2,0-.3,0-.2-.1-.4-.1-.6,0-.3.1-.6.3-1,.2-.3.6-.5,1.1-.5s1.1.3,1.4.9c0,.2.1.4.1.6,0,.4-.2.7-.5,1.1-1,.9-3.2,2.4-6.5,4.6-4.9,3.2-8.7,4.8-11.4,4.8Z"/>
      <path class="st0" d="M324.2,467.7c-.5,0-.7-.2-.7-.5,0-1,1.3-4.5,3.8-10.5,2.3-5.4,3.9-9.2,4.9-11.4,1.4-3.2,2.3-5.6,2.9-7.2.3-.7.4-1.2.4-1.5s0-.3-.1-.4c0-.3-.1-.6-.1-.8,0-.6.2-1.1.6-1.5.4-.4.8-.6,1.3-.6,1.2,0,1.7.6,1.7,1.8s-.2,1-.5,1.4c-.3.4-1.1,2-2.3,4.7l-1.7,3.5c-2.5,5.4-4.4,9.4-5.5,12-.2.6-.4,1-.5,1.3-.1.3-.2.5-.2.5s0,.1,0,.2c0,0,.4-.5,1.3-1.5.9-1.1,2.1-2.3,3.3-3.5,1.3-1.2,2.3-2.1,3.1-2.6.9-.6,1.6-.9,2.3-.9s1.4.3,1.7,1c.3.6.5,1.6.8,2.9.2,1.9.6,2.9,1,2.9s.9-.3,1.7-1c2.6-2,4-3.6,4.3-4.9.3-.9.8-1.3,1.6-1.3s1.3.4,1.6,1.3c0,0,0,.2,0,.3,0,.6-.5,1.2-1.5,1.9-.7.5-1.7,1.3-3.2,2.5-1.4,1.1-2.4,1.9-3,2.3-.6.4-1.2.6-1.7.6s-.6,0-.8-.1c-.8-.3-1.4-1.6-1.8-4-.2-1.6-.5-2.4-.8-2.4s-.2,0-.4.1c-1.7.9-3.9,2.9-6.5,6-2.2,2.6-4,5.1-5.4,7.5-.6,1-1,1.6-1.1,1.8-.1.1-.3.2-.5.2Z"/>
      <path class="st0" d="M346.6,466.1c-.9,0-1.5-.4-1.9-1.2-.3-.7-.5-1.4-.5-2.3,0-1.7.5-3.8,1.5-6.3,1.1-2.8,2.5-4.8,4.1-6.2.7-.6,1.4-.9,2.2-.9s1.8.5,2.5,1.6c.4.7.7,1.4.8,2.1,0,.5.2.8.3.8s.4,0,.8-.2c2-.6,3.1-1.3,3.4-1.9.4-.8.9-1.1,1.6-1.1s1,.3,1.4.9c0,.2.1.4.1.7,0,.8-.5,1.3-1.6,1.6-.5.1-1.8.5-3.7,1.2-.5.2-.9.3-1.2.3-.6.1-1,.3-1.1.3-.1.3-.3.6-.3.9-.2.7-.6,1.5-1.1,2.5-.8,1.6-1.7,2.9-2.5,4-1.9,2.2-3.4,3.3-4.6,3.3ZM346.7,464.4c.3,0,.7-.2,1.2-.5.9-.7,1.9-1.8,3-3.4s1.9-3.1,2.4-4.5l.2-.5c-1.2-.2-2.1-.6-2.8-1.2-.2-.3-.5-.4-.7-.4s-.5.3-1,1c-1,1.6-1.8,3.1-2.4,4.6-.5,1.3-.7,2.4-.7,3.5s.2,1.4.7,1.4ZM353.7,453.1s0,0,0,0c0-.1-.1-.4-.3-.6-.4-.5-.7-.7-.9-.7s-.1,0-.1.1c0,.4.3.7.8,1,.3.2.4.3.5.3Z"/>
      <path class="st0" d="M362.3,447.5c.3-.8.7-1.7,1.2-2.7s.8-1.9,1.2-2.7c0-.2.1-.3.2-.5l1.2-2.9-.3-.4c-.7-.9-.6-1.9.2-2.8,1.2-1.2,2.2-1.4,3.1-.5.2.2.3.5.3.8s0,.7-.3,1.3c-.2.6-.6,1.3-1.1,2.3-1.5,3-3.2,6.5-4.9,10.4-1.8,4-3.4,8-4.8,12-1.4,4-2.3,7.7-2.6,10.9l-.2,1.7.7.7c.3.3.4.5.5.7s.1.4.1.6c0,.6-.2,1.1-.6,1.4-.4.3-.9.3-1.5.1-1-.4-1.5-1.4-1.5-3.1,0-2.1.6-4.9,1.7-8.3,1.1-3.4,2.3-6.8,3.7-10.3,1.4-3.5,2.6-6.4,3.7-8.7Z"/>
      <path class="st0" d="M364.4,466.1c-.9,0-1.5-.4-1.9-1.2-.3-.7-.5-1.4-.5-2.3,0-1.7.5-3.8,1.5-6.3,1.1-2.8,2.5-4.8,4.1-6.2.7-.6,1.4-.9,2.2-.9s1.8.5,2.5,1.6c.4.7.7,1.4.8,2.1,0,.5.2.8.3.8s.4,0,.8-.2c2-.6,3.1-1.3,3.4-1.9.4-.8.9-1.1,1.6-1.1s1,.3,1.4.9c0,.2.1.4.1.7,0,.8-.5,1.3-1.6,1.6-.5.1-1.8.5-3.7,1.2-.5.2-.9.3-1.2.3-.6.1-1,.3-1.1.3-.1.3-.3.6-.3.9-.2.7-.6,1.5-1.1,2.5-.8,1.6-1.7,2.9-2.5,4-1.9,2.2-3.4,3.3-4.6,3.3ZM364.4,464.4c.3,0,.7-.2,1.2-.5.9-.7,1.9-1.8,3-3.4s1.9-3.1,2.4-4.5l.2-.5c-1.2-.2-2.1-.6-2.8-1.2-.2-.3-.5-.4-.7-.4s-.5.3-1,1c-1,1.6-1.8,3.1-2.4,4.6-.5,1.3-.7,2.4-.7,3.5s.2,1.4.7,1.4ZM371.4,453.1s0,0,0,0c0-.1-.1-.4-.3-.6-.4-.5-.7-.7-.9-.7s-.1,0-.1.1c0,.4.3.7.8,1,.3.2.4.3.5.3Z"/>
      <path class="st0" d="M382.1,453.3c-.8-.5-1.1-1.2-.9-2.2v-.4c.1,0-.3.3-.3.3-.3.2-.8.8-1.3,1.5-.6.8-1.1,1.5-1.5,2.2-.6,1.1-1.1,2.1-1.4,3.1-.3,1-.5,1.8-.4,2.3,0,.7.5.8,1.3.3.8-.5,2.3-1.7,4.4-3.7,1.7-1.6,3-2.7,3.8-3.3.8-.6,1.5-1,2.1-1.2.7-.2,1.3,0,1.7.5.6,1,.5,2.7-.2,5.1,0,.3-.2.7-.3,1.2,0,0,.1,0,.4-.2s.5-.3.8-.6c2.6-1.9,5.3-3.7,8.2-5.4.5-.2.9-.5,1.3-.8.4-.3.7-.6,1-.8,1-.8,1.7-1,2.1-.6.4.4.2,1.1-.6,1.9-.2.2-.4.3-.6.4-.2,0-.5.2-.8.3-.3,0-.5.1-.8.2-.3,0-.5.2-.7.3-1.1.6-2.6,1.5-4.5,2.8-1.9,1.3-3.7,2.6-5.3,3.9l-1.5,1.2-1,2.1c-2.7,5.2-5.4,9.2-8,11.8-1.8,1.7-3.3,2.4-4.4,1.9-.9-.5-1.2-1.3-.8-2.6.9-2.9,4.6-7,11.1-12.4l1.9-1.6.5-1.2c.6-1.5,1-2.9,1.2-4.1.2-1.2,0-1.9-.3-2-.2,0-.6.2-1.2.6-.6.4-1.2.8-1.8,1.3-.3.2-.7.6-1.2,1.1-.5.5-1.1,1-1.6,1.5-1.6,1.5-2.8,2.6-3.7,3.2s-1.5.9-2.1.9c-.3,0-.6,0-.9-.2-.3-.2-.5-.4-.7-.6-.6-1.2-.4-2.9.5-5.1.9-2.2,2.4-4.5,4.4-6.7,3-3.3,5.1-4.2,6.3-2.8,0,0,.1.2.2.4,0,.2.1.4.2.6,0,.2.1.5,0,.7s0,.5-.2.8c-.2.9-.6,1.8-1.2,2.6-.5.8-1.1,1.4-1.6,1.7-.7.4-1.4.4-1.9,0ZM382.6,468.8c.4-.6.8-1.3,1.3-2,.4-.7.8-1.4,1.1-1.9.3-.5.5-.9.5-.9,0,0-.4.3-1.1.9s-1.4,1.3-2.3,2.2-1.7,1.7-2.5,2.6c-.8.8-1.4,1.5-1.7,1.9s-.5.6-.9,1.2c-.4.6-.8,1.2-1.1,1.8-.3.6-.4,1-.3,1.2.1.2.6,0,1.5-.6,1.6-1.1,3.4-3.3,5.5-6.4ZM383.2,448.7c-.3.2-.5.4-.7.7-.2.2-.3.4-.3.5s0,0,.1,0c0,0,.2-.2.4-.3.1-.1.3-.2.4-.4.1-.1.2-.3.3-.4l.3-.5-.6.4Z"/>
      <path class="st0" d="M400.3,463.6h-.2c-.4,0-.8-.1-1.1-.4-.4-.4-.6-1.1-.6-1.9v-1.3c.1-1.2.5-2.7,1.3-4.5.9-2.4,1.7-3.8,2.1-4.3.3-.2.6-.3,1.1-.3.8,0,1.1.5,1.2,1.4,0,.6-.5,1.3-1.5,2-.3.2-.5.4-.7.5-.5.6-1,1.6-1.4,3.1-.3,1.1-.4,2.2-.4,3.2s.1.9.4.9c.5,0,2.3-1.6,5.5-4.8,1.1-1.1,2-2,2.7-2.6.7-.6,1.2-1,1.5-1.2.3-.2.6-.3.8-.3.4,0,.7.2.9.5.2.3.3.9.4,1.7,0,.7.1,1.2.3,1.5.1.3.4.5.9.5s1.6-.3,2.8-.9c1.2-.6,2.3-1.4,3.4-2.5.5-.5.8-.9.8-1.2,0-.5.2-.9.5-1.3.3-.4.7-.6,1.1-.6s.7,0,1,.3c.3.2.5.4.5.7,0,.7-.5,1.5-1.5,2.3-1,.8-2.2,1.6-3.4,2.3-1.3.7-2.2,1.2-2.8,1.4-1.1.4-2,.7-2.8.7s-1.3-.3-1.7-1c-.3-.5-.5-1.1-.5-1.8s0-.9-.3-.9c0,0-1.5,1.3-4.1,3.9-1.4,1.3-2.4,2.4-3.2,3.1-1.3,1.2-2.3,1.8-3,1.9Z"/>
      <path class="st0" d="M421.5,461.2c-.3,0-.5,0-.8,0-1.6-.3-2.6-1.2-2.9-2.6v-.3c0-1.6.8-3.4,2.4-5.4,1.6-2,3.3-3.2,5.1-3.7h.3c.2,0,.4,0,.8.3.8.5,1.2,1.4,1.2,2.5s-.2,1.6-.7,2.6c-.5,1-1.2,1.9-2.1,2.6-.4.3-.8.4-1.1.4s-.8-.2-1.1-.7c0-.1-.1-.3-.2-.4,0-.1,0-.3,0-.6,0-.2,0-.6,0-1v-.6c0-.8,0-1.2-.2-1.2s-.2,0-.4.2c-.8.8-1.5,1.8-2,3-.4.8-.6,1.5-.6,2.1,0,1,.9,1.5,2.7,1.5s4-.8,6.8-2.4c1.8-1.1,3.5-2.2,5-3.5,1.4-1.2,2.1-2,2.3-2.6,0-.2.2-.4.3-.6.2-.4.6-.6,1.1-.6s.7.1,1.2.4c.6.3.8.7.8,1.3s-.4,1-1.3,1.5c-.4.2-1.5.8-3.1,1.9-5,3.3-8.7,5.2-11.1,5.7-1,.2-1.7.4-2.3.4ZM424.5,455c1-1.3,1.5-2.4,1.5-3.4s-.1-.8-.4-.8-.3.2-.3.5v.9c0,.4,0,.7-.3,1.1-.2.5-.4.9-.4,1.2v.5Z"/>
    </g>
    <g>
      <g>
        <path d="M297.2,322.6c-.1,1.3-.6,3-1.4,5.2-.3.9-.5,1.7-.7,2.4-.2.7-.3,1-.3,1.1,0,0,.7,0,1.8-.4,1.1-.3,2.5-.7,4.1-1.2,10.1-3.1,19.9-5.2,29.3-6.4,9.5-1.2,17.2-1.3,23.3-.3,5.1.8,8,3.3,8.7,7.5.4,1.8.1,3.2-.8,4.3-1.5,1.6-3,1.6-4.6,0-.3-.3-.6-.7-.7-1-.1-.3-.2-.8-.2-1.5s0-.8.1-1.2c0-.4.2-.7.3-.9,1.4-2.3-1.1-3.9-7.3-4.9-2-.2-5.2-.3-9.5-.2-4.3,0-7.9.3-10.8.7-7,.9-13.8,2.3-20.4,4.2-2,.5-4.1,1.1-6.2,1.8-2.2.7-4,1.2-5.6,1.7-1.6.5-2.5.8-2.7.9-.1.1-.7,1.2-1.6,3.3s-2.1,4.5-3.4,7.5c-1.5,3.4-3.4,7.7-5.6,12.9-1.8,4.2-3.6,8.1-5.2,11.7-7.9,17.8-13.8,32-18,42.4-4.1,10.4-7.5,19.9-10.1,28.4-.5,1.7-1,3.3-1.5,4.9-.5,1.6-.8,2.7-1,3.5l-.7,2.6c0,.1,0,.2,0,.3-.2.3.2.4,1.2.4,2.6,0,3.7,1.4,3.5,4.2,0,.5-.2,1-.4,1.6-.2.6-.7,1.2-1.2,2.1-.4.6-1,1.5-1.9,2.6s-1.8,2-2.7,2.9c-.9.8-1.7,1.1-2.4.8-.7-.3-1-1.4-1-3.5.2-3.5,1.8-10.1,4.8-19.8,3-9.7,6.8-20.4,11.2-31.9,2.3-5.9,4.6-11.7,7.1-17.6,2.4-5.9,6.2-14.6,11.2-26.2.8-1.8,1.5-3.4,2.1-4.7.6-1.3.8-2,.8-2s0-.1-.3-.2c-.2,0-.5-.2-.8-.2-2.3-.6-3.3-2.3-3.1-5,.3-2.1,1.7-5.6,4.1-10.6.5-1.1,1-2.1,1.5-3,.5-.9.7-1.4.8-1.6.1-.2.2-.4.3-.5,0-.2,0-.3,0-.3-.1,0-.9.2-2.3.7-1.4.5-3.1,1.2-5.1,2-2.1.8-4.2,1.7-6.3,2.6-8.5,3.7-17.1,7.9-25.6,12.6-8.6,4.7-15.8,9.2-21.6,13.6-5,3.7-9.2,7.4-12.8,11-3.5,3.6-5.3,6.1-5.3,7.5s3.3,1.4,10-.6c8.1-2.3,17.2-5.7,27.3-10.2,11.1-4.9,17.6-8.5,19.4-10.7,1.3-1.5,2.6-1.9,3.9-1.1.6.3,1.1.8,1.4,1.4.4.6.5,1.3.5,2s-.3,1.3-.8,2-1.1,1.1-1.9,1.3c-.4.1-1.2.5-2.4,1.1-1.2.6-2.6,1.2-4,1.9-10,4.6-20.1,8.6-30.4,12.1-10.3,3.5-17.2,5.2-20.8,5.2s-4.7-1.1-4.9-3.4c0-.9,0-1.7.3-2.5.3-.8.8-1.9,1.7-3.1,4.9-6.9,14.4-14.6,28.4-23.2,14-8.6,29.8-16.4,47.4-23.4l6.2-2.4,3-4.9c2.5-4.1,4.4-6.9,5.7-8.5,1.3-1.6,2.3-2.4,3-2.4s.3,0,.6.2c.2.1.5.3.7.5.2.2.4.4.5.5,0,.2.2.4.2.7,0,.3,0,.8,0,1.3Z"/>
        <path d="M290.1,420.2c-.9,0-1.6-.1-2.1-.4-2-1.1-3.1-3.1-3.1-6.2s.5-5.1,1.5-8.7h0c0-.1,0-.1,0-.1,0,0-1,.8-2.8,2.4-4.1,3.7-7.3,5.5-9.5,5.5s-2.2-.7-2.8-2c-.2-.7-.4-1.4-.4-2.2,0-2.1,1-4.5,3-7.1,3.7-4.2,7.5-6.3,11.5-6.3s4.4.9,5.7,2.8c.2.3.3.7.3,1.3,0,1.6-.3,2.8-.9,3.6s-1.1,1.9-1.6,3.4c-1,3.2-1.5,5.7-1.5,7.6s.3,2.4,1,3.1c.5.6,1.1.9,1.7.9,2.3,0,6.4-2.3,12.3-7,2.2-1.7,3.7-3.2,4.6-4.3.9-1.1,1.3-2.3,1.3-3.4s.3-1.9.9-2.4,1.1-.7,1.7-.7c.9,0,1.6.5,2,1.4.2.6.3,1.1.3,1.7,0,1.6-.5,2.7-1.5,3.3-.4.2-1.6,1.1-3.5,2.8-3,2.6-5.9,4.9-8.8,6.9-2.9,2-5,3.2-6.5,3.6-.9.3-1.8.4-2.8.4ZM274.1,410c1.1,0,3-1.3,5.9-3.8,2.5-2.2,3.9-3.8,4.4-4.7.1-.3.2-.8.2-1.5s-.4-1.3-1.3-1.3-1.9.4-3.3,1.3c-2.8,1.8-4.7,3.9-5.7,6.4-.5,1.2-.8,2.1-.8,2.8s.2.8.7.8Z"/>
        <path d="M303.1,425.8c-.7-.6-.4-2.6.9-6,.9-2.7,1.7-4.8,2.3-6.5.6-1.6,1-2.9,1.3-3.8.3-.9.4-1.5.5-1.9,0-.4,0-.7,0-.8-.4-1.5-.3-2.8.5-4.2.8-1.3,1.8-2,3.1-2s2,.5,2.4,1.4c.5.9.6,2,.4,3.2-.2,1.2-.7,2.3-1.6,3.3-.3.3-.5.7-.8.9s-.3.5-.3.6-.2.5-.5,1.3c-.4.8-.8,1.8-1.3,3-.5,1.1-.9,2.1-1.2,2.8-.3.8-.5,1.2-.5,1.2,0,0,.3-.2.7-.7.4-.5,1-1.1,1.6-1.8,1.4-1.5,3.1-3.3,5.2-5.3s4-3.8,5.8-5.2c1.5-1.2,2.9-2.1,4.2-2.8s2.3-.9,3.1-.8c1.9.3,3.2,2.3,3.9,6,.9,4.7,2.1,7.3,3.8,7.9,1.6.6,4.5-.2,8.5-2.4,3.4-1.8,6.4-3.7,9-5.7,2.6-2,4.3-3.8,5.3-5.4,1-1.9,2.2-2.9,3.7-2.9s1.7.4,2.2,1.2c.4.8.6,1.7.4,2.7-.2,1-.8,1.7-1.7,2.3-.2.1-.7.4-1.2.8s-1.2.7-1.7,1.1c-12.2,7.5-20,11.3-23.5,11.3s-3.1-.6-4.4-1.8c-1.3-1.2-2.4-3.7-3.3-7.6-.7-3-1.3-4.4-1.8-4.4s-1.1.4-2.3,1.3c-1.2.8-2.5,1.8-3.8,2.8-1.7,1.5-3.7,3.3-5.9,5.6-2.2,2.3-4.3,4.5-6.3,6.9-1,1.2-1.8,2.2-2.6,3.1-.8.8-1.2,1.3-1.4,1.4-.4.2-.8.3-1.3.3-.5,0-.8-.2-1-.4Z"/>
        <path d="M362.6,398.7c.7-.6,1.5-.9,2.4-.8.9.1,1.7.6,2.2,1.3.5.9.6,2.1.3,3.5-.3,1.4-1,2.3-2,2.9-.5.2-1.1.9-1.7,2-.6,1.1-1.3,2.8-2.2,5.2-2.3,6.3-2.8,10.2-1.3,11.9.2.2.5.4.8.5s.8,0,1.6,0c3.5-.3,10-4.1,19.5-11.2,7.9-5.9,11.8-9.6,11.8-11.2s.7-2.7,2.2-3.4c1.5-.7,2.9-.6,4.3.4.5.5.8,1.2.9,2.1,0,.8,0,1.6-.5,2.3-.2.4-.6.8-1,1.2-.4.4-.9.7-1.3,1.1-.5.3-.8.5-1.1.5-.4,0-1.2.4-2.4,1.1-1.2.8-3.1,2.1-5.5,4-13.2,9.8-21.7,15-25.5,15.8-.9.2-1.6.4-2.2.4s-1.1-.1-1.7-.4c-.3-.1-.7-.3-1.1-.5s-.6-.4-.8-.7c-.5-.5-.9-1.3-1.2-2.3-.3-1-.5-1.9-.5-2.8s.2-2.3.5-4c.3-1.7.8-3.4,1.3-5.1.8-2.5,1.3-4.4,1.7-5.7.3-1.3.5-2.3.5-3.1s.2-1.7.6-2.7c.4-1,.8-1.7,1.4-2.2ZM371.7,390.8c-.5,1-1.3,1.7-2.2,2-.9.3-1.9.2-2.8-.4-1-.7-1.5-1.6-1.6-2.7,0-1.1.2-2.1.9-3.1.7-.9,1.6-1.4,2.8-1.4s2.4.6,3.1,1.9c.6,1.2.5,2.4-.1,3.7Z"/>
        <path d="M412.1,420.2c-.9,0-1.6-.1-2.1-.4-2-1.1-3.1-3.1-3.1-6.2s.5-5.1,1.5-8.7h0c0-.1,0-.1,0-.1,0,0-1,.8-2.8,2.4-4.1,3.7-7.3,5.5-9.5,5.5s-2.2-.7-2.8-2c-.2-.7-.4-1.4-.4-2.2,0-2.1,1-4.5,3-7.1,3.7-4.2,7.5-6.3,11.5-6.3s4.4.9,5.7,2.8c.2.3.3.7.3,1.3,0,1.6-.3,2.8-.9,3.6s-1.1,1.9-1.6,3.4c-1,3.2-1.5,5.7-1.5,7.6s.3,2.4,1,3.1c.5.6,1.1.9,1.7.9,2.3,0,6.4-2.3,12.3-7,2.2-1.7,3.7-3.2,4.6-4.3.9-1.1,1.3-2.3,1.3-3.4s.3-1.9.9-2.4,1.1-.7,1.7-.7c.9,0,1.6.5,2,1.4.2.6.3,1.1.3,1.7,0,1.6-.5,2.7-1.5,3.3-.4.2-1.6,1.1-3.5,2.8-3,2.6-5.9,4.9-8.8,6.9-2.9,2-5,3.2-6.5,3.6-.9.3-1.8.4-2.8.4ZM396.1,410c1.1,0,3-1.3,5.9-3.8,2.5-2.2,3.9-3.8,4.4-4.7.1-.3.2-.8.2-1.5s-.4-1.3-1.3-1.3-1.9.4-3.3,1.3c-2.8,1.8-4.7,3.9-5.7,6.4-.5,1.2-.8,2.1-.8,2.8s.2.8.7.8Z"/>
        <path d="M460.9,370.8c.4-.5,1.2-1.2,2.4-2.1,1.2-.9,2.4-1.8,3.6-2.5,1.3-.8,2.3-1.2,3-1.3.5,0,3.2-1.3,8.1-3.8,2.1-1.1,4.4-2.3,6.8-3.6,2.5-1.3,4.5-2.3,6.2-3.2l5.7-2.8.7-1.6c.2-.5.7-1.5,1.2-2.9s1.2-3,1.9-4.7l2.4-6-1.1-1.1c-.5-.4-.9-.8-1-1.1s-.2-.8-.2-1.5.2-1.5.6-2.3c.4-.7,1.2-1.6,2.2-2.7.7-.8,1.4-1.3,2-1.6.6-.3,1.2-.4,1.9-.3,1.5.4,2.2,1.4,2.2,2.8s-2.1,6.9-6.4,16.2c-.5,1.2-1,2.2-1.3,3.1-.3.8-.5,1.3-.5,1.3,0,0,.4,0,.9-.3.5-.2,1.1-.5,1.8-.8,5.1-2.4,10.8-4.9,17.1-7.6,6.3-2.7,12.3-5.1,18-7.3,2.1-.8,4.3-1.7,6.6-2.5,2.3-.9,4.1-1.6,5.5-2.1,1.3-.5,2.5-1,3.5-1.3,1-.3,1.6-.5,1.8-.5.4,0,.8.2,1.2.6.4.4.6.8.6,1.2s-.3.9-.8,1.8c-.5.9-1.1,1.8-1.7,2.6-.6.8-1.1,1.4-1.5,1.7-.9.5-1.9.7-2.8.4-.9-.3-1.6-.9-2.1-1.9,0-.2-.2-.5-.3-.7,0-.2-.1-.3-.1-.4-.2,0-1.6.5-4.1,1.4-2.5.9-5.4,2-8.7,3.3-3.3,1.3-6.2,2.4-8.7,3.5-3.7,1.5-7.7,3.2-12,5.2s-8,3.7-11.2,5.3c-3.2,1.6-5,2.5-5.3,2.8-.1.2-.5.9-1.1,2.1-.6,1.2-1.3,2.6-2,4.3-.8,1.8-2.2,4.7-4.1,8.6-1.9,4-4,8.1-6.1,12.3-2.2,4.4-4,8-5.3,10.8-1.3,2.8-1.9,4.2-1.8,4.2s.6-.1,1.4-.4c.8-.3,1.8-.6,2.8-1.1,3-1.1,7.1-2.6,12.4-4.3,5.3-1.8,10.9-3.6,16.8-5.4,4.2-1.3,7.4-2.4,9.8-3.1,2.4-.8,4.1-1.4,5.2-1.8,1.1-.4,1.9-.8,2.3-1.1,1.3-.9,2.5-1.1,3.5-.6,1.3.5,1.9,1.4,1.9,2.8s-.2,1.5-.7,2h-.1c-.1.3-.3.4-.4.5-.1,0-.3.2-.6.2-.2,0-.6,0-1.1.1-.5,0-1.2,0-2,0h-.7c-1.4,0-2.6,0-3.6.2s-2.4.4-4,.9c-4.6,1.2-9.9,2.8-15.8,4.6-5.9,1.9-11.3,3.7-16.1,5.6-1.7.6-3.6,1.4-5.6,2.2-2,.8-3.8,1.6-5.3,2.3-1.5.7-2.4,1.1-2.7,1.3,0,0-.5.8-1.2,2.1-.7,1.3-1.5,2.8-2.4,4.6-6.9,13.8-12.7,27-17.4,39.8,0,0,0,.2-.1.3-.2.7-.6,1.7-1.1,3.1-.5,1.4-1,2.9-1.5,4.4-.5,1.5-.8,2.8-1,3.9-.2,1.1,0,1.6.3,1.7.9,0,1.7.3,2.4,1,.7.7,1,1.4,1,2.4s-.4,1.7-1.3,2.5-1.9,1.4-3,1.7-2.1.3-2.8-.1c-1.8-.8-1.8-3.9,0-9.4,2.2-6.6,5.1-14.3,8.8-23,3.7-8.8,7.5-17.1,11.5-25.1,2.5-4.9,3.6-7.3,3.2-7.3s-.4.2-1,.5c-.6.3-1.3.7-2,1.1-.8.5-1.4.9-1.7,1.2-.4.3-.7.6-.8.8-.2.3-.3.6-.5,1-.4,1.3-1.2,2.1-2.2,2.5-1,.4-2.1.3-3.2-.4-1.3-.9-1.9-2-1.7-3.2.1-1.3.9-2.2,2.4-2.8.5-.2,1.6-.7,3.3-1.4,1.6-.8,3.4-1.6,5.2-2.4,1.8-.9,3.3-1.6,4.4-2.1l1.2-.6,7.1-14.5c8.8-18,13-27,12.6-27-.6,0-4.8,2.4-12.7,6.9-1.9,1.1-3.4,1.9-4.5,2.5-1.1.6-1.8,1.1-2.3,1.5-.5.4-.8.7-.9.9-.1.2-.2.5-.3.9-.2,1.5-1.5,2.9-3.8,4.2-2.7,1.6-4.7,2.3-6.2,2.3s-1,0-1.3-.2c-.3-.1-.6-.4-1-.8-1.1-1.2-1.3-2.4-.4-3.6Z"/>
        <path d="M527.3,421.6c-.5,0-1.1,0-1.6-.1-3.3-.6-5.2-2.3-5.8-5.2v-.6c0-3.2,1.6-6.9,4.8-10.8,3.2-4,6.6-6.4,10.2-7.4h.6c.4,0,.9.1,1.5.6,1.6,1.1,2.5,2.7,2.5,5s-.5,3.2-1.4,5.2c-.9,2-2.3,3.7-4.1,5.2-.8.6-1.6.9-2.2.9s-1.6-.5-2.3-1.5c-.1-.2-.3-.5-.3-.8s-.1-.7-.1-1.2c0-.5,0-1.2,0-2v-1.2c0-1.6-.1-2.5-.4-2.5s-.4.1-.7.4c-1.7,1.6-3.1,3.7-4.1,6-.8,1.7-1.2,3.1-1.2,4.1,0,1.9,1.8,2.9,5.3,2.9s8-1.6,13.5-4.9c3.7-2.1,7-4.4,10-6.9,2.7-2.3,4.3-4.1,4.7-5.2.2-.4.4-.8.7-1.2.5-.8,1.2-1.2,2.3-1.2s1.4.2,2.3.7c1.1.6,1.7,1.5,1.7,2.7s-.9,2.1-2.7,3.1c-.8.4-2.9,1.6-6.3,3.8-9.9,6.7-17.3,10.5-22.2,11.4-1.9.5-3.5.7-4.6.7ZM533.3,409.1c2-2.6,3.1-4.8,3.1-6.8s-.3-1.6-.8-1.6-.6.3-.6,1v1.7c0,.7-.1,1.5-.6,2.2-.5.9-.8,1.7-.9,2.4l-.2,1Z"/>
        <path d="M571.6,426.4c-2,0-3.5-.7-4.5-2-.8-1.1-1.2-3.3-1.2-6.5v-3.3c0-3.1-.3-5.2-.9-6.5-.7-1.3-2.3-2.2-4.9-2.9-2.8-.8-4.2-2.4-4.2-4.6s.1-1.6.4-2.5c.6-1.8,1.5-3.2,2.8-4.1.9-.7,1.8-1,2.8-1s.8,0,1.1.1c1.9.7,2.9,2.2,2.9,4.6s-.1,2-.4,2.9c-.3,1.5-.5,2.4-.5,2.8,0,.6.3,1.1,1,1.5,1.2,1.1,2,2.3,2.3,3.6.1.8.3,3.1.4,6.8,0,4.3.3,6.8.7,7.3.4.8,1.2,1.2,2.3,1.2,1.7,0,4-1,6.8-3.1,4.1-3.1,7.7-6.6,10.6-10.3,3-3.7,4.6-6.8,5-9.3,0-.7.3-1.5.7-2.3.6-1.5,1.5-2.2,2.5-2.2s.7,0,1.1.3c1,.6,1.5,1.6,1.5,2.8s0,.6,0,1.3c0,.8-.7,1.6-1.8,2.6-.5.3-1.3,1.3-2.4,2.8-3.8,5.7-8.3,10.6-13.4,14.7-4.5,3.6-7.9,5.4-10.3,5.4ZM559.2,401.1c.5,0,1.1-.6,1.8-1.9.4-1,.7-1.7.7-2.3s0-.6-.3-.6c-.3,0-.7.3-1.2.9s-.8,1.2-1,1.8c-.2.6-.3,1.1-.3,1.5s0,.6.3.6Z"/>
        <path d="M604.9,426.4c-2,0-3.5-.7-4.5-2-.8-1.1-1.2-3.3-1.2-6.5v-3.3c0-3.1-.3-5.2-.9-6.5-.7-1.3-2.3-2.2-4.9-2.9-2.8-.8-4.2-2.4-4.2-4.6s.1-1.6.4-2.5c.6-1.8,1.5-3.2,2.8-4.1.9-.7,1.8-1,2.8-1s.8,0,1.1.1c1.9.7,2.9,2.2,2.9,4.6s-.1,2-.4,2.9c-.3,1.5-.5,2.4-.5,2.8,0,.6.3,1.1,1,1.5,1.2,1.1,2,2.3,2.3,3.6.1.8.3,3.1.4,6.8,0,4.3.3,6.8.7,7.3.4.8,1.2,1.2,2.3,1.2,1.7,0,4-1,6.8-3.1,4.1-3.1,7.7-6.6,10.6-10.3,3-3.7,4.6-6.8,5-9.3,0-.7.3-1.5.7-2.3.6-1.5,1.5-2.2,2.5-2.2s.7,0,1.1.3c1,.6,1.5,1.6,1.5,2.8s0,.6,0,1.3c0,.8-.7,1.6-1.8,2.6-.5.3-1.3,1.3-2.4,2.8-3.8,5.7-8.3,10.6-13.4,14.7-4.5,3.6-7.9,5.4-10.3,5.4ZM592.5,401.1c.5,0,1.1-.6,1.8-1.9.4-1,.7-1.7.7-2.3s0-.6-.3-.6c-.3,0-.7.3-1.2.9s-.8,1.2-1,1.8c-.2.6-.3,1.1-.3,1.5s0,.6.3.6Z"/>
        <path d="M629.9,421.6c-.5,0-1.1,0-1.6-.1-3.3-.6-5.2-2.3-5.8-5.2v-.6c0-3.2,1.6-6.9,4.8-10.8,3.2-4,6.6-6.4,10.2-7.4h.6c.4,0,.9.1,1.5.6,1.6,1.1,2.5,2.7,2.5,5s-.5,3.2-1.4,5.2c-.9,2-2.3,3.7-4.1,5.2-.8.6-1.6.9-2.2.9s-1.6-.5-2.3-1.5c-.1-.2-.3-.5-.3-.8s-.1-.7-.1-1.2c0-.5,0-1.2,0-2v-1.2c0-1.6-.1-2.5-.4-2.5s-.4.1-.7.4c-1.7,1.6-3.1,3.7-4.1,6-.8,1.7-1.2,3.1-1.2,4.1,0,1.9,1.8,2.9,5.3,2.9s8-1.6,13.5-4.9c3.7-2.1,7-4.4,10-6.9,2.7-2.3,4.3-4.1,4.7-5.2.2-.4.4-.8.7-1.2.5-.8,1.2-1.2,2.3-1.2s1.4.2,2.3.7c1.1.6,1.7,1.5,1.7,2.7s-.9,2.1-2.7,3.1c-.8.4-2.9,1.6-6.3,3.8-9.9,6.7-17.3,10.5-22.2,11.4-1.9.5-3.5.7-4.6.7ZM636,409.1c2-2.6,3.1-4.8,3.1-6.8s-.3-1.6-.8-1.6-.6.3-.6,1v1.7c0,.7-.1,1.5-.6,2.2-.5.9-.8,1.7-.9,2.4l-.2,1Z"/>
        <path d="M661.5,398.7c.7-.6,1.5-.9,2.4-.8.9.1,1.7.6,2.2,1.3.5.9.6,2.1.3,3.5-.3,1.4-1,2.3-2,2.9-.5.2-1.1.9-1.7,2-.6,1.1-1.3,2.8-2.2,5.2-2.3,6.3-2.8,10.2-1.3,11.9.2.2.5.4.8.5s.8,0,1.6,0c3.5-.3,10-4.1,19.5-11.2,7.9-5.9,11.8-9.6,11.8-11.2s.7-2.7,2.2-3.4c1.5-.7,2.9-.6,4.3.4.5.5.8,1.2.9,2.1,0,.8,0,1.6-.5,2.3-.2.4-.6.8-1,1.2-.4.4-.9.7-1.3,1.1-.5.3-.8.5-1.1.5-.4,0-1.2.4-2.4,1.1-1.2.8-3.1,2.1-5.5,4-13.2,9.8-21.7,15-25.5,15.8-.9.2-1.6.4-2.2.4s-1.1-.1-1.7-.4c-.3-.1-.7-.3-1.1-.5s-.6-.4-.8-.7c-.5-.5-.9-1.3-1.2-2.3-.3-1-.5-1.9-.5-2.8s.2-2.3.5-4c.3-1.7.8-3.4,1.3-5.1.8-2.5,1.3-4.4,1.7-5.7.3-1.3.5-2.3.5-3.1s.2-1.7.6-2.7c.4-1,.8-1.7,1.4-2.2ZM670.6,390.8c-.5,1-1.3,1.7-2.2,2-.9.3-1.9.2-2.8-.4-1-.7-1.5-1.6-1.6-2.7,0-1.1.2-2.1.9-3.1.7-.9,1.6-1.4,2.8-1.4s2.4.6,3.1,1.9c.6,1.2.5,2.4-.1,3.7Z"/>
        <path d="M707.5,426.4c-2,0-3.5-.7-4.5-2-.8-1.1-1.2-3.3-1.2-6.5v-3.3c0-3.1-.3-5.2-.9-6.5-.7-1.3-2.3-2.2-4.9-2.9-2.8-.8-4.2-2.4-4.2-4.6s.1-1.6.4-2.5c.6-1.8,1.5-3.2,2.8-4.1.9-.7,1.8-1,2.8-1s.8,0,1.1.1c1.9.7,2.9,2.2,2.9,4.6s-.1,2-.4,2.9c-.3,1.5-.5,2.4-.5,2.8,0,.6.3,1.1,1,1.5,1.2,1.1,2,2.3,2.3,3.6.1.8.3,3.1.4,6.8,0,4.3.3,6.8.7,7.3.4.8,1.2,1.2,2.3,1.2,1.7,0,4-1,6.8-3.1,4.1-3.1,7.7-6.6,10.6-10.3,3-3.7,4.6-6.8,5-9.3,0-.7.3-1.5.7-2.3.6-1.5,1.5-2.2,2.5-2.2s.7,0,1.1.3c1,.6,1.5,1.6,1.5,2.8s0,.6,0,1.3c0,.8-.7,1.6-1.8,2.6-.5.3-1.3,1.3-2.4,2.8-3.8,5.7-8.3,10.6-13.4,14.7-4.5,3.6-7.9,5.4-10.3,5.4ZM695,401.1c.5,0,1.1-.6,1.8-1.9.4-1,.7-1.7.7-2.3s0-.6-.3-.6c-.3,0-.7.3-1.2.9s-.8,1.2-1,1.8c-.2.6-.3,1.1-.3,1.5s0,.6.3.6Z"/>
        <path d="M747.1,420.2c-.9,0-1.6-.1-2.1-.4-2-1.1-3.1-3.1-3.1-6.2s.5-5.1,1.5-8.7h0c0-.1,0-.1,0-.1,0,0-1,.8-2.8,2.4-4.1,3.7-7.3,5.5-9.5,5.5s-2.2-.7-2.8-2c-.2-.7-.4-1.4-.4-2.2,0-2.1,1-4.5,3-7.1,3.7-4.2,7.5-6.3,11.5-6.3s4.4.9,5.7,2.8c.2.3.3.7.3,1.3,0,1.6-.3,2.8-.9,3.6s-1.1,1.9-1.6,3.4c-1,3.2-1.5,5.7-1.5,7.6s.3,2.4,1,3.1c.5.6,1.1.9,1.7.9,2.3,0,6.4-2.3,12.3-7,2.2-1.7,3.7-3.2,4.6-4.3.9-1.1,1.3-2.3,1.3-3.4s.3-1.9.9-2.4,1.1-.7,1.7-.7c.9,0,1.6.5,2,1.4.2.6.3,1.1.3,1.7,0,1.6-.5,2.7-1.5,3.3-.4.2-1.6,1.1-3.5,2.8-3,2.6-5.9,4.9-8.8,6.9-2.9,2-5,3.2-6.5,3.6-.9.3-1.8.4-2.8.4ZM731.1,410c1.1,0,3-1.3,5.9-3.8,2.5-2.2,3.9-3.8,4.4-4.7.1-.3.2-.8.2-1.5s-.4-1.3-1.3-1.3-1.9.4-3.3,1.3c-2.8,1.8-4.7,3.9-5.7,6.4-.5,1.2-.8,2.1-.8,2.8s.2.8.7.8Z"/>
      </g>
      <path d="M285,386.4c1.7-1.8,3.3-3.5,5-5.3h-1.6c1.9,2.1,3.7,4.3,5.6,6.4s1.2.4,1.6,0,.4-1.1,0-1.6c-1.9-2.1-3.7-4.3-5.6-6.4s-1.2-.4-1.6,0c-1.7,1.8-3.3,3.5-5,5.3s.6,2.6,1.6,1.6h0Z"/>
    </g>
  </g>
  <g>
    <path d="M128.4,337c2,1.5,2.2-1.6,3.1-2.6,24.8-27.3,49.6-6.8,52.6,23.9,2.1,20.9-3.1,40-12.8,58.3-1.4,2.7-7.1,9.6-6.8,11.8,12.9,8.4,30.1,25.6,19.1,41.9-12.8,19.1-45.8,6.4-60.9-3.7-13.6,10.5-56.1,24.9-58.4-2.9-1.2-14.8,10.6-23.7,19.5-33.2-13.4-22.3-21.6-44.6-19.5-71.2,2.9-37.2,36-54.6,63.1-24.8.7.8.9,2.5,1,2.6ZM92.9,322.8c-7.4,1.3-14.4,7.8-18.1,13.9-14.2,23.1-7.6,56.2,4.4,78.9,1,1.9,6.9,12.1,8.3,12.2,7.1-4.8,36.3-25.4,37.5-32.6s-5.2-12.9-5.7-16.6c-1.8-13.6.8-27.3,7.9-38.9-7.8-10.4-20.6-19.3-34.3-17ZM162.5,425.9c15.7-23.4,27.1-57.5,15-84.8-8.6-19.3-29-22.4-43.4-7.3-5.9,6.2-2.1,5.7,0,11.4,4.9,13.2,5.4,26.3.3,39.5-.9,2.3-5.8,10.7-5.8,11.5.5,5.5,20.3,20.7,25.3,24.3,1.3.9,7.8,5.9,8.6,5.4ZM129.4,342.2c-1.6-1.5-1.8.5-2.3,1.3-8.7,13.4-9.8,36.1-.3,49.3,8.1-11.5,10.4-25.3,6.9-38.9-.4-1.5-3.9-11.3-4.3-11.7ZM128.3,398l-38.3,33.6c8.5,12.3,20,22.4,32.6,30.5,1.6,0,16.8-11.9,19.2-14,2.3-2,17.3-17.5,17.5-18.8.2-1.3-.8-1.7-1.5-2.4-5-5.3-15.1-10.7-20.7-16.5-3-3.1-7.1-8.4-8.8-12.4ZM126.3,465.2c13.3,7.8,40.9,18.9,53.3,5.2,12.7-14-4.9-31.8-16.6-39.4l-36.7,34.1ZM119.1,465.2l-32.6-32c-10.6,7.5-26.9,26.3-15,38.7,11.2,11.7,35.9-.3,47.5-6.7Z"/>
    <g>
      <path class="st0" d="M128.5,336.9c1.8,1.4,2-1.7,2.9-2.6,27.1-29.8,53.4-3.1,54.2,29.3,1.1,18.8-4.4,37.4-13.4,53.8-1.9,3.2-4.4,6-6.1,9.2-.2.5-.6,1.2-.6,1.7,0,0-.5-.7-.5-.7,4.2,2.8,8.1,5.9,11.6,9.5,6.8,7,13.1,16.8,10.5,27-2.7,10.3-12.5,16.3-22.7,16.6-14.7.4-29.8-5.7-42.1-13.4,0,0,.9,0,.9,0-7.5,5.6-16.2,9.2-25.1,11.7-8.9,2.2-19.4,3.8-27.7-1.4-6.5-4.2-8.3-12.5-7.3-19.7,1-7.2,5.3-13.5,10.1-18.6,3.1-3.5,6.4-6.6,9.5-9.9,0,0-.2,1.9-.2,1.9-13.1-21.1-21.9-46-19.5-71.1,1.3-26.6,22.8-51.2,50.3-37.2,3.9,2,7.6,4.8,10.7,7.8,1.3,1.2,2.5,2.5,3.7,3.8.5.7.8,1.8.9,2.4h0ZM128.3,337.1s0,0,0-.1c0,0,0,0,0,0v-.2c-.2-.7-.4-1.5-.9-2.1-1.2-1.3-2.4-2.6-3.7-3.7-5.7-5.4-12.8-9.6-20.7-10.8-18.8-2.9-32.5,12.8-36,29.9-1.5,6.8-1.7,13.8-1.5,20.7.7,21.5,9.2,41.7,20.3,59.9,0,0-.8.9-.8.9-7.5,8.1-17.2,15.4-19.1,26.8-3.1,27.3,28.3,21.3,44.5,14.2,4.3-1.9,8.6-4,12.3-6.9,4.2,2.9,8.7,5.3,13.3,7.4,12.4,5.5,29.8,10.6,42,2.4,5.9-4.2,9.5-11.6,8.4-18.8-2.2-12-12.7-21-22.4-27.4,0,0-.4-.3-.4-.3-.3-2.2,1-3.9,2-5.6,2.8-4.2,5.4-8,7.3-12.6,6.9-14.7,11-30.8,10.4-47.1,0-31.5-24.7-58.2-51.6-29.2-.9,1-1.3,4.2-3.3,2.6h0Z"/>
      <path class="st0" d="M93,322.9c-15.2,3.4-22.3,20.4-24.1,34.4-3,22.5,3.9,52.3,18.6,69.9,5.6-3.8,14.7-10.9,21.1-16.3,3.4-2.9,6.8-5.8,9.9-9,2-2.1,4.1-4.1,5.1-6.7-1-3-3.5-8.7-4.8-12.7-1.9-5.5-1.7-11.7-1.4-17.4.8-9.2,3.8-18.3,8.8-26,0,0,0,1.4,0,1.4-7.3-10.6-19.8-19.8-33.3-17.5h0ZM92.9,322.6c13.7-2.3,27,6,35.3,16.4,0,0,.5.6.5.6l-.4.8c-6.6,11.4-9.1,25.1-7.3,38.1,1.2,5.5,3.8,10.6,5.5,16,1.1,6.4-21.9,22.2-27.4,26.1-3.8,2.6-7.6,5.2-11.4,7.7-.4,0-.7-.2-.9-.4-3.4-3.6-5.6-8.2-8.1-12.4-7-13.5-12.2-28.1-13.1-43.4-.8-12.1,1.6-24.6,8.2-34.9,4.3-6.9,11-13,19.2-14.6h0Z"/>
      <path class="st0" d="M162.4,425.8c13.6-23.2,23.8-52.1,16.5-79-1.2-3.7-2.6-7.5-4.8-10.7-5.4-8.5-15.4-13-25.2-10.3-5.6,1.6-10.5,5.1-14.4,9.4-1,1.2-2.4,2.5-2.3,4,0,.3.3.8.7,1.3,3.2,4.4,4.4,10.1,5.6,15.4,2,10.1,1,20.8-3.1,30.3-1.7,3.5-3.7,6.7-5.4,10.1,0,0,0,.2,0,.2,0,0,0,.2,0,0,0,0,0-.1,0-.2,0,0,0,0,0,0h0c0,.5.2.8.4,1.2,1.8,3.3,4.7,6,7.5,8.7,5.7,5.5,11.9,10.5,18.2,15.4,2.1,1.5,4,3.4,6.4,4.3h0ZM162.6,426c-.6.3-1.5-.3-2.1-.6-4.1-2.3-7.9-5-11.7-7.7-4.3-3.1-8.6-6.4-12.6-9.9-3.2-3.1-7-6-8.8-10.3-.1-.4-.3-.8-.3-1.2,0-.7.4-1.4.5-1.7,1.6-3.3,3.4-6.5,5-9.8,5.1-12.6,4.8-27-.1-39.7-.7-2-2.2-3.3-2.8-5.5-.5-2.6,1.6-4.6,3.1-6.2,12.5-13.2,31.6-13.6,42.2,2,17.9,28.4,6.2,65.3-12.3,90.5h0Z"/>
      <path class="st0" d="M129.3,342.3c-.4-.4-1-.7-1.3-.3-1.8,3.5-3.6,7.2-4.4,11.1-2.8,12.9-5.2,28.2,3.9,39.2,0,0-1.4,0-1.4,0,4.5-7.4,7.3-15.8,7.6-24.4.4-8.6-.9-17.6-4.4-25.6h0ZM129.5,342.1c.6.9,1,2.2,1.4,3.1,1.7,4.2,3.9,8.1,4.9,12.6,3,12.3-.4,25.8-8.2,35.6,0,0-.8,1-.8,1-2.8-4.3-4.6-9.2-5.8-14.1-3.5-13.9-2.3-25.1,6.1-37,.6-1.1,1-2.7,2.5-1.3h0Z"/>
      <path class="st0" d="M128.3,398.2c-12.2,11.5-24.6,23.7-37.5,34.3,0,0,.2-1.5.2-1.5,2,3.1,4.2,6.1,6.5,9,7,8.7,16,15.7,25.6,21.4,0,0-.5-.1-.5-.1,0,0,0,0,0,0,0,0,0,0,0,0,1.6-.8,2.9-2,4.4-3,2.7-2.2,6.6-5.1,9.2-7.3,4.5-3.4,8.7-8,12.6-12.1,3-3.2,6-6.3,8.8-9.7,0,0,.2-.2.2-.2,0,0,0,.3,0,.1,0,0,0,0,0,0-1.7-1.6-3.7-3.6-5.7-5.1-6.1-4.9-13.1-9.2-17.9-15.5-2.3-3.1-4.7-6.4-5.9-10.2h0ZM128.4,397.9c3.8,6.8,9.3,12.6,15.8,17,5,3.6,10.5,6.7,14.9,11.1.7.6,1.7,1.4,1.8,2.5.2.9-.1,1.8-.7,2.5-2.8,3.6-6,6.8-9,10-2.6,2.5-5.8,6-8.5,8.4-4.7,3.8-9.4,7.2-14.3,10.6-1.8,1-3.6,2.6-5.6,3,0,0-.2,0-.2,0s-.2-.1-.2-.1c-12.5-8.9-24.5-19-33.6-31.4,12.4-11.8,26.5-22.8,39.8-33.6h0Z"/>
      <path class="st0" d="M126.5,465.2c11.8,5.2,24.3,10.3,37.3,10.5,8.5.4,17.7-4.1,19.5-13.1,2-12.2-11.8-24.1-21.1-30.2,0,0,1.9-.2,1.9-.2-1.5,1.4-2.9,2.8-4.4,4.2-10.4,9.7-22.3,19.5-33.2,28.8h0ZM126.2,465.2c10-10.2,20.6-21.2,31.1-30.9,1.9-1.7,3.8-3.5,5.7-5.2,0,0,1,.7,1,.7,10.2,7.1,22.7,19.4,20.3,32.9-2,9.3-11.2,15.1-20.3,15.4-13,.5-27.2-5.5-37.7-12.9h0Z"/>
      <path class="st0" d="M118.9,465.2c-11.2-10-23.1-20.2-33-31.4,0,0,1,0,1,0-9.4,6.1-19.1,17.3-18.3,29,.8,7.9,8.3,12.7,16,12.4,12,0,23.4-5.6,34.3-10.1h0ZM119.2,465.2c-1.4,1.1-3.8,2.4-5.3,3.4-9,5.1-18.7,9.6-29.3,9.9-9.1.3-17.9-5.9-18.5-15.4-.3-11.8,11.4-23.5,19.9-30.5,0,0,.5-.4.5-.4s.5.5.5.5c11.5,9.9,22.1,21.4,32.2,32.6h0Z"/>
    </g>
  </g>
</svg>