<?xml version="1.0" encoding="UTF-8"?>
<svg id="Layer_1" xmlns="http://www.w3.org/2000/svg" version="1.1" viewBox="0 0 974 332">
  <!-- Generator: Adobe Illustrator 29.1.0, SVG Export Plug-In . SVG Version: 2.1.0 Build 142)  -->
  <defs>
    <style>
      .st0 {
        fill: #aea393;
      }
    </style>
  </defs>
  <g>
    <g>
      <path class="st0" d="M305,246.4c.2-.4.6-1.2,1-2.3.5-1.2.9-2.6,1.5-4,.5-1.5.9-2.8,1.4-4,.2-.9.5-1.5.6-2s.2-.9.2-1.2v-1.1c0-1.2.3-2.1,1-2.4s1.4-.2,2.2.5.8,1.7,0,3c-.1.2-.3.7-.6,1.3s-.6,1.2-.8,2c-.3.7-.6,1.3-.8,1.8s-.3.9-.3.9c0,0,.1,0,.5-.5l1.1-1.2c1.9-2,3.8-3.5,5.6-4.8s3.3-1.8,4.5-1.8,1.1.2,1.7.7c.5.5.7,1,.7,1.6,0,2-1.7,4.9-5,8.9-.2.2-.5.5-.6.7s-.2.4-.2.4c0,0,.3,0,.8-.4.5-.2.9-.6,1.6-1s1.3-.9,1.8-1.2c2.7-2,4.9-4,6.7-6.2.6-.7.9-1.2,1-1.7.2-.4.3-.9.3-1.5v-.7c0-.2.2-.4.3-.6s.3-.4.6-.4h.7c1,0,1.6.5,1.7,1.1s0,1.2-.6,2c-.5.7-.8,1.2-1.3,1.5-5.6,6.1-10.8,10-15.4,11.7-.5.1-.9.4-1.3.5-.3.2-.7.4-.8.5-1.6,1.3-2.9,2.3-3.8,2.9s-1.8,1.1-2.7,1.5c-.8.4-1.6.5-2.4.6h-1.1l-1.8,4.6c-2.3,5.7-3.7,8.7-4,9-.2.2-.5.4-.8.4s-.6,0-.8-.4c-.1-.1-.2-.4-.2-.5v-.9c0-.5.3-1.5.8-2.9.5-1.5,1.1-3,1.8-4.9.3-.9.8-1.8,1.4-3,.6-1.2,1.1-2.3,1.6-3.3.6-1,.9-1.7,1.1-2.1.1-.1.3-.4.5-.6s.3-.5.5-.7v.2ZM311.1,247.4l.5-.4h-.9c-2.5.5-4,1.1-4.6,2.1l-.3.6h.9c.2,0,.5-.1.8-.2.6-.2,1.1-.5,1.9-.9.8-.4,1.4-.7,1.7-1v-.2ZM317.4,234.9c-1.1.9-2.6,2.3-4.3,4.3s-3.3,3.9-4.6,5.7c-.2.4-.3.6-.3.6h.2c.1,0,.5,0,1-.1.6,0,1.3-.1,1.9-.2.8,0,1.4-.1,1.9-.2.6,0,.9-.1.9-.1.3-.1.9-.6,1.7-1.5.9-.9,1.7-1.7,2.5-2.7,2.9-3.4,4.2-5.9,4.1-7.1v-.5s0-.1-.2-.1h-.5c-.5,0-1,.2-1.8.6s-1.7,1-2.5,1.6v-.2Z"/>
      <path class="st0" d="M321.3,254.4c-.5,0-.8-.1-1-.4-.3-.2-.5-.6-.5-1.2v-.6c.1-1.1,1.1-2.7,3-5,1.3-1.5,2.6-3,4.1-4.5,1-1,1.7-1.7,1.8-2.3v-.5c.3-.7.6-1.5.8-2.4v-.6c1.7-6.6,3.5-9.9,5.7-9.9s1.3.4,1.3,1.2-.7,2.1-2.2,3.4c-.6.5-.9,1-1.3,1.5-.2.6-.5,1.3-.8,2.2-.7,2.1-1,3.2-1,3.3h0s.9-.5,2.4-1.6l5.4-3.8c.9-.6,1.7-1.1,2.2-1.5.7-.5,1.1-1,1.3-1.5.5-.9,1-1.3,1.7-1.3s1,.4,1.3,1.1v.6c0,1-.6,1.5-1.8,1.7-.3,0-.7.1-1,.2-.7.2-2.4,1.5-5.4,3.7-3.8,2.8-5.9,4.5-6.7,5.4s-.5.9-.8,1.6c-1.4,3.5-3,6.3-4.7,8.5-1.5,1.7-2.7,2.6-3.8,2.6h.1ZM321.6,252.5c.1,0,.6-.4,1.4-1.1,1.4-1.3,2.5-3,3.5-5.2.2-.5.3-.7.3-1s0,0,0,0c0,0-.3.2-.8.7-1,1.1-2.1,2.4-3.1,3.9-.9,1.3-1.4,2.2-1.4,2.7s0,0,0,0h0Z"/>
      <path class="st0" d="M340,263.3c-.2,0-.3,0-.6-.1-.6-.2-.8-.9-.8-1.6s.2-1.6.6-2.8c1.7-4.3,5.5-9.5,11.4-15.7l2.7-2.8c3.5-7.7,5.4-11.7,5.4-12h-.3c-2.1,1.7-5.6,5.2-10.8,10.7-3.3,3.5-5.1,5.4-5.5,5.6-.5.1-.8.2-1,.2-.8,0-1.3-.6-1.3-2s.6-3.3,1.6-6.2c.3-1,.6-1.6.6-2v-1.3c0-1.2.6-2.4,1.8-3.9.9-1.1,1.8-1.6,2.4-1.6s.6,0,.8.4c.5.4.6.7.6,1.3s-.2,1.1-.7,2.1c-.8,1.8-1.5,3-2.3,3.4s-1.6,2.1-2.6,5.4c-.3,1.1-.6,1.8-.6,2.3s0,0,0,0c.1,0,.7-.4,1.5-1.2.8-.9,2.3-2.3,4.2-4.4,7.2-7.7,11.4-11.5,12.6-11.5s.3.1.6.4c.2.2.3.5.3.7,0,.7-.8,2.9-2.5,6.6s-1.7,3.7-1.7,3.9c.1,0,.6-.4,1.4-1,.9-.7,1.9-1.5,2.9-2.1,1-.7,1.8-1.3,2.4-1.7.9-.7,1.6-1.3,1.8-2s.6-1,.8-1.3c.2-.2.6-.4,1-.4s.9.1,1.3.5c.3.4.5.7.5,1.1s-.3,1-.9,1.3c-.5.4-.8.5-1.1.5s-1,.4-2.2,1.1c-2.6,1.7-5.8,4.1-9.6,7.6-2.7,5.1-4.9,9.3-6.7,12.3-3.3,5.5-5.7,8.8-7,9.8-.3.2-.7.4-.9.4h.1ZM340.5,261.1l.5-.5c.5-.4,1.1-1.2,1.8-2.4,1.5-2,3.2-4.6,5.1-8.2,1.6-2.7,2.4-4.1,2.4-4.4h0s-.6.5-1.4,1.5c-4.9,6-7.8,10.7-8.6,14h.1Z"/>
      <path class="st0" d="M366,243.3c-.5,0-.8,0-1.1-.1-1.6-.7-2.4-2.1-2.4-4.3s.6-3.8,1.6-6c.9-1.8,2.1-3.5,3.5-5.1s2.9-2.7,4.2-3.5c.8-.4,1.4-.6,1.9-.6s1.4.4,1.7,1.2c0,.2.1.6.1,1,0,1-.2,2.1-.8,3.4-.6,1.3-1.3,2-2.2,2s-.8-.2-1.3-.6c-.2-.2-.5-.5-.5-.6v-.9c0-.4,0-.6.1-.9,0-.2.3-.5.7-1,.6-.6.8-1,.8-1.1h0s-.5.1-1.1.6c-2.6,1.8-4.7,4.4-6,7.4-.8,1.7-1.1,3.3-1.1,4.5,0,1.8.8,2.8,2.4,2.8,2.6,0,6.5-1.8,12-5.6,1.9-1.3,3.5-2.6,4.7-3.7.6-.5.8-.9.8-1v-.4c0-.2-.1-.5-.1-.7,0-.4.1-.7.3-1.2.2-.4.7-.6,1.3-.6s1.3.4,1.6,1.1c0,.2.1.5.1.7,0,.5-.2.9-.6,1.3-1.1,1.1-3.7,2.9-7.4,5.6-5.6,3.9-9.9,5.9-13,5.9l-.2.2Z"/>
      <path class="st0" d="M378.6,249.7c-.6,0-.8-.2-.8-.6,0-1.2,1.5-5.5,4.3-12.8,2.6-6.6,4.5-11.2,5.6-13.9,1.6-3.9,2.6-6.8,3.3-8.8.3-.9.5-1.5.5-1.8s0-.4-.1-.5c0-.4-.1-.7-.1-1,0-.7.2-1.3.7-1.8s.9-.7,1.5-.7c1.4,0,1.9.7,1.9,2.2s-.2,1.2-.6,1.7-1.3,2.4-2.6,5.7l-1.9,4.3c-2.9,6.6-5,11.5-6.3,14.6-.2.7-.5,1.2-.6,1.6s-.2.6-.2.6v.2s.5-.6,1.5-1.8c1-1.3,2.4-2.8,3.8-4.3,1.5-1.5,2.6-2.6,3.5-3.2,1-.7,1.8-1.1,2.6-1.1s1.6.4,1.9,1.2c.3.7.6,2,.9,3.5.2,2.3.7,3.5,1.1,3.5s1-.4,1.9-1.2c3-2.4,4.6-4.4,4.9-6,.3-1.1.9-1.6,1.8-1.6s1.5.5,1.8,1.6v.4c0,.7-.6,1.5-1.7,2.3-.8.6-1.9,1.6-3.7,3-1.6,1.3-2.7,2.3-3.4,2.8s-1.4.7-1.9.7-.7,0-.9-.1c-.9-.4-1.6-2-2.1-4.9-.2-2-.6-2.9-.9-2.9s-.2,0-.5.1c-1.9,1.1-4.5,3.5-7.4,7.3-2.5,3.2-4.6,6.2-6.2,9.1-.7,1.2-1.1,2-1.3,2.2-.1.1-.3.2-.6.2h0Z"/>
      <path class="st0" d="M404.1,247.7c-1,0-1.7-.5-2.2-1.5-.3-.9-.6-1.7-.6-2.8,0-2.1.6-4.6,1.7-7.7,1.3-3.4,2.9-5.9,4.7-7.6.8-.7,1.6-1.1,2.5-1.1s2.1.6,2.9,2c.5.9.8,1.7.9,2.6,0,.6.2,1,.3,1s.5,0,.9-.2c2.3-.7,3.5-1.6,3.9-2.3.5-1,1-1.3,1.8-1.3s1.1.4,1.6,1.1c0,.2.1.5.1.9,0,1-.6,1.6-1.8,2-.6.1-2.1.6-4.2,1.5-.6.2-1,.4-1.4.4-.7.1-1.1.4-1.3.4-.1.4-.3.7-.3,1.1-.2.9-.7,1.8-1.3,3-.9,2-1.9,3.5-2.9,4.9-2.2,2.7-3.9,4-5.3,4h-.2ZM404.3,245.6c.3,0,.8-.2,1.4-.6,1-.9,2.2-2.2,3.4-4.1s2.2-3.8,2.7-5.5l.2-.6c-1.4-.2-2.4-.7-3.2-1.5-.2-.4-.6-.5-.8-.5s-.6.4-1.1,1.2c-1.1,2-2.1,3.8-2.7,5.6-.6,1.6-.8,2.9-.8,4.3s.2,1.7.8,1.7h.1ZM412.3,231.9h0c0-.1-.1-.5-.3-.7-.5-.6-.8-.9-1-.9s-.1,0-.1.1c0,.5.3.9.9,1.2.3.2.5.4.6.4h0Z"/>
      <path class="st0" d="M422.1,225c.3-1,.8-2.1,1.4-3.3s.9-2.3,1.4-3.3c0-.2.1-.4.2-.6l1.4-3.5-.3-.5c-.8-1.1-.7-2.3.2-3.4,1.4-1.5,2.5-1.7,3.5-.6s.3.6.3,1,0,.9-.3,1.6c-.2.7-.7,1.6-1.3,2.8-1.7,3.7-3.7,7.9-5.6,12.7-2.1,4.9-3.9,9.8-5.5,14.6s-2.6,9.4-3,13.3l-.2,2.1.8.9c.3.4.5.6.6.9s.1.5.1.7c0,.7-.2,1.3-.7,1.7s-1,.4-1.7.1c-1.1-.5-1.7-1.7-1.7-3.8s.7-6,1.9-10.1,2.6-8.3,4.2-12.6c1.6-4.3,3-7.8,4.2-10.6h0Z"/>
      <path class="st0" d="M424.5,247.7c-1,0-1.7-.5-2.2-1.5-.3-.9-.6-1.7-.6-2.8,0-2.1.6-4.6,1.7-7.7,1.3-3.4,2.9-5.9,4.7-7.6.8-.7,1.6-1.1,2.5-1.1s2.1.6,2.9,2c.5.9.8,1.7.9,2.6,0,.6.2,1,.3,1s.5,0,.9-.2c2.3-.7,3.5-1.6,3.9-2.3.5-1,1-1.3,1.8-1.3s1.1.4,1.6,1.1c0,.2.1.5.1.9,0,1-.6,1.6-1.8,2-.6.1-2.1.6-4.2,1.5-.6.2-1,.4-1.4.4-.7.1-1.1.4-1.3.4-.1.4-.3.7-.3,1.1-.2.9-.7,1.8-1.3,3-.9,2-1.9,3.5-2.9,4.9-2.2,2.7-3.9,4-5.3,4h-.2ZM424.5,245.6c.3,0,.8-.2,1.4-.6,1-.9,2.2-2.2,3.4-4.1s2.2-3.8,2.7-5.5l.2-.6c-1.4-.2-2.4-.7-3.2-1.5-.2-.4-.6-.5-.8-.5s-.6.4-1.1,1.2c-1.1,2-2.1,3.8-2.7,5.6-.6,1.6-.8,2.9-.8,4.3s.2,1.7.8,1.7h.1ZM432.5,231.9h0c0-.1-.1-.5-.3-.7-.5-.6-.8-.9-1-.9s-.1,0-.1.1c0,.5.3.9.9,1.2.3.2.5.4.6.4h0Z"/>
      <path class="st0" d="M444.7,232.1c-.9-.6-1.3-1.5-1-2.7v-.5c.1,0-.3.4-.3.4-.3.2-.9,1-1.5,1.8-.7,1-1.3,1.8-1.7,2.7-.7,1.3-1.3,2.6-1.6,3.8s-.6,2.2-.5,2.8c0,.9.6,1,1.5.4s2.6-2.1,5-4.5c1.9-2,3.4-3.3,4.3-4,.9-.7,1.7-1.2,2.4-1.5.8-.2,1.5,0,1.9.6.7,1.2.6,3.3-.2,6.2,0,.4-.2.9-.3,1.5,0,0,.1,0,.5-.2s.6-.4.9-.7c3-2.3,6-4.5,9.4-6.6.6-.2,1-.6,1.5-1s.8-.7,1.1-1c1.1-1,1.9-1.2,2.4-.7s.2,1.3-.7,2.3c-.2.2-.5.4-.7.5-.2,0-.6.2-.9.4-.3,0-.6.1-.9.2-.3,0-.6.2-.8.4-1.3.7-3,1.8-5.1,3.4s-4.2,3.2-6,4.8l-1.7,1.5-1.1,2.6c-3.1,6.3-6.2,11.2-9.1,14.4-2.1,2.1-3.8,2.9-5,2.3-1-.6-1.4-1.6-.9-3.2,1-3.5,5.3-8.5,12.7-15.1l2.2-2,.6-1.5c.7-1.8,1.1-3.5,1.4-5s0-2.3-.3-2.4c-.2,0-.7.2-1.4.7s-1.4,1-2.1,1.6c-.3.2-.8.7-1.4,1.3s-1.3,1.2-1.8,1.8c-1.8,1.8-3.2,3.2-4.2,3.9s-1.7,1.1-2.4,1.1-.7,0-1-.2-.6-.5-.8-.7c-.7-1.5-.5-3.5.6-6.2s2.7-5.5,5-8.2c3.4-4,5.8-5.1,7.2-3.4,0,0,.1.2.2.5,0,.2.1.5.2.7,0,.2.1.6,0,.9s0,.6-.2,1c-.2,1.1-.7,2.2-1.4,3.2-.6,1-1.3,1.7-1.8,2.1-.8.5-1.6.5-2.2,0l.3-.2ZM445.2,251c.5-.7.9-1.6,1.5-2.4.5-.9.9-1.7,1.3-2.3.3-.6.6-1.1.6-1.1,0,0-.5.4-1.3,1.1s-1.6,1.6-2.6,2.7-1.9,2.1-2.9,3.2c-.9,1-1.6,1.8-1.9,2.3s-.6.7-1,1.5-.9,1.5-1.3,2.2c-.3.7-.5,1.2-.3,1.5s.7,0,1.7-.7c1.8-1.3,3.9-4,6.3-7.8h0ZM445.9,226.5c-.3.2-.6.5-.8.9-.2.2-.3.5-.3.6s0,0,.1,0c0,0,.2-.2.5-.4.1-.1.3-.2.5-.5.1-.1.2-.4.3-.5l.3-.6-.7.5h.1Z"/>
      <path class="st0" d="M465.4,244.7h-.2c-.5,0-.9-.1-1.3-.5-.5-.5-.7-1.3-.7-2.3v-1.6c.1-1.5.6-3.3,1.5-5.5,1-2.9,1.9-4.6,2.4-5.2.3-.2.7-.4,1.3-.4.9,0,1.3.6,1.4,1.7,0,.7-.6,1.6-1.7,2.4-.3.2-.6.5-.8.6-.6.7-1.1,2-1.6,3.8-.3,1.3-.5,2.7-.5,3.9s.1,1.1.5,1.1c.6,0,2.6-2,6.3-5.9,1.3-1.3,2.3-2.4,3.1-3.2s1.4-1.2,1.7-1.5.7-.4.9-.4c.5,0,.8.2,1,.6.2.4.3,1.1.5,2.1,0,.9.1,1.5.3,1.8.1.4.5.6,1,.6s1.8-.4,3.2-1.1c1.4-.7,2.6-1.7,3.9-3s.9-1.1.9-1.5c0-.6.2-1.1.6-1.6s.8-.7,1.3-.7.8,0,1.1.4c.3.2.6.5.6.9,0,.9-.6,1.8-1.7,2.8s-2.5,2-3.9,2.8c-1.5.9-2.5,1.5-3.2,1.7-1.3.5-2.3.9-3.2.9s-1.5-.4-1.9-1.2c-.3-.6-.6-1.3-.6-2.2s0-1.1-.3-1.1c0,0-1.7,1.6-4.7,4.8-1.6,1.6-2.7,2.9-3.7,3.8-1.5,1.5-2.6,2.2-3.4,2.3h0Z"/>
      <path class="st0" d="M489.6,241.7h-.9c-1.8-.4-3-1.5-3.3-3.2v-.4c0-2,.9-4.1,2.7-6.6s3.8-3.9,5.8-4.5h.3c.2,0,.5,0,.9.4.9.6,1.4,1.7,1.4,3s-.2,2-.8,3.2-1.4,2.3-2.4,3.2c-.5.4-.9.5-1.3.5s-.9-.2-1.3-.9c0-.1-.1-.4-.2-.5v-2.7c0-1,0-1.5-.2-1.5s-.2,0-.5.2c-.9,1-1.7,2.2-2.3,3.7-.5,1-.7,1.8-.7,2.6,0,1.2,1,1.8,3.1,1.8s4.6-1,7.8-2.9c2.1-1.3,4-2.7,5.7-4.3,1.6-1.5,2.4-2.4,2.6-3.2,0-.2.2-.5.3-.7.2-.5.7-.7,1.3-.7s.8.1,1.4.5c.7.4.9.9.9,1.6s-.5,1.2-1.5,1.8c-.5.2-1.7,1-3.5,2.3-5.7,4-9.9,6.3-12.7,7-1.1.2-1.9.5-2.6.5v-.2ZM493.1,234.2c1.1-1.6,1.7-2.9,1.7-4.1s-.1-1-.5-1-.3.2-.3.6v1.1c0,.5,0,.9-.3,1.3-.2.6-.5,1.1-.5,1.5v.6h-.1Z"/>
    </g>
    <g>
      <g>
        <path d="M347.8,72.7c-.1,1.6-.7,3.7-1.6,6.3-.3,1.1-.6,2.1-.8,2.9-.2.9-.3,1.2-.3,1.3,0,0,.8,0,2.1-.5,1.3-.4,2.9-.9,4.7-1.5,11.5-3.8,22.7-6.3,33.4-7.8,10.8-1.5,19.6-1.6,26.6-.4,5.8,1,9.1,4,9.9,9.1.5,2.2.1,3.9-.9,5.2-1.7,2-3.4,2-5.3,0s-.7-.9-.8-1.2-.2-1-.2-1.8,0-1,.1-1.5c0-.5.2-.9.3-1.1,1.6-2.8-1.3-4.8-8.3-6-2.3-.2-5.9-.4-10.8-.2-4.9,0-9,.4-12.3.9-8,1.1-15.8,2.8-23.3,5.1-2.3.6-4.7,1.3-7.1,2.2-2.5.9-4.6,1.5-6.4,2.1s-2.9,1-3.1,1.1c-.1.1-.8,1.5-1.8,4s-2.4,5.5-3.9,9.1c-1.7,4.1-3.9,9.4-6.4,15.7-2.1,5.1-4.1,9.9-5.9,14.3-9,21.7-15.8,39-20.5,51.7-4.7,12.7-8.6,24.3-11.5,34.6-.6,2.1-1.1,4-1.7,6s-.9,3.3-1.1,4.3l-.8,3.2v.4c-.2.4.2.5,1.4.5,3,0,4.2,1.7,4,5.1,0,.6-.2,1.2-.5,2s-.8,1.5-1.4,2.6c-.5.7-1.1,1.8-2.2,3.2s-2.1,2.4-3.1,3.5c-1,1-1.9,1.3-2.7,1-.8-.4-1.1-1.7-1.1-4.3.2-4.3,2.1-12.3,5.5-24.2,3.4-11.8,7.8-24.9,12.8-38.9,2.6-7.2,5.3-14.3,8.1-21.5,2.7-7.2,7.1-17.8,12.8-32,.9-2.2,1.7-4.1,2.4-5.7.7-1.6.9-2.4.9-2.4,0,0,0-.1-.3-.2-.2,0-.6-.2-.9-.2-2.6-.7-3.8-2.8-3.5-6.1.3-2.6,1.9-6.8,4.7-12.9.6-1.3,1.1-2.6,1.7-3.7s.8-1.7.9-2c.1-.2.2-.5.3-.6v-.4c-.1,0-1,.2-2.6.9s-3.5,1.5-5.8,2.4c-2.4,1-4.8,2.1-7.2,3.2-9.7,4.5-19.5,9.6-29.2,15.4-9.8,5.7-18,11.2-24.7,16.6-5.7,4.5-10.5,9-14.6,13.4-4,4.4-6,7.4-6,9.1s3.8,1.7,11.4-.7c9.2-2.8,19.6-7,31.2-12.4,12.7-6,20.1-10.4,22.1-13.1,1.5-1.8,3-2.3,4.5-1.3.7.4,1.3,1,1.6,1.7.5.7.6,1.6.6,2.4s-.3,1.6-.9,2.4-1.3,1.3-2.2,1.6c-.5.1-1.4.6-2.7,1.3-1.4.7-3,1.5-4.6,2.3-11.4,5.6-22.9,10.5-34.7,14.8-11.8,4.3-19.6,6.3-23.7,6.3s-5.4-1.3-5.6-4.1c0-1.1,0-2.1.3-3s.9-2.3,1.9-3.8c5.6-8.4,16.4-17.8,32.4-28.3s34-20,54.1-28.5l7.1-2.9,3.4-6c2.9-5,5-8.4,6.5-10.4,1.5-2,2.6-2.9,3.4-2.9s.3,0,.7.2c.2.1.6.4.8.6l.6.6c0,.2.2.5.2.9v1.6-.7Z"/>
        <path d="M339.7,191.7c-1,0-1.8-.1-2.4-.5-2.3-1.3-3.5-3.8-3.5-7.6s.6-6.2,1.7-10.6h0c0-.1-1.1.9-3.2,2.8-4.7,4.5-8.3,6.7-10.8,6.7s-2.5-.9-3.2-2.4c-.2-.9-.5-1.7-.5-2.7,0-2.6,1.1-5.5,3.4-8.7,4.2-5.1,8.6-7.7,13.1-7.7s5,1.1,6.5,3.4c.2.4.3.9.3,1.6,0,2-.3,3.4-1,4.4s-1.3,2.3-1.8,4.1c-1.1,3.9-1.7,7-1.7,9.3s.3,2.9,1.1,3.8c.6.7,1.3,1.1,1.9,1.1,2.6,0,7.3-2.8,14-8.5,2.5-2.1,4.2-3.9,5.3-5.2,1-1.3,1.5-2.8,1.5-4.1s.3-2.3,1-2.9,1.3-.9,1.9-.9c1,0,1.8.6,2.3,1.7.2.7.3,1.3.3,2.1,0,2-.6,3.3-1.7,4-.5.2-1.8,1.3-4,3.4-3.4,3.2-6.7,6-10,8.4s-5.7,3.9-7.4,4.4c-1,.4-2.1.5-3.2.5h0ZM321.4,179.3c1.3,0,3.4-1.6,6.7-4.6,2.9-2.7,4.5-4.6,5-5.7.1-.4.2-1,.2-1.8s-.5-1.6-1.5-1.6-2.2.5-3.8,1.6c-3.2,2.2-5.4,4.8-6.5,7.8-.6,1.5-.9,2.6-.9,3.4s.2,1,.8,1h-.1Z"/>
        <path d="M354.5,198.6c-.8-.7-.5-3.2,1-7.3,1-3.3,1.9-5.9,2.6-7.9.7-2,1.1-3.5,1.5-4.6s.5-1.8.6-2.3v-1c-.5-1.8-.3-3.4.6-5.1.9-1.6,2.1-2.4,3.5-2.4s2.3.6,2.7,1.7c.6,1.1.7,2.4.5,3.9s-.8,2.8-1.8,4c-.3.4-.6.9-.9,1.1s-.3.6-.3.7-.2.6-.6,1.6c-.5,1-.9,2.2-1.5,3.7-.6,1.3-1,2.6-1.4,3.4-.3,1-.6,1.5-.6,1.5,0,0,.3-.2.8-.9.5-.6,1.1-1.3,1.8-2.2,1.6-1.8,3.5-4,5.9-6.5s4.6-4.6,6.6-6.3c1.7-1.5,3.3-2.6,4.8-3.4s2.6-1.1,3.5-1c2.2.4,3.7,2.8,4.5,7.3,1,5.7,2.4,8.9,4.3,9.6,1.8.7,5.1-.2,9.7-2.9,3.9-2.2,7.3-4.5,10.3-7s4.9-4.6,6-6.6c1.1-2.3,2.5-3.5,4.2-3.5s1.9.5,2.5,1.5c.5,1,.7,2.1.5,3.3s-.9,2.1-1.9,2.8c-.2.1-.8.5-1.4,1s-1.4.9-1.9,1.3c-13.9,9.1-22.8,13.8-26.8,13.8s-3.5-.7-5-2.2c-1.5-1.5-2.7-4.5-3.8-9.3-.8-3.7-1.5-5.4-2.1-5.4s-1.3.5-2.6,1.6c-1.4,1-2.9,2.2-4.3,3.4-1.9,1.8-4.2,4-6.7,6.8-2.5,2.8-4.9,5.5-7.2,8.4-1.1,1.5-2.1,2.7-3,3.8-.9,1-1.4,1.6-1.6,1.7-.5.2-.9.4-1.5.4s-.9-.2-1.1-.5h-.5Z"/>
        <path d="M422.4,165.5c.8-.7,1.7-1.1,2.7-1s1.9.7,2.5,1.6c.6,1.1.7,2.6.3,4.3-.3,1.7-1.1,2.8-2.3,3.5-.6.2-1.3,1.1-1.9,2.4s-1.5,3.4-2.5,6.3c-2.6,7.7-3.2,12.4-1.5,14.5.2.2.6.5.9.6s.9,0,1.8,0c4-.4,11.4-5,22.3-13.7,9-7.2,13.5-11.7,13.5-13.7s.8-3.3,2.5-4.1c1.7-.9,3.3-.7,4.9.5.6.6.9,1.5,1,2.6,0,1,0,2-.6,2.8-.2.5-.7,1-1.1,1.5-.5.5-1,.9-1.5,1.3-.6.4-.9.6-1.3.6s-1.4.5-2.7,1.3c-1.4,1-3.5,2.6-6.3,4.9-15.1,12-24.8,18.3-29.1,19.3-1,.2-1.8.5-2.5.5s-1.3-.1-1.9-.5c-.3-.1-.8-.4-1.3-.6s-.7-.5-.9-.9c-.6-.6-1-1.6-1.4-2.8-.3-1.2-.6-2.3-.6-3.4s.2-2.8.6-4.9.9-4.1,1.5-6.2c.9-3,1.5-5.4,1.9-7,.3-1.6.6-2.8.6-3.8s.2-2.1.7-3.3.9-2.1,1.6-2.7h0ZM432.8,155.9c-.6,1.2-1.5,2.1-2.5,2.4-1,.4-2.2.2-3.2-.5-1.1-.9-1.7-2-1.8-3.3,0-1.3.2-2.6,1-3.8.8-1.1,1.8-1.7,3.2-1.7s2.7.7,3.5,2.3c.7,1.5.6,2.9-.1,4.5h-.1Z"/>
        <path d="M478.9,191.7c-1,0-1.8-.1-2.4-.5-2.3-1.3-3.5-3.8-3.5-7.6s.6-6.2,1.7-10.6h0c0-.1-1.1.9-3.2,2.8-4.7,4.5-8.3,6.7-10.8,6.7s-2.5-.9-3.2-2.4c-.2-.9-.5-1.7-.5-2.7,0-2.6,1.1-5.5,3.4-8.7,4.2-5.1,8.6-7.7,13.1-7.7s5,1.1,6.5,3.4c.2.4.3.9.3,1.6,0,2-.3,3.4-1,4.4s-1.3,2.3-1.8,4.1c-1.1,3.9-1.7,7-1.7,9.3s.3,2.9,1.1,3.8c.6.7,1.3,1.1,1.9,1.1,2.6,0,7.3-2.8,14-8.5,2.5-2.1,4.2-3.9,5.3-5.2,1-1.3,1.5-2.8,1.5-4.1s.3-2.3,1-2.9,1.3-.9,1.9-.9c1,0,1.8.6,2.3,1.7.2.7.3,1.3.3,2.1,0,2-.6,3.3-1.7,4-.5.2-1.8,1.3-4,3.4-3.4,3.2-6.7,6-10,8.4s-5.7,3.9-7.4,4.4c-1,.4-2.1.5-3.2.5h0ZM460.7,179.3c1.3,0,3.4-1.6,6.7-4.6,2.9-2.7,4.5-4.6,5-5.7.1-.4.2-1,.2-1.8s-.5-1.6-1.5-1.6-2.2.5-3.8,1.6c-3.2,2.2-5.4,4.8-6.5,7.8-.6,1.5-.9,2.6-.9,3.4s.2,1,.8,1h-.1Z"/>
        <path d="M534.6,131.5c.5-.6,1.4-1.5,2.7-2.6,1.4-1.1,2.7-2.2,4.1-3,1.5-1,2.6-1.5,3.4-1.6.6,0,3.7-1.6,9.2-4.6,2.4-1.3,5-2.8,7.8-4.4,2.9-1.6,5.1-2.8,7.1-3.9l6.5-3.4.8-2c.2-.6.8-1.8,1.4-3.5s1.4-3.7,2.2-5.7l2.7-7.3-1.3-1.3c-.6-.5-1-1-1.1-1.3s-.2-1-.2-1.8.2-1.8.7-2.8c.5-.9,1.4-2,2.5-3.3.8-1,1.6-1.6,2.3-2,.7-.4,1.4-.5,2.2-.4,1.7.5,2.5,1.7,2.5,3.4s-2.4,8.4-7.3,19.8c-.6,1.5-1.1,2.7-1.5,3.8-.3,1-.6,1.6-.6,1.6,0,0,.5,0,1-.4.6-.2,1.3-.6,2.1-1,5.8-2.9,12.3-6,19.5-9.3,7.2-3.3,14-6.2,20.5-8.9,2.4-1,4.9-2.1,7.5-3,2.6-1.1,4.7-2,6.3-2.6,1.5-.6,2.9-1.2,4-1.6s1.8-.6,2.1-.6c.5,0,.9.2,1.4.7s.7,1,.7,1.5-.3,1.1-.9,2.2-1.3,2.2-1.9,3.2c-.7,1-1.3,1.7-1.7,2.1-1,.6-2.2.9-3.2.5-1-.4-1.8-1.1-2.4-2.3,0-.2-.2-.6-.3-.9,0-.2-.1-.4-.1-.5-.2,0-1.8.6-4.7,1.7s-6.2,2.4-9.9,4-7.1,2.9-9.9,4.3c-4.2,1.8-8.8,3.9-13.7,6.3s-9.1,4.5-12.8,6.5c-3.7,2-5.7,3-6,3.4-.1.2-.6,1.1-1.3,2.6s-1.5,3.2-2.3,5.2c-.9,2.2-2.5,5.7-4.7,10.5-2.2,4.9-4.6,9.9-7,15-2.5,5.4-4.6,9.8-6,13.2s-2.2,5.1-2.1,5.1.7-.1,1.6-.5,2.1-.7,3.2-1.3c3.4-1.3,8.1-3.2,14.2-5.2,6-2.2,12.4-4.4,19.2-6.6,4.8-1.6,8.4-2.9,11.2-3.8,2.7-1,4.7-1.7,5.9-2.2,1.3-.5,2.2-1,2.6-1.3,1.5-1.1,2.9-1.3,4-.7,1.5.6,2.2,1.7,2.2,3.4s-.2,1.8-.8,2.4h-.1c-.1.4-.3.5-.5.6-.1,0-.3.2-.7.2s-.7,0-1.3.1h-3.1c-1.6,0-3,0-4.1.2s-2.7.5-4.6,1.1c-5.3,1.5-11.3,3.4-18,5.6-6.7,2.3-12.9,4.5-18.4,6.8-1.9.7-4.1,1.7-6.4,2.7-2.3,1-4.3,2-6,2.8-1.7.9-2.7,1.3-3.1,1.6,0,0-.6,1-1.4,2.6-.8,1.6-1.7,3.4-2.7,5.6-7.9,16.8-14.5,32.9-19.9,48.6,0,0,0,.2-.1.4-.2.9-.7,2.1-1.3,3.8s-1.1,3.5-1.7,5.4-.9,3.4-1.1,4.8,0,2,.3,2.1c1,0,1.9.4,2.7,1.2.8.9,1.1,1.7,1.1,2.9s-.5,2.1-1.5,3-2.2,1.7-3.4,2.1-2.4.4-3.2-.1c-2.1-1-2.1-4.8,0-11.5,2.5-8.1,5.8-17.4,10-28.1,4.2-10.7,8.6-20.9,13.1-30.6,2.9-6,4.1-8.9,3.7-8.9s-.5.2-1.1.6-1.5.9-2.3,1.3c-.9.6-1.6,1.1-1.9,1.5-.5.4-.8.7-.9,1-.2.4-.3.7-.6,1.2-.5,1.6-1.4,2.6-2.5,3s-2.4.4-3.7-.5c-1.5-1.1-2.2-2.4-1.9-3.9.1-1.6,1-2.7,2.7-3.4.6-.2,1.8-.9,3.8-1.7,1.8-1,3.9-2,5.9-2.9,2.1-1.1,3.8-2,5-2.6l1.4-.7,8.1-17.7c10-22,14.8-32.9,14.4-32.9-.7,0-5.5,2.9-14.5,8.4-2.2,1.3-3.9,2.3-5.1,3s-2.1,1.3-2.6,1.8-.9.9-1,1.1c-.1.2-.2.6-.3,1.1-.2,1.8-1.7,3.5-4.3,5.1-3.1,2-5.4,2.8-7.1,2.8s-1.1,0-1.5-.2c-.3-.1-.7-.5-1.1-1-1.3-1.5-1.5-2.9-.5-4.4l-.2.2Z"/>
        <path d="M610.4,193.4c-.6,0-1.3,0-1.8-.1-3.8-.7-5.9-2.8-6.6-6.3v-.7c0-3.9,1.8-8.4,5.5-13.2,3.7-4.9,7.5-7.8,11.6-9h.7c.5,0,1,.1,1.7.7,1.8,1.3,2.9,3.3,2.9,6.1s-.6,3.9-1.6,6.3-2.6,4.5-4.7,6.3c-.9.7-1.8,1.1-2.5,1.1s-1.8-.6-2.6-1.8c-.1-.2-.3-.6-.3-1s-.1-.9-.1-1.5v-3.9c0-2-.1-3-.5-3s-.5.1-.8.5c-1.9,2-3.5,4.5-4.7,7.3-.9,2.1-1.4,3.8-1.4,5,0,2.3,2.1,3.5,6,3.5s9.1-2,15.4-6c4.2-2.6,8-5.4,11.4-8.4,3.1-2.8,4.9-5,5.4-6.3.2-.5.5-1,.8-1.5.6-1,1.4-1.5,2.6-1.5s1.6.2,2.6.9c1.3.7,1.9,1.8,1.9,3.3s-1,2.6-3.1,3.8c-.9.5-3.3,2-7.2,4.6-11.3,8.2-19.7,12.8-25.3,13.9-2.2.6-4,.9-5.3.9h-.1ZM617.3,178.2c2.3-3.2,3.5-5.9,3.5-8.3s-.3-2-.9-2-.7.4-.7,1.2v2.1c0,.9-.1,1.8-.7,2.7-.6,1.1-.9,2.1-1,2.9l-.2,1.2h0Z"/>
        <path d="M661,199.3c-2.3,0-4-.9-5.1-2.4-.9-1.3-1.4-4-1.4-7.9v-4c0-3.8-.3-6.3-1-7.9-.8-1.6-2.6-2.7-5.6-3.5-3.2-1-4.8-2.9-4.8-5.6s.1-2,.5-3c.7-2.2,1.7-3.9,3.2-5,1-.9,2.1-1.2,3.2-1.2s.9,0,1.3.1c2.2.9,3.3,2.7,3.3,5.6s-.1,2.4-.5,3.5c-.3,1.8-.6,2.9-.6,3.4,0,.7.3,1.3,1.1,1.8,1.4,1.3,2.3,2.8,2.6,4.4.1,1,.3,3.8.5,8.3,0,5.2.3,8.3.8,8.9.5,1,1.4,1.5,2.6,1.5,1.9,0,4.6-1.2,7.8-3.8,4.7-3.8,8.8-8.1,12.1-12.6,3.4-4.5,5.3-8.3,5.7-11.3,0-.9.3-1.8.8-2.8.7-1.8,1.7-2.7,2.9-2.7s.8,0,1.3.4c1.1.7,1.7,2,1.7,3.4v1.6c0,1-.8,2-2.1,3.2-.6.4-1.5,1.6-2.7,3.4-4.3,7-9.5,12.9-15.3,17.9-5.1,4.4-9,6.6-11.8,6.6h-.5ZM646.8,168.4c.6,0,1.3-.7,2.1-2.3.5-1.2.8-2.1.8-2.8s0-.7-.3-.7-.8.4-1.4,1.1-.9,1.5-1.1,2.2c-.2.7-.3,1.3-.3,1.8s0,.7.3.7Z"/>
        <path d="M699,199.3c-2.3,0-4-.9-5.1-2.4-.9-1.3-1.4-4-1.4-7.9v-4c0-3.8-.3-6.3-1-7.9-.8-1.6-2.6-2.7-5.6-3.5-3.2-1-4.8-2.9-4.8-5.6s.1-2,.5-3c.7-2.2,1.7-3.9,3.2-5,1-.9,2.1-1.2,3.2-1.2s.9,0,1.3.1c2.2.9,3.3,2.7,3.3,5.6s-.1,2.4-.5,3.5c-.3,1.8-.6,2.9-.6,3.4,0,.7.3,1.3,1.1,1.8,1.4,1.3,2.3,2.8,2.6,4.4.1,1,.3,3.8.5,8.3,0,5.2.3,8.3.8,8.9.5,1,1.4,1.5,2.6,1.5,1.9,0,4.6-1.2,7.8-3.8,4.7-3.8,8.8-8.1,12.1-12.6,3.4-4.5,5.3-8.3,5.7-11.3,0-.9.3-1.8.8-2.8.7-1.8,1.7-2.7,2.9-2.7s.8,0,1.3.4c1.1.7,1.7,2,1.7,3.4v1.6c0,1-.8,2-2.1,3.2-.6.4-1.5,1.6-2.7,3.4-4.3,7-9.5,12.9-15.3,17.9-5.1,4.4-9,6.6-11.8,6.6h-.5ZM684.8,168.4c.6,0,1.3-.7,2.1-2.3.5-1.2.8-2.1.8-2.8s0-.7-.3-.7-.8.4-1.4,1.1-.9,1.5-1.1,2.2c-.2.7-.3,1.3-.3,1.8s0,.7.3.7Z"/>
        <path d="M727.5,193.4c-.6,0-1.3,0-1.8-.1-3.8-.7-5.9-2.8-6.6-6.3v-.7c0-3.9,1.8-8.4,5.5-13.2,3.7-4.9,7.5-7.8,11.6-9h.7c.5,0,1,.1,1.7.7,1.8,1.3,2.9,3.3,2.9,6.1s-.6,3.9-1.6,6.3-2.6,4.5-4.7,6.3c-.9.7-1.8,1.1-2.5,1.1s-1.8-.6-2.6-1.8c-.1-.2-.3-.6-.3-1s-.1-.9-.1-1.5v-3.9c0-2-.1-3-.5-3s-.5.1-.8.5c-1.9,2-3.5,4.5-4.7,7.3-.9,2.1-1.4,3.8-1.4,5,0,2.3,2.1,3.5,6,3.5s9.1-2,15.4-6c4.2-2.6,8-5.4,11.4-8.4,3.1-2.8,4.9-5,5.4-6.3.2-.5.5-1,.8-1.5.6-1,1.4-1.5,2.6-1.5s1.6.2,2.6.9c1.3.7,1.9,1.8,1.9,3.3s-1,2.6-3.1,3.8c-.9.5-3.3,2-7.2,4.6-11.3,8.2-19.7,12.8-25.3,13.9-2.2.6-4,.9-5.3.9h-.1ZM734.5,178.2c2.3-3.2,3.5-5.9,3.5-8.3s-.3-2-.9-2-.7.4-.7,1.2v2.1c0,.9-.1,1.8-.7,2.7-.6,1.1-.9,2.1-1,2.9l-.2,1.2h0Z"/>
        <path d="M763.6,165.5c.8-.7,1.7-1.1,2.7-1s1.9.7,2.5,1.6c.6,1.1.7,2.6.3,4.3s-1.1,2.8-2.3,3.5c-.6.2-1.3,1.1-1.9,2.4-.7,1.3-1.5,3.4-2.5,6.3-2.6,7.7-3.2,12.4-1.5,14.5.2.2.6.5.9.6s.9,0,1.8,0c4-.4,11.4-5,22.3-13.7,9-7.2,13.5-11.7,13.5-13.7s.8-3.3,2.5-4.1c1.7-.9,3.3-.7,4.9.5.6.6.9,1.5,1,2.6,0,1,0,2-.6,2.8-.2.5-.7,1-1.1,1.5-.5.5-1,.9-1.5,1.3-.6.4-.9.6-1.3.6s-1.4.5-2.7,1.3c-1.4,1-3.5,2.6-6.3,4.9-15.1,12-24.8,18.3-29.1,19.3-1,.2-1.8.5-2.5.5s-1.3-.1-1.9-.5c-.3-.1-.8-.4-1.3-.6s-.7-.5-.9-.9c-.6-.6-1-1.6-1.4-2.8s-.6-2.3-.6-3.4.2-2.8.6-4.9.9-4.1,1.5-6.2c.9-3,1.5-5.4,1.9-7,.3-1.6.6-2.8.6-3.8s.2-2.1.7-3.3c.5-1.2.9-2.1,1.6-2.7h0ZM774,155.9c-.6,1.2-1.5,2.1-2.5,2.4s-2.2.2-3.2-.5c-1.1-.9-1.7-2-1.8-3.3,0-1.3.2-2.6,1-3.8.8-1.1,1.8-1.7,3.2-1.7s2.7.7,3.5,2.3c.7,1.5.6,2.9-.1,4.5h-.1Z"/>
        <path d="M816.1,199.3c-2.3,0-4-.9-5.1-2.4-.9-1.3-1.4-4-1.4-7.9v-4c0-3.8-.3-6.3-1-7.9-.8-1.6-2.6-2.7-5.6-3.5-3.2-1-4.8-2.9-4.8-5.6s.1-2,.5-3c.7-2.2,1.7-3.9,3.2-5,1-.9,2.1-1.2,3.2-1.2s.9,0,1.3.1c2.2.9,3.3,2.7,3.3,5.6s-.1,2.4-.5,3.5c-.3,1.8-.6,2.9-.6,3.4,0,.7.3,1.3,1.1,1.8,1.4,1.3,2.3,2.8,2.6,4.4.1,1,.3,3.8.5,8.3,0,5.2.3,8.3.8,8.9.5,1,1.4,1.5,2.6,1.5,1.9,0,4.6-1.2,7.8-3.8,4.7-3.8,8.8-8.1,12.1-12.6,3.4-4.5,5.3-8.3,5.7-11.3,0-.9.3-1.8.8-2.8.7-1.8,1.7-2.7,2.9-2.7s.8,0,1.3.4c1.1.7,1.7,2,1.7,3.4v1.6c0,1-.8,2-2.1,3.2-.6.4-1.5,1.6-2.7,3.4-4.3,7-9.5,12.9-15.3,17.9-5.1,4.4-9,6.6-11.8,6.6h-.5ZM801.8,168.4c.6,0,1.3-.7,2.1-2.3.5-1.2.8-2.1.8-2.8s0-.7-.3-.7-.8.4-1.4,1.1-.9,1.5-1.1,2.2c-.2.7-.3,1.3-.3,1.8s0,.7.3.7Z"/>
        <path d="M861.3,191.7c-1,0-1.8-.1-2.4-.5-2.3-1.3-3.5-3.8-3.5-7.6s.6-6.2,1.7-10.6h0c0-.1-1.1.9-3.2,2.8-4.7,4.5-8.3,6.7-10.8,6.7s-2.5-.9-3.2-2.4c-.2-.9-.5-1.7-.5-2.7,0-2.6,1.1-5.5,3.4-8.7,4.2-5.1,8.6-7.7,13.1-7.7s5,1.1,6.5,3.4c.2.4.3.9.3,1.6,0,2-.3,3.4-1,4.4s-1.3,2.3-1.8,4.1c-1.1,3.9-1.7,7-1.7,9.3s.3,2.9,1.1,3.8c.6.7,1.3,1.1,1.9,1.1,2.6,0,7.3-2.8,14-8.5,2.5-2.1,4.2-3.9,5.3-5.2,1-1.3,1.5-2.8,1.5-4.1s.3-2.3,1-2.9,1.3-.9,1.9-.9c1,0,1.8.6,2.3,1.7.2.7.3,1.3.3,2.1,0,2-.6,3.3-1.7,4-.5.2-1.8,1.3-4,3.4-3.4,3.2-6.7,6-10,8.4-3.3,2.4-5.7,3.9-7.4,4.4-1,.4-2.1.5-3.2.5h0ZM843.1,179.3c1.3,0,3.4-1.6,6.7-4.6,2.9-2.7,4.5-4.6,5-5.7.1-.4.2-1,.2-1.8s-.5-1.6-1.5-1.6-2.2.5-3.8,1.6c-3.2,2.2-5.4,4.8-6.5,7.8-.6,1.5-.9,2.6-.9,3.4s.2,1,.8,1h-.1Z"/>
      </g>
      <path d="M333.8,150.5c1.9-2.2,3.8-4.3,5.7-6.5h-1.8c2.2,2.6,4.2,5.2,6.4,7.8s1.4.5,1.8,0,.5-1.3,0-2c-2.2-2.6-4.2-5.2-6.4-7.8s-1.4-.5-1.8,0c-1.9,2.2-3.8,4.3-5.7,6.5s.7,3.2,1.8,2h0Z"/>
    </g>
  </g>
  <g>
    <path d="M143.3,89.9c2.2,1.7,2.5-1.8,3.5-2.9,27.6-30.4,55.3-7.6,58.6,26.6,2.3,23.3-3.5,44.6-14.3,65-1.6,3-7.9,10.7-7.6,13.2,14.4,9.4,33.5,28.5,21.3,46.7-14.3,21.3-51,7.1-67.9-4.1-15.2,11.7-62.5,27.7-65.1-3.2-1.3-16.5,11.8-26.4,21.7-37-14.9-24.9-24.1-49.7-21.7-79.3,3.2-41.5,40.1-60.8,70.3-27.6.8.9,1,2.8,1.1,2.9h0ZM103.9,74.1c-8.2,1.4-16,8.7-20.2,15.5-15.8,25.7-8.5,62.6,4.9,87.9,1.1,2.1,7.7,13.5,9.2,13.6,7.9-5.3,40.5-28.3,41.8-36.3s-5.8-14.4-6.4-18.5c-2-15.2.9-30.4,8.8-43.4-8.7-11.6-23-21.5-38.2-18.9h0ZM181.3,189c17.5-26.1,30.2-64.1,16.7-94.5-9.6-21.5-32.3-25-48.4-8.1-6.6,6.9-2.3,6.4,0,12.7,5.5,14.7,6,29.3.3,44-1,2.6-6.5,11.9-6.5,12.8.6,6.1,22.6,23.1,28.2,27.1,1.4,1,8.7,6.6,9.6,6h0ZM144.4,95.7c-1.8-1.7-2,.6-2.6,1.4-9.7,14.9-10.9,40.2-.3,54.9,9-12.8,11.6-28.2,7.7-43.4-.4-1.7-4.3-12.6-4.8-13h0ZM143.3,157.9l-42.7,37.4c9.5,13.7,22.3,25,36.3,34,1.8,0,18.7-13.3,21.4-15.6,2.6-2.2,19.3-19.5,19.5-21s-.9-1.9-1.7-2.7c-5.6-5.9-16.8-11.9-23.1-18.4-3.3-3.5-7.9-9.4-9.8-13.8h0ZM141,232.8c14.8,8.7,45.6,21.1,59.4,5.8,14.2-15.6-5.5-35.4-18.5-43.9l-40.9,38h0ZM133,232.8l-36.3-35.7c-11.8,8.4-30,29.3-16.7,43.1,12.5,13,40-.3,52.9-7.5h.1Z"/>
    <g>
      <path class="st0" d="M143.4,89.8c2,1.6,2.2-1.9,3.2-2.9,30.2-33.2,59.5-3.5,60.4,32.7,1.2,21-4.9,41.7-14.9,60-2.1,3.6-4.9,6.7-6.8,10.3-.2.6-.7,1.3-.7,1.9l-.6-.8c4.7,3.1,9,6.6,12.9,10.6,7.6,7.8,14.6,18.7,11.7,30.1-3,11.5-13.9,18.2-25.3,18.5-16.4.4-33.2-6.4-46.9-14.9h1c-8.4,6.2-18.1,10.3-28,13-9.9,2.5-21.6,4.2-30.9-1.6-7.2-4.7-9.2-13.9-8.1-22,1.1-8,5.9-15,11.3-20.7,3.5-3.9,7.1-7.4,10.6-11l-.2,2.1c-14.6-23.5-24.4-51.3-21.7-79.2,1.4-29.6,25.4-57.1,56.1-41.5,4.3,2.2,8.5,5.3,11.9,8.7,1.4,1.3,2.8,2.8,4.1,4.2.6.8.9,2,1,2.7h-.1ZM143.2,90h0v-.3c-.2-.8-.4-1.7-1-2.3-1.3-1.4-2.7-2.9-4.1-4.1-6.4-6-14.3-10.7-23.1-12-21-3.2-36.2,14.3-40.1,33.3-1.7,7.6-1.9,15.4-1.7,23.1.8,24,10.3,46.5,22.6,66.8l-.9,1c-8.4,9-19.2,17.2-21.3,29.9-3.5,30.4,31.5,23.7,49.6,15.8,4.8-2.1,9.6-4.5,13.7-7.7,4.7,3.2,9.7,5.9,14.8,8.2,13.8,6.1,33.2,11.8,46.8,2.7,6.6-4.7,10.6-12.9,9.4-21-2.5-13.4-14.2-23.4-25-30.5l-.4-.3c-.3-2.5,1.1-4.3,2.2-6.2,3.1-4.7,6-8.9,8.1-14,7.7-16.4,12.3-34.3,11.6-52.5,0-35.1-27.5-64.9-57.5-32.5-1,1.1-1.4,4.7-3.7,2.9h-.1Z"/>
      <path class="st0" d="M103.9,74.2c-16.9,3.8-24.9,22.7-26.9,38.3-3.3,25.1,4.3,58.3,20.7,77.9,6.2-4.2,16.4-12.1,23.5-18.2,3.8-3.2,7.6-6.5,11-10,2.2-2.3,4.6-4.6,5.7-7.5-1.1-3.3-3.9-9.7-5.3-14.2-2.1-6.1-1.9-13-1.6-19.4.9-10.3,4.2-20.4,9.8-29v1.6c-8.1-11.8-22.1-22.1-37.1-19.5h.1ZM103.8,73.8c15.3-2.6,30.1,6.7,39.3,18.3l.6.7-.4.9c-7.4,12.7-10.1,28-8.1,42.5,1.3,6.1,4.2,11.8,6.1,17.8,1.2,7.1-24.4,24.7-30.5,29.1-4.2,2.9-8.5,5.8-12.7,8.6-.4,0-.8-.2-1-.4-3.8-4-6.2-9.1-9-13.8-7.8-15-13.6-31.3-14.6-48.4-.9-13.5,1.8-27.4,9.1-38.9,4.8-7.7,12.3-14.5,21.4-16.3h-.1Z"/>
      <path class="st0" d="M181.2,188.8c15.2-25.9,26.5-58.1,18.4-88-1.3-4.1-2.9-8.4-5.3-11.9-6-9.5-17.2-14.5-28.1-11.5-6.2,1.8-11.7,5.7-16,10.5-1.1,1.3-2.7,2.8-2.6,4.5,0,.3.3.9.8,1.4,3.6,4.9,4.9,11.3,6.2,17.2,2.2,11.3,1.1,23.2-3.5,33.8-1.9,3.9-4.1,7.5-6,11.3v.2s0,.2,0,0v-.2h0c0,.6.2.9.4,1.3,2,3.7,5.2,6.7,8.4,9.7,6.4,6.1,13.3,11.7,20.3,17.2,2.3,1.7,4.5,3.8,7.1,4.8h-.1ZM181.4,189.1c-.7.3-1.7-.3-2.3-.7-4.6-2.6-8.8-5.6-13-8.6-4.8-3.5-9.6-7.1-14-11-3.6-3.5-7.8-6.7-9.8-11.5-.1-.4-.3-.9-.3-1.3,0-.8.4-1.6.6-1.9,1.8-3.7,3.8-7.2,5.6-10.9,5.7-14,5.3-30.1-.1-44.2-.8-2.2-2.5-3.7-3.1-6.1-.6-2.9,1.8-5.1,3.5-6.9,13.9-14.7,35.2-15.2,47,2.2,19.9,31.6,6.9,72.8-13.7,100.9h-.1Z"/>
      <path class="st0" d="M144.3,95.8c-.4-.4-1.1-.8-1.4-.3-2,3.9-4,8-4.9,12.4-3.1,14.4-5.8,31.4,4.3,43.7h-1.6c5-8.2,8.1-17.6,8.5-27.2.4-9.6-1-19.6-4.9-28.5h0ZM144.5,95.6c.7,1,1.1,2.5,1.6,3.5,1.9,4.7,4.3,9,5.5,14,3.3,13.7-.4,28.8-9.1,39.7l-.9,1.1c-3.1-4.8-5.1-10.3-6.5-15.7-3.9-15.5-2.6-28,6.8-41.2.7-1.2,1.1-3,2.8-1.4h-.1Z"/>
      <path class="st0" d="M143.2,158.1c-13.6,12.8-27.4,26.4-41.8,38.2l.2-1.7c2.2,3.5,4.7,6.8,7.2,10,7.8,9.7,17.8,17.5,28.5,23.8h-.6c1.8-1.1,3.2-2.3,4.9-3.5,3-2.5,7.4-5.7,10.3-8.1,5-3.8,9.7-8.9,14-13.5,3.3-3.6,6.7-7,9.8-10.8l.2-.2s0,.3,0,.1h0c-1.9-1.8-4.1-4-6.4-5.7-6.8-5.5-14.6-10.3-19.9-17.3-2.6-3.5-5.2-7.1-6.6-11.4h0ZM143.3,157.8c4.2,7.6,10.4,14,17.6,18.9,5.6,4,11.7,7.5,16.6,12.4.8.7,1.9,1.6,2,2.8.2,1-.1,2-.8,2.8-3.1,4-6.7,7.6-10,11.1-2.9,2.8-6.5,6.7-9.5,9.4-5.2,4.2-10.5,8-15.9,11.8-2,1.1-4,2.9-6.2,3.3h-.4c-13.9-10-27.3-21.3-37.4-35.1,13.8-13.2,29.5-25.4,44.4-37.4h-.2Z"/>
      <path class="st0" d="M141.2,232.8c13.2,5.8,27.1,11.5,41.6,11.7,9.5.4,19.7-4.6,21.7-14.6,2.2-13.6-13.2-26.9-23.5-33.7l2.1-.2c-1.7,1.6-3.2,3.1-4.9,4.7-11.6,10.8-24.9,21.7-37,32.1h0ZM140.9,232.8c11.1-11.4,23-23.6,34.7-34.4,2.1-1.9,4.2-3.9,6.4-5.8l1.1.8c11.4,7.9,25.3,21.6,22.6,36.7-2.2,10.4-12.5,16.8-22.6,17.2-14.5.6-30.3-6.1-42-14.4h-.1Z"/>
      <path class="st0" d="M132.7,232.8c-12.5-11.1-25.7-22.5-36.8-35h1.1c-10.5,6.8-21.3,19.3-20.4,32.3.9,8.8,9.2,14.2,17.8,13.8,13.4,0,26.1-6.2,38.2-11.3h0ZM133.1,232.8c-1.6,1.2-4.2,2.7-5.9,3.8-10,5.7-20.8,10.7-32.7,11-10.1.3-19.9-6.6-20.6-17.2-.3-13.2,12.7-26.2,22.2-34l.6-.4.6.6c12.8,11,24.6,23.8,35.9,36.3h0Z"/>
    </g>
  </g>
</svg>