<?xml version="1.0" encoding="UTF-8"?>
<svg id="Layer_1" xmlns="http://www.w3.org/2000/svg" version="1.1" viewBox="0 0 800 800">
  <!-- Generator: Adobe Illustrator 29.1.0, SVG Export Plug-In . SVG Version: 2.1.0 Build 142)  -->
  <defs>
    <style>
      .st0 {
        fill: #aea393;
      }
    </style>
  </defs>
  <path class="st0" d="M212.4,327.7c2.5,1.9,2.9-2.1,4-3.3,32-35.3,64.1-8.9,68.1,30.9,2.7,27.1-4,51.8-16.5,75.4-1.9,3.5-9.2,12.4-8.8,15.2,16.7,10.8,39,33.1,24.8,54.2-16.6,24.7-59.2,8.3-78.8-4.8-17.5,13.6-72.6,32.2-75.6-3.8-1.6-19.1,13.7-30.6,25.2-43-17.4-28.9-27.9-57.7-25.2-92.1,3.8-48.1,46.5-70.6,81.7-32,1,1.1,1.2,3.2,1.3,3.3ZM166.6,309.3c-9.5,1.6-18.6,10-23.5,18-18.3,29.9-9.8,72.7,5.7,102.1,1.3,2.5,8.9,15.6,10.7,15.8,9.2-6.2,47-32.9,48.6-42.1.2-1.1-6.7-16.7-7.4-21.5-2.4-17.5,1-35.3,10.2-50.3-10.1-13.5-26.6-25-44.4-21.9ZM256.5,442.8c20.3-30.3,35.1-74.4,19.4-109.7-11.1-24.9-37.6-28.9-56.2-9.4-7.7,8-2.7,7.3,0,14.8,6.3,17.1,7,34,.4,51.2-1.1,2.9-7.6,13.9-7.5,14.8.6,7.2,26.2,26.8,32.8,31.4,1.7,1.2,10.1,7.6,11.1,6.9ZM213.7,334.4c-2.1-1.9-2.3.6-3,1.7-11.2,17.3-12.6,46.7-.3,63.8,10.5-14.9,13.4-32.8,8.9-50.3s-5-14.6-5.6-15.2ZM212.4,406.7l-49.5,43.5c11,15.9,25.9,29,42.2,39.5,2.1,0,21.8-15.4,24.8-18.1,3-2.6,22.3-22.6,22.6-24.3.3-1.7-1-2.2-1.9-3.2-6.4-6.8-19.5-13.9-26.8-21.4-3.9-4-9.2-10.9-11.3-16.1ZM209.7,493.6c17.2,10,52.9,24.5,68.9,6.8,16.4-18.1-6.4-41.1-21.5-50.9l-47.5,44.2ZM200.4,493.6l-42.1-41.4c-13.8,9.7-34.7,34-19.4,50.1s46.4-.3,61.5-8.7Z"/>
  <g>
    <path d="M349.6,305.6h-17.2c-.9,0-1.3-.5-1.3-1.4,0-.9.4-1.3,1.3-1.3h17.2c0,0,7.7,0,7.7,0h17.2c0,0,.1,0,.1,0,.9,0,1.3.4,1.3,1.3,0,.9-.4,1.3-1.3,1.3h-.1s-17.2,0-17.2,0l-.2,55.2c0,1-.4,1.9-1.1,2.7-.7.7-1.6,1.1-2.7,1.1-1.1,0-2-.4-2.8-1.1-.7-.8-1.1-1.6-1.1-2.7l.2-55.2Z"/>
    <path d="M396.2,305.8l19.3,53.7h.1c0,.4.1.8.1,1.4,0,1-.4,1.9-1.1,2.7-.7.7-1.6,1.1-2.7,1.1-.9,0-1.6-.2-2.3-.7-.7-.5-1.1-1.1-1.4-1.9l-6.6-18.2h-24.2c0,0-7.3,19.9-7.3,19.9-.2.6-.6.8-1.2.8-.9,0-1.3-.4-1.3-1.3,0-.2,0-.3.1-.4h0c0-.1,21-56.9,21-56.9.2-.9.6-1.6,1.3-2.1.7-.5,1.5-.8,2.4-.8.9,0,1.6.3,2.2.8.6.5,1.1,1.1,1.4,1.8h0ZM389.8,310.8l-11.3,30.6h22.3c0,0-11-30.6-11-30.6ZM381.3,294.9c-.3-.6-.4-1.1-.2-1.7.2-.6.6-1,1.2-1.4l9.1-4.3c.2-.2.5-.3.9-.5.5,0,.9,0,1.2.1,0,0,0,.1.2.1l9.3,4.6c.6.3,1,.8,1.2,1.4.2.6.1,1.2-.2,1.7-.3.6-.8,1-1.3,1.2-.6.2-1.1.1-1.8-.2l-8.4-4.2-8.4,4.1c-.6.2-1.2.3-1.8.1-.6-.2-1-.6-1.3-1.2Z"/>
    <path d="M425.5,311.9l-.2,51.5c0,.9-.4,1.3-1.3,1.3-.9,0-1.3-.4-1.3-1.3l.2-56.2c0-1.6.6-2.7,1.9-3.4.9-.5,1.8-.7,2.8-.5,1,.2,1.8.8,2.4,1.7l35.6,51.2.2-51.5c0-.9.4-1.3,1.2-1.3.9,0,1.3.4,1.3,1.3h0c0,.1-.2,56.3-.2,56.3v.2c0,1.3-.6,2.4-1.9,3.2-.9.5-1.8.6-2.8.3-1-.2-1.8-.8-2.4-1.7l-35.5-51.2Z"/>
    <path d="M477.7,304.5c.8-.7,1.6-1.1,2.7-1.1,1.1,0,2,.4,2.8,1.1.7.8,1.1,1.7,1.1,2.8l-.2,53.9c0,1-.4,1.9-1.1,2.7-.8.7-1.7,1.1-2.8,1.1-1,0-1.9-.4-2.7-1.1-.7-.7-1.1-1.6-1.1-2.7l.2-53.9c0-1.1.4-2,1.1-2.8Z"/>
    <path d="M520.8,306.2l19.3,53.7h.1c0,.4.1.8.1,1.4,0,1-.4,1.9-1.1,2.7-.7.7-1.6,1.1-2.7,1.1-.9,0-1.6-.2-2.3-.7-.7-.5-1.1-1.1-1.4-1.9l-6.6-18.2h-24.2c0,0-7.3,19.9-7.3,19.9-.2.6-.6.8-1.2.8-.9,0-1.3-.4-1.3-1.3,0-.2,0-.3.1-.4h0c0-.1,21-56.9,21-56.9.2-.9.6-1.6,1.3-2.1.7-.5,1.5-.8,2.4-.8.9,0,1.6.3,2.2.8.6.5,1.1,1.1,1.4,1.8h0ZM514.4,311.2l-11.3,30.6h22.3c0,0-11-30.6-11-30.6Z"/>
    <path d="M331.8,390.9c.8-.7,1.6-1.1,2.7-1.1h.1s30.7.1,30.7.1c.9,0,1.3.4,1.3,1.3,0,.9-.4,1.3-1.3,1.3h-26.9c0,0,0,1.2,0,1.2v25.6c0,0,20.9,0,20.9,0,.8,0,1.2.4,1.2,1.3,0,.9-.4,1.3-1.2,1.3h-21c0,0,0,25.6,0,25.6,0,1-.4,1.9-1.1,2.7-.8.7-1.7,1.1-2.8,1.1-1,0-1.9-.4-2.7-1.1s-1.1-1.6-1.1-2.7v-25.6c0,0,0-2.6,0-2.6v-25.6c0-1.1.5-2,1.2-2.8Z"/>
    <path d="M375.8,391c.8-.7,1.6-1.1,2.7-1.1h.1s30.7.1,30.7.1c.9,0,1.3.4,1.3,1.3,0,.9-.4,1.3-1.3,1.3h-26.9c0,0,0,1.2,0,1.2v25.6c0,0,20.9,0,20.9,0,.8,0,1.2.4,1.2,1.3,0,.9-.4,1.3-1.2,1.3h-21c0,0,0,25.6,0,25.6v1.2s26.9,0,26.9,0c.9,0,1.3.4,1.3,1.3,0,.9-.4,1.3-1.3,1.3h-30.8c-1-.1-1.9-.5-2.7-1.2-.7-.7-1.1-1.6-1.1-2.7v-25.6c0,0,0-2.6,0-2.6v-25.6c0-1.1.5-2,1.2-2.8Z"/>
    <path d="M418,393.9c0-1.1.4-2,1.1-2.8.8-.7,1.6-1.1,2.7-1.1h21.1c2.4,0,4.8.6,7,1.5,2.2,1,4.1,2.2,5.7,3.9,1.6,1.6,2.9,3.5,3.8,5.7.9,2.2,1.4,4.5,1.4,7,0,2.2-.4,4.3-1.1,6.3-.8,2-1.8,3.7-3.1,5.3-1.3,1.6-2.9,2.9-4.7,3.9-1.8,1.1-3.7,1.8-5.9,2.2l.9,1.4,10.8,18.9c.2.5.3,1.1.3,1.8,0,1-.4,1.9-1.1,2.7-.7.7-1.6,1.1-2.7,1.1-1.4,0-2.5-.6-3.3-1.8,0,0,0-.2-.1-.2l-13.5-23.7h-11.8s0,21.1,0,21.1v.7c0,1-.4,1.9-1.1,2.7-.8.7-1.7,1.1-2.8,1.1-1,0-1.9-.4-2.7-1.1s-1.1-1.6-1.1-2.7v-21.9c0,0,0-2.6,0-2.6v-29.4ZM425.6,423.4h17.2c1.4,0,2.8-.3,4-1.1,1.3-.8,2.3-1.9,3.3-3.3.9-1.4,1.6-3,2.2-4.9.6-1.8.8-3.8.8-6,0-2.1-.3-4.1-.8-6-.5-1.9-1.3-3.5-2.2-4.9-.9-1.4-2-2.5-3.2-3.3-1.3-.8-2.6-1.2-4-1.2h-17.2c0,0,0,1.2,0,1.2v29.4Z"/>
    <path d="M467.7,394.1c0-1.1.4-2,1.1-2.8.8-.7,1.6-1.1,2.7-1.1h21.1c2.4,0,4.8.6,7,1.5,2.2,1,4.1,2.2,5.7,3.9,1.6,1.6,2.9,3.5,3.8,5.7.9,2.2,1.4,4.5,1.4,7,0,2.2-.4,4.3-1.1,6.3-.8,2-1.8,3.7-3.1,5.3-1.3,1.6-2.9,2.9-4.7,3.9-1.8,1.1-3.7,1.8-5.9,2.2l.9,1.4,10.8,18.9c.2.5.3,1.1.3,1.8,0,1-.4,1.9-1.1,2.7-.7.7-1.6,1.1-2.7,1.1-1.4,0-2.5-.6-3.3-1.8,0,0,0-.2-.1-.2l-13.5-23.7h-11.8s0,21.1,0,21.1v.7c0,1-.4,1.9-1.1,2.7-.8.7-1.7,1.1-2.8,1.1-1,0-1.9-.4-2.7-1.1-.7-.7-1.1-1.6-1.1-2.7v-21.9c0,0,0-2.6,0-2.6v-29.4ZM475.3,423.5h17.2c1.4,0,2.8-.3,4-1.1,1.3-.8,2.3-1.9,3.3-3.3s1.6-3,2.2-4.9c.6-1.8.8-3.8.8-6,0-2.1-.3-4.1-.8-6-.5-1.9-1.3-3.5-2.2-4.9-.9-1.4-2-2.5-3.2-3.3-1.3-.8-2.6-1.2-4-1.2h-17.2c0,0,0,1.2,0,1.2v29.4Z"/>
    <path d="M518.6,391.5c.8-.7,1.6-1.1,2.7-1.1h.1s30.7.1,30.7.1c.9,0,1.3.4,1.3,1.3,0,.9-.4,1.3-1.3,1.3h-26.9c0,0,0,1.2,0,1.2v25.6c0,0,20.9,0,20.9,0,.8,0,1.2.4,1.2,1.3,0,.9-.4,1.3-1.2,1.3h-21c0,0,0,25.6,0,25.6v1.2s26.9,0,26.9,0c.9,0,1.3.4,1.3,1.3,0,.9-.4,1.3-1.3,1.3h-30.8c-1-.1-1.9-.5-2.7-1.2-.7-.7-1.1-1.6-1.1-2.7v-25.6c0,0,0-2.6,0-2.6v-25.6c0-1.1.5-2,1.2-2.8Z"/>
    <path d="M562,391.6c.8-.7,1.6-1.1,2.7-1.1,1.1,0,2,.4,2.8,1.1.7.8,1.1,1.7,1.1,2.8l-.2,53.9c0,1-.4,1.9-1.1,2.7-.8.7-1.7,1.1-2.8,1.1-1,0-1.9-.4-2.7-1.1s-1.1-1.6-1.1-2.7l.2-53.9c0-1.1.4-2,1.1-2.8Z"/>
    <path d="M576.9,394.5c0-1.1.4-2,1.1-2.8.8-.7,1.6-1.1,2.7-1.1h21.1c2.4,0,4.8.6,7,1.5,2.2,1,4.1,2.2,5.7,3.9,1.6,1.6,2.9,3.5,3.8,5.7.9,2.2,1.4,4.5,1.4,7,0,2.2-.4,4.3-1.1,6.3-.8,2-1.8,3.7-3.1,5.3-1.3,1.6-2.9,2.9-4.7,3.9-1.8,1.1-3.7,1.8-5.9,2.2l.9,1.4,10.8,18.9c.2.5.3,1.1.3,1.8,0,1-.4,1.9-1.1,2.7-.7.7-1.6,1.1-2.7,1.1-1.4,0-2.5-.6-3.3-1.8,0,0,0-.2-.1-.2l-13.5-23.7h-11.8s0,21.1,0,21.1v.7c0,1-.4,1.9-1.1,2.7-.8.7-1.7,1.1-2.8,1.1-1,0-1.9-.4-2.7-1.1-.7-.7-1.1-1.6-1.1-2.7v-21.9c0,0,0-2.6,0-2.6v-29.4ZM584.5,423.9h17.2c1.4,0,2.8-.3,4-1.1,1.3-.8,2.3-1.9,3.3-3.3.9-1.4,1.6-3,2.2-4.9.6-1.8.8-3.8.8-6,0-2.1-.3-4.1-.8-6-.5-1.9-1.3-3.5-2.2-4.9-.9-1.4-2-2.5-3.2-3.3-1.3-.8-2.6-1.2-4-1.2h-17.2c0,0,0,1.2,0,1.2v29.4Z"/>
    <path d="M650.7,393.5l19.3,53.7h.1c0,.4.1.8.1,1.4,0,1-.4,1.9-1.1,2.7-.7.7-1.6,1.1-2.7,1.1-.9,0-1.6-.2-2.3-.7-.7-.5-1.1-1.1-1.4-1.9l-6.6-18.2h-24.2c0,0-7.3,19.9-7.3,19.9-.2.6-.6.8-1.2.8-.9,0-1.3-.4-1.3-1.3,0-.2,0-.3.1-.4h0c0-.1,21-56.9,21-56.9.2-.9.6-1.6,1.3-2.1.7-.5,1.5-.8,2.4-.8.9,0,1.6.3,2.2.8.6.5,1.1,1.1,1.4,1.8h0ZM644.3,398.5l-11.3,30.6h22.3c0,0-11-30.6-11-30.6Z"/>
  </g>
  <g>
    <path class="st0" d="M343.3,476.8c1.6,0,3.1.3,4.5.9,1.4.6,2.6,1.4,3.7,2.5s1.9,2.3,2.5,3.7c.6,1.4.9,2.9.9,4.5s-.3,3.1-.9,4.5c-.6,1.4-1.4,2.6-2.5,3.7s-2.3,1.9-3.7,2.5c-1.4.6-2.9.9-4.5.9h-8.1v9.4c0,.6-.2,1.1-.6,1.5s-.9.6-1.6.6-1.1-.2-1.5-.6-.6-.9-.6-1.5v-30.4c0-.6.2-1.1.6-1.6.4-.4.9-.6,1.5-.6h10.3ZM343.3,498.5c1,0,1.9-.3,2.8-.8.9-.5,1.6-1.3,2.3-2.2s1.2-2,1.6-3.2c.4-1.2.6-2.5.6-4s-.2-2.7-.6-3.9-.9-2.3-1.6-3.2c-.7-.9-1.4-1.6-2.3-2.2-.9-.5-1.8-.8-2.8-.8h-8.1v20.3h8.1Z"/>
    <path class="st0" d="M383.9,505c-.4,1.3-1,2.5-2,3.4-1,.9-2.1,1.6-3.3,2.2-1.2.6-2.6,1-3.9,1.2-1.4.2-2.6.4-3.8.4-2,0-3.9-.2-5.7-.7-.5-.1-1.3-.4-2.2-.8-.9-.4-1.8-.8-2.7-1.3s-1.6-1-2.3-1.5c-.6-.5-1-1-1-1.5s0-.5.3-.7c.2-.2.4-.3.7-.3s.4,0,.7.3c1.7,1.5,3.6,2.7,5.7,3.6,2.1.9,4.3,1.3,6.5,1.3s2,0,2.9-.2c1-.2,1.9-.5,2.7-.9.8-.4,1.5-1.1,2-1.9.5-.8.8-2,.8-3.3h0c0,0,0,.7,0,.7v-.7h0v-.3h0v-.3h0c0-.1,0,.6,0,.6,0-.9-.3-1.7-.7-2.4-.4-.6-.8-1.2-1.3-1.7-.5-.5-1.1-.9-1.8-1.3-.7-.4-1.3-.7-2-1-1.4-.6-3-1.3-4.8-1.9-1.8-.6-3.4-1.4-5-2.3s-2.9-2-3.9-3.2c-1.1-1.2-1.6-2.8-1.6-4.5s.4-3.3,1.1-4.6c.8-1.2,1.7-2.2,3-2.9,1.2-.7,2.6-1.3,4.1-1.6,1.5-.3,3.1-.5,4.6-.5s1.8,0,3.1.2c1.3.2,2.6.4,3.8.7,1.2.3,2.3.7,3.2,1.2.9.5,1.3,1,1.3,1.6s-.1.5-.3.7-.4.3-.7.3-.4,0-.6-.2c-1.3-.8-2.8-1.5-4.5-2.1-1.7-.5-3.5-.8-5.5-.8s-1.8.1-2.8.3c-1,.2-1.8.5-2.6,1-.8.5-1.4,1.1-1.9,1.8-.5.7-.8,1.6-.8,2.6s.3,2.5.9,3.6c.5.9,1.4,1.6,2.6,2.2,1.2.6,2.5,1.2,4,1.7,1.5.6,3,1.1,4.6,1.8s3.1,1.4,4.4,2.3c1.3.9,2.4,2,3.2,3.3s1.3,2.9,1.3,4.7,0,1.3-.2,1.8Z"/>
    <path class="st0" d="M416.9,476.8c.5,0,.7.2.7.7s0,.4-.2.5l-12.5,14.9v16.4c0,.6-.2,1.1-.6,1.5-.4.4-.9.6-1.6.6s-1.1-.2-1.5-.6-.6-.9-.6-1.5v-14.7l-12.1-14.4c-.3-.4-.5-.9-.5-1.3s.2-1.1.6-1.6c.4-.4.9-.6,1.5-.6s1.2.2,1.7.7c0,0,0,0,0,0s0,0,0,0l12,14.3,12.5-14.9c.2-.2.4-.3.5-.3Z"/>
    <path class="st0" d="M435.4,476.3c2.4,0,4.6.4,6.7,1.3,2.1.8,3.9,2,5.5,3.5,0,0,.2.2.2.2,0,0,.1.1.2.2h0c.1.2.2.4.2.6,0,.5-.2.7-.7.7s-.5-.1-.7-.3c-1.5-1.4-3.2-2.5-5.1-3.4-1.9-.8-4-1.3-6.3-1.3h-.1c-1.9,0-3.6.4-5.2,1.3-1.6.9-3,2-4.3,3.5-1.2,1.5-2.2,3.2-2.9,5.2-.7,2-1.1,4.1-1.1,6.4s.4,4.4,1.1,6.4c.7,2,1.7,3.7,2.9,5.2,1.2,1.5,2.6,2.6,4.3,3.5,1.6.9,3.4,1.3,5.2,1.3h0c2.3,0,4.4-.4,6.4-1.3s3.7-2,5.2-3.5c.1-.1.3-.2.5-.2.5,0,.7.2.7.7s0,.4-.2.5c-1.6,1.6-3.5,2.9-5.7,3.9-2.2.9-4.5,1.4-7,1.4s-4.8-.5-7-1.4c-2.2-.9-4.1-2.2-5.7-3.9-1.6-1.6-2.9-3.5-3.8-5.7s-1.4-4.5-1.4-7,.5-4.8,1.4-7c.9-2.2,2.2-4.1,3.8-5.7,1.6-1.6,3.5-2.9,5.7-3.8,2.2-.9,4.5-1.4,7-1.4Z"/>
    <path class="st0" d="M475,477.4c.4-.4.9-.6,1.6-.6s1.1.2,1.5.6c.4.4.6.9.6,1.6v30.4c0,.6-.2,1.1-.6,1.5-.4.4-.9.6-1.5.6s-1.1-.2-1.6-.6-.6-.9-.6-1.5v-14.5h-17.2v14.5c0,.6-.2,1.1-.6,1.5s-.9.6-1.6.6-1.1-.2-1.5-.6-.6-.9-.6-1.5v-30.4c0-.6.2-1.1.6-1.6.4-.4.9-.6,1.5-.6s1.1.2,1.6.6c.4.4.6.9.6,1.6v14.5h17.2v-14.5c0-.6.2-1.1.6-1.6Z"/>
    <path class="st0" d="M501.3,476.3c2.4,0,4.8.5,6.9,1.4s4.1,2.2,5.7,3.8c1.6,1.6,2.9,3.5,3.9,5.7.9,2.2,1.4,4.5,1.4,7s-.5,4.8-1.4,7-2.2,4.1-3.9,5.7c-1.6,1.6-3.6,2.9-5.7,3.9-2.2.9-4.5,1.4-6.9,1.4s-4.8-.5-7-1.4c-2.2-.9-4.1-2.2-5.7-3.9-1.6-1.6-2.9-3.5-3.8-5.7s-1.4-4.5-1.4-7,.5-4.8,1.4-7c.9-2.2,2.2-4.1,3.8-5.7,1.6-1.6,3.5-2.9,5.7-3.8,2.2-.9,4.5-1.4,7-1.4ZM501.3,477.7c-1.9,0-3.6.4-5.2,1.3-1.6.9-3,2-4.3,3.5-1.2,1.5-2.2,3.2-2.9,5.2-.7,2-1.1,4.1-1.1,6.4s.4,4.4,1.1,6.4c.7,2,1.7,3.7,2.9,5.2,1.2,1.5,2.6,2.6,4.3,3.5,1.6.9,3.4,1.3,5.2,1.3s3.6-.4,5.2-1.3c1.6-.9,3-2,4.3-3.5,1.2-1.5,2.2-3.2,2.9-5.2.7-2,1.1-4.1,1.1-6.4s-.4-4.4-1.1-6.4c-.7-2-1.7-3.7-2.9-5.2-1.2-1.5-2.6-2.7-4.3-3.5-1.6-.9-3.4-1.3-5.2-1.3Z"/>
    <path class="st0" d="M543.1,510.8c0,.5-.2.7-.7.7h-16.7c-.6,0-1.1-.2-1.5-.6s-.6-.9-.6-1.5v-30.4c0-.6.2-1.1.6-1.6.4-.4.9-.6,1.5-.6s1.1.2,1.6.6c.4.4.6.9.6,1.6v31.1h14.5c.5,0,.7.2.7.7Z"/>
    <path class="st0" d="M561,476.3c2.4,0,4.8.5,6.9,1.4s4.1,2.2,5.7,3.8c1.6,1.6,2.9,3.5,3.9,5.7.9,2.2,1.4,4.5,1.4,7s-.5,4.8-1.4,7-2.2,4.1-3.9,5.7c-1.6,1.6-3.6,2.9-5.7,3.9-2.2.9-4.5,1.4-6.9,1.4s-4.8-.5-7-1.4c-2.2-.9-4.1-2.2-5.7-3.9-1.6-1.6-2.9-3.5-3.8-5.7s-1.4-4.5-1.4-7,.5-4.8,1.4-7c.9-2.2,2.2-4.1,3.8-5.7,1.6-1.6,3.5-2.9,5.7-3.8,2.2-.9,4.5-1.4,7-1.4ZM561,477.7c-1.9,0-3.6.4-5.2,1.3-1.6.9-3,2-4.3,3.5-1.2,1.5-2.2,3.2-2.9,5.2-.7,2-1.1,4.1-1.1,6.4s.4,4.4,1.1,6.4c.7,2,1.7,3.7,2.9,5.2,1.2,1.5,2.6,2.6,4.3,3.5,1.6.9,3.4,1.3,5.2,1.3s3.6-.4,5.2-1.3c1.6-.9,3-2,4.3-3.5,1.2-1.5,2.2-3.2,2.9-5.2.7-2,1.1-4.1,1.1-6.4s-.4-4.4-1.1-6.4c-.7-2-1.7-3.7-2.9-5.2-1.2-1.5-2.6-2.7-4.3-3.5-1.6-.9-3.4-1.3-5.2-1.3Z"/>
    <path class="st0" d="M610.1,494.1c.4-.4,1-.6,1.6-.6s1.1.2,1.6.6c.4.4.6.9.6,1.6v11.2c-1.6,1.6-3.5,2.9-5.7,3.9-2.2.9-4.5,1.4-7,1.4s-4.8-.5-7-1.4c-2.2-.9-4.1-2.2-5.7-3.9-1.6-1.6-2.9-3.5-3.8-5.7s-1.4-4.5-1.4-7,.5-4.8,1.4-7c.9-2.2,2.2-4.1,3.8-5.7,1.6-1.6,3.5-2.9,5.7-3.8,2.2-.9,4.5-1.4,7-1.4s4.2.3,6.1,1c1.9.7,3.6,1.7,5.2,3,.2.1.3.3.3.5,0,.5-.2.7-.7.7s-.3,0-.4,0c-2.9-2.4-6.3-3.6-10.3-3.7h-.1c-1.9,0-3.6.4-5.2,1.3-1.6.9-3,2-4.3,3.5-1.2,1.5-2.2,3.2-2.9,5.2-.7,2-1.1,4.1-1.1,6.4s.4,4.4,1.1,6.4c.7,2,1.7,3.7,2.9,5.2,1.2,1.5,2.6,2.6,4.3,3.5,1.6.9,3.4,1.3,5.2,1.3h0c1.5,0,2.9-.2,4.3-.6,1.4-.4,2.7-.9,3.9-1.6v-12.8c0-.6.2-1.1.7-1.6Z"/>
    <path class="st0" d="M645,503.6c-.7,1.7-1.7,3.1-2.9,4.4-1.2,1.2-2.7,2.2-4.4,3-1.7.7-3.5,1.1-5.4,1.1s-3.7-.4-5.4-1.1c-1.7-.7-3.1-1.7-4.4-3-1.2-1.2-2.2-2.7-2.9-4.4-.7-1.7-1.1-3.4-1.1-5.3v-19.3c0-.6.2-1.1.6-1.6.4-.4.9-.6,1.5-.6s1.1.2,1.6.6c.4.4.6.9.6,1.6v19.3c0,1.7.2,3.3.7,4.8.5,1.5,1.2,2.8,2,3.9.8,1.1,1.8,2,3,2.6,1.2.6,2.4,1,3.7,1s2.5-.3,3.7-1c1.2-.6,2.2-1.5,3-2.6.8-1.1,1.5-2.4,2-3.9.5-1.5.7-3.1.7-4.8v-19.3c0-.6.2-1.1.6-1.6.4-.4.9-.6,1.6-.6s1.1.2,1.5.6c.4.4.6.9.6,1.6v19.3c0,1.9-.4,3.6-1.1,5.3Z"/>
    <path class="st0" d="M651.3,477.4c.4-.4.9-.6,1.5-.6h17.4c.5,0,.7.2.7.7s-.2.7-.7.7h-15.2v15.2h11.9c.4,0,.7.2.7.7s-.2.7-.7.7h-11.9v15.1h15.2c.5,0,.7.2.7.7s-.2.7-.7.7h-17.4c-.6,0-1.1-.2-1.5-.6s-.6-.9-.6-1.5v-30.4c0-.6.2-1.1.6-1.6Z"/>
  </g>
</svg>