<?xml version="1.0" encoding="UTF-8"?>
<svg id="Layer_1" xmlns="http://www.w3.org/2000/svg" version="1.1" viewBox="0 0 800 800">
  <!-- Generator: Adobe Illustrator 29.1.0, SVG Export Plug-In . SVG Version: 2.1.0 Build 142)  -->
  <defs>
    <style>
      .st0 {
        fill: #aea393;
      }
    </style>
  </defs>
  <path class="st0" d="M222.1,331.3c2.4,1.8,2.7-2,3.8-3.1,30.4-33.5,60.9-8.4,64.7,29.4,2.6,25.8-3.8,49.2-15.7,71.7-1.8,3.3-8.8,11.8-8.4,14.5,15.9,10.3,37.1,31.5,23.5,51.5-15.8,23.4-56.3,7.9-74.9-4.6-16.7,12.9-69,30.6-71.8-3.6-1.5-18.2,13-29.1,24-40.8-16.5-27.4-26.6-54.8-24-87.6,3.6-45.7,44.2-67.1,77.6-30.4.9,1,1.1,3,1.3,3.1ZM178.5,313.8c-9.1,1.5-17.6,9.5-22.3,17.1-17.4,28.4-9.3,69.1,5.4,97,1.2,2.3,8.5,14.9,10.2,15,8.7-5.9,44.7-31.2,46.2-40,.2-1.1-6.4-15.8-7-20.4-2.3-16.7,1-33.5,9.7-47.8-9.6-12.8-25.3-23.7-42.2-20.8ZM264,440.6c19.3-28.8,33.3-70.7,18.4-104.2-10.5-23.7-35.7-27.5-53.4-9-7.3,7.6-2.6,7,0,14,6,16.2,6.6,32.3.4,48.6-1.1,2.8-7.2,13.2-7.1,14.1.6,6.8,24.9,25.5,31.2,29.8s9.6,7.3,10.5,6.6ZM223.3,337.7c-2-1.8-2.2.6-2.8,1.6-10.7,16.5-12,44.4-.3,60.6,10-14.2,12.8-31.1,8.5-47.8-.5-1.9-4.7-13.9-5.3-14.4ZM222,406.3l-47.1,41.3c10.4,15.1,24.6,27.6,40.1,37.5,2,0,20.7-14.6,23.6-17.2,2.8-2.5,21.2-21.5,21.5-23.1.3-1.6-1-2.1-1.8-3-6.1-6.5-18.5-13.2-25.5-20.3-3.7-3.8-8.8-10.4-10.8-15.3ZM219.5,488.9c16.4,9.6,50.2,23.3,65.5,6.4,15.6-17.2-6.1-39.1-20.4-48.4l-45.1,42ZM210.6,488.9l-40-39.4c-13.1,9.2-33,32.3-18.4,47.6,13.7,14.4,44.1-.3,58.5-8.3Z"/>
  <g>
    <path d="M352.4,310.2h-16.4c-.8,0-1.2-.5-1.2-1.3,0-.8.4-1.2,1.2-1.2h16.4c0,0,7.3,0,7.3,0h16.4c0,0,.1,0,.1,0,.8,0,1.2.4,1.2,1.2,0,.8-.4,1.2-1.2,1.2h-.1s-16.4,0-16.4,0l-.2,52.4c0,1-.3,1.8-1,2.5-.7.7-1.5,1.1-2.6,1.1-1,0-1.9-.4-2.6-1.1-.7-.7-1.1-1.6-1.1-2.5l.2-52.4Z"/>
    <path d="M396.7,310.5l18.4,51h.1c0,.3.1.7.1,1.3,0,1-.3,1.8-1,2.5-.7.7-1.5,1.1-2.6,1.1-.8,0-1.6-.2-2.2-.7-.6-.5-1.1-1.1-1.3-1.8l-6.2-17.3h-23c0,0-6.9,18.9-6.9,18.9-.2.5-.5.8-1.1.8-.8,0-1.2-.4-1.2-1.2,0-.1,0-.3.1-.3h0c0-.1,19.9-54,19.9-54,.2-.8.6-1.5,1.2-2,.7-.5,1.4-.8,2.2-.8.8,0,1.5.2,2.1.7.6.5,1,1.1,1.3,1.7h0ZM390.7,315.2l-10.8,29h21.2c0,0-10.5-29-10.5-29ZM382.5,300.1c-.3-.5-.4-1.1-.2-1.6.2-.6.6-1,1.2-1.3l8.7-4.1c.1-.1.5-.3.9-.4.5,0,.9,0,1.1.1,0,0,0,.1.2.1l8.9,4.4c.6.3,1,.7,1.2,1.3.2.6.1,1.1-.2,1.6-.3.6-.7,1-1.2,1.2-.5.2-1.1.1-1.7-.2l-8-4-8,3.9c-.6.2-1.2.3-1.7.1-.5-.2-.9-.5-1.2-1.1Z"/>
    <path d="M424.6,316.3l-.2,48.9c0,.8-.4,1.2-1.2,1.2-.8,0-1.2-.4-1.2-1.2l.2-53.4c0-1.5.6-2.6,1.8-3.2.8-.5,1.7-.7,2.6-.4.9.2,1.7.8,2.3,1.6l33.9,48.6.2-48.9c0-.8.4-1.2,1.1-1.2.8,0,1.2.4,1.2,1.2h0c0,.1-.2,53.6-.2,53.6v.2c0,1.3-.6,2.3-1.8,3-.8.4-1.7.6-2.7.3-1-.2-1.7-.8-2.2-1.6l-33.7-48.6Z"/>
    <path d="M474.2,309.2c.7-.7,1.6-1.1,2.5-1.1,1,0,1.9.4,2.6,1.1.7.7,1.1,1.6,1.1,2.6l-.2,51.2c0,1-.4,1.8-1.1,2.5-.7.7-1.6,1.1-2.6,1.1-1,0-1.8-.4-2.5-1.1-.7-.7-1.1-1.6-1.1-2.5l.2-51.2c0-1,.4-1.9,1.1-2.6Z"/>
    <path d="M515.2,310.9l18.4,51h.1c0,.3.1.7.1,1.3,0,1-.3,1.8-1,2.5-.7.7-1.5,1.1-2.6,1.1-.8,0-1.6-.2-2.2-.7-.6-.5-1.1-1.1-1.3-1.8l-6.2-17.3h-23c0,0-6.9,18.9-6.9,18.9-.2.5-.5.8-1.1.8-.8,0-1.2-.4-1.2-1.2,0-.1,0-.3.1-.3h0c0-.1,19.9-54,19.9-54,.2-.8.6-1.5,1.2-2,.7-.5,1.4-.8,2.2-.8.8,0,1.5.2,2.1.7.6.5,1,1.1,1.3,1.7h0ZM509.1,315.6l-10.8,29h21.2c0,0-10.5-29-10.5-29Z"/>
    <path d="M335.6,391.3c.7-.7,1.6-1.1,2.5-1.1h.1s29.2,0,29.2,0c.8,0,1.2.4,1.2,1.2,0,.8-.4,1.2-1.2,1.2h-25.6c0,0,0,1.1,0,1.1v24.4c0,0,19.9,0,19.9,0,.7,0,1.1.4,1.1,1.2,0,.8-.4,1.2-1.1,1.2h-20c0,0,0,24.3,0,24.3,0,1-.4,1.8-1.1,2.5-.7.7-1.6,1.1-2.6,1.1-1,0-1.8-.4-2.5-1.1s-1.1-1.6-1.1-2.5v-24.4c0,0,0-2.5,0-2.5v-24.4c0-1,.4-1.9,1.2-2.6Z"/>
    <path d="M377.3,391.5c.7-.7,1.6-1.1,2.5-1.1h.1s29.2,0,29.2,0c.8,0,1.2.4,1.2,1.2,0,.8-.4,1.2-1.2,1.2h-25.6c0,0,0,1.1,0,1.1v24.4c0,0,19.9,0,19.9,0,.7,0,1.1.4,1.1,1.2,0,.8-.4,1.2-1.1,1.2h-20c0,0,0,24.3,0,24.3v1.1s25.6,0,25.6,0c.8,0,1.2.4,1.2,1.2,0,.8-.4,1.2-1.2,1.2h-29.3c-1-.1-1.8-.5-2.5-1.2-.7-.7-1.1-1.6-1.1-2.5v-24.4c0,0,0-2.5,0-2.5v-24.4c0-1,.4-1.9,1.2-2.6Z"/>
    <path d="M417.5,394.2c0-1,.4-1.9,1.1-2.6.7-.7,1.6-1.1,2.5-1.1h20.1c2.3,0,4.5.5,6.6,1.4,2.1.9,3.9,2.1,5.4,3.7,1.5,1.5,2.7,3.4,3.6,5.5.9,2.1,1.3,4.3,1.3,6.6,0,2.1-.4,4.1-1.1,5.9-.7,1.9-1.7,3.6-3,5-1.3,1.5-2.8,2.7-4.4,3.7-1.7,1-3.5,1.7-5.6,2.1l.9,1.4,10.3,18c.2.5.3,1,.3,1.7,0,1-.3,1.8-1,2.5-.7.7-1.5,1.1-2.6,1.1-1.3,0-2.4-.6-3.1-1.7,0,0,0-.1-.1-.2l-12.8-22.5h-11.2s0,20.1,0,20.1v.7c0,1-.4,1.8-1.1,2.5-.7.7-1.6,1.1-2.6,1.1-1,0-1.8-.4-2.5-1.1s-1.1-1.6-1.1-2.5v-20.8c0,0,0-2.5,0-2.5v-28ZM424.7,422.2h16.4c1.3,0,2.6-.3,3.8-1.1,1.2-.7,2.2-1.8,3.1-3.1.9-1.3,1.6-2.9,2.1-4.7.5-1.8.8-3.6.8-5.7,0-2-.2-3.9-.8-5.7-.5-1.8-1.2-3.3-2.1-4.7-.9-1.3-1.9-2.4-3.1-3.2-1.2-.8-2.5-1.1-3.8-1.1h-16.4c0,0,0,1.2,0,1.2v28Z"/>
    <path d="M464.7,394.4c0-1,.4-1.9,1.1-2.6.7-.7,1.6-1.1,2.5-1.1h20.1c2.3,0,4.5.5,6.6,1.4,2.1.9,3.9,2.1,5.4,3.7,1.5,1.5,2.7,3.4,3.6,5.5.9,2.1,1.3,4.3,1.3,6.6,0,2.1-.4,4.1-1.1,5.9-.7,1.9-1.7,3.6-3,5-1.3,1.5-2.8,2.7-4.4,3.7-1.7,1-3.5,1.7-5.6,2.1l.9,1.4,10.3,18c.2.4.3,1,.3,1.7,0,1-.3,1.8-1,2.5-.7.7-1.5,1.1-2.6,1.1-1.3,0-2.4-.6-3.1-1.7,0,0,0-.1-.1-.2l-12.8-22.5h-11.2s0,20.1,0,20.1v.7c0,1-.4,1.8-1.1,2.5-.7.7-1.6,1.1-2.6,1.1-1,0-1.8-.4-2.5-1.1-.7-.7-1.1-1.6-1.1-2.5v-20.8c0,0,0-2.5,0-2.5v-28ZM471.9,422.4h16.4c1.3,0,2.6-.3,3.8-1.1,1.2-.7,2.2-1.8,3.1-3.1s1.6-2.9,2.1-4.7c.5-1.8.8-3.6.8-5.7,0-2-.2-3.9-.8-5.7-.5-1.8-1.2-3.3-2.1-4.7-.9-1.3-1.9-2.4-3.1-3.2-1.2-.8-2.5-1.1-3.8-1.1h-16.4c0,0,0,1.2,0,1.2v28Z"/>
    <path d="M513.1,391.9c.7-.7,1.6-1.1,2.5-1.1h.1s29.2,0,29.2,0c.8,0,1.2.4,1.2,1.2,0,.8-.4,1.2-1.2,1.2h-25.6c0,0,0,1.1,0,1.1v24.4c0,0,19.9,0,19.9,0,.7,0,1.1.4,1.1,1.2,0,.8-.4,1.2-1.1,1.2h-20c0,0,0,24.3,0,24.3v1.1s25.6,0,25.6,0c.8,0,1.2.4,1.2,1.2,0,.8-.4,1.2-1.2,1.2h-29.3c-1-.1-1.8-.5-2.5-1.2-.7-.7-1.1-1.6-1.1-2.5v-24.4c0,0,0-2.5,0-2.5v-24.4c0-1,.4-1.9,1.2-2.6Z"/>
    <path d="M554.3,392.1c.7-.7,1.6-1.1,2.5-1.1,1,0,1.9.4,2.6,1.1.7.7,1.1,1.6,1.1,2.6l-.2,51.2c0,1-.4,1.8-1.1,2.5-.7.7-1.6,1.1-2.6,1.1-1,0-1.8-.4-2.5-1.1s-1.1-1.6-1.1-2.5l.2-51.2c0-1,.4-1.9,1.1-2.6Z"/>
    <path d="M568.5,394.7c0-1,.4-1.9,1.1-2.6.7-.7,1.6-1.1,2.5-1.1h20.1c2.3,0,4.5.5,6.6,1.4,2.1.9,3.9,2.1,5.4,3.7,1.5,1.5,2.7,3.4,3.6,5.5.9,2.1,1.3,4.3,1.3,6.6,0,2.1-.4,4.1-1.1,5.9-.7,1.9-1.7,3.6-3,5-1.3,1.5-2.8,2.7-4.4,3.7-1.7,1-3.5,1.7-5.6,2.1l.9,1.4,10.3,18c.2.4.3,1,.3,1.7,0,1-.3,1.8-1,2.5-.7.7-1.5,1.1-2.6,1.1-1.3,0-2.4-.6-3.1-1.7,0,0,0-.1-.1-.2l-12.8-22.5h-11.2s0,20.1,0,20.1v.7c0,1-.4,1.8-1.1,2.5-.7.7-1.6,1.1-2.6,1.1-1,0-1.8-.4-2.5-1.1-.7-.7-1.1-1.6-1.1-2.5v-20.8c0,0,0-2.5,0-2.5v-28ZM575.7,422.7h16.4c1.3,0,2.6-.3,3.8-1.1,1.2-.7,2.2-1.8,3.1-3.1.9-1.3,1.6-2.9,2.1-4.7.5-1.8.8-3.6.8-5.7,0-2-.2-3.9-.8-5.7-.5-1.8-1.2-3.3-2.1-4.7-.9-1.4-1.9-2.4-3.1-3.2-1.2-.8-2.5-1.1-3.8-1.1h-16.4c0,0,0,1.2,0,1.2v28Z"/>
    <path d="M638.6,393.9l18.4,51h.1c0,.3.1.7.1,1.3,0,1-.3,1.8-1,2.5-.7.7-1.5,1.1-2.6,1.1-.8,0-1.6-.2-2.2-.7-.6-.5-1.1-1.1-1.3-1.8l-6.2-17.3h-23c0,0-6.9,18.9-6.9,18.9-.2.5-.5.8-1.1.8-.8,0-1.2-.4-1.2-1.2,0-.1,0-.3.1-.3h0c0-.1,19.9-54,19.9-54,.2-.8.6-1.5,1.2-2,.7-.5,1.4-.8,2.2-.8.8,0,1.5.2,2.1.7.6.5,1,1.1,1.3,1.7h0ZM632.6,398.5l-10.8,29h21.2c0,0-10.5-29-10.5-29Z"/>
  </g>
  <g>
    <path class="st0" d="M346.5,473c1.5,0,2.9.3,4.3.9,1.3.6,2.5,1.4,3.5,2.4s1.8,2.2,2.3,3.5c.6,1.3.9,2.8.9,4.3s-.3,2.9-.9,4.3c-.6,1.3-1.4,2.5-2.3,3.5s-2.2,1.8-3.5,2.4c-1.3.6-2.8.9-4.3.9h-7.7v8.9c0,.5-.2,1-.6,1.4s-.9.6-1.5.6-1-.2-1.4-.6-.6-.9-.6-1.4v-28.9c0-.6.2-1.1.6-1.5.4-.4.9-.6,1.4-.6h9.8ZM346.5,493.6c.9,0,1.8-.3,2.6-.8.8-.5,1.6-1.2,2.2-2.1s1.1-1.9,1.5-3c.4-1.2.5-2.4.5-3.8s-.2-2.6-.5-3.7-.9-2.2-1.5-3.1c-.6-.9-1.4-1.6-2.2-2.1-.8-.5-1.7-.8-2.6-.8h-7.7v19.3h7.7Z"/>
    <path class="st0" d="M385.1,499.8c-.3,1.3-1,2.3-1.9,3.2-.9.9-2,1.6-3.1,2.1-1.2.5-2.4.9-3.7,1.1-1.3.2-2.5.3-3.6.3-1.9,0-3.7-.2-5.5-.7-.5-.1-1.2-.4-2.1-.7-.9-.4-1.7-.8-2.5-1.2s-1.5-1-2.2-1.5c-.6-.5-.9-1-.9-1.4s0-.5.3-.7c.2-.2.4-.3.7-.3s.4,0,.6.3c1.6,1.4,3.4,2.6,5.4,3.4,2,.8,4.1,1.2,6.2,1.2s1.9,0,2.8-.2c.9-.1,1.8-.4,2.6-.9.8-.4,1.4-1,1.9-1.8.5-.8.7-1.9.8-3.2h0c0,0,0,.6,0,.6v-.7h0v-.3h0v-.3h0c0-.1,0,.6,0,.6,0-.9-.3-1.6-.6-2.3-.3-.6-.8-1.2-1.3-1.6-.5-.5-1.1-.9-1.7-1.2-.6-.3-1.3-.7-1.9-1-1.4-.6-2.9-1.2-4.5-1.8-1.7-.6-3.2-1.3-4.7-2.2s-2.7-1.9-3.7-3c-1-1.2-1.5-2.6-1.5-4.3s.4-3.2,1.1-4.3c.7-1.2,1.7-2.1,2.8-2.8,1.2-.7,2.5-1.2,3.9-1.5,1.5-.3,2.9-.4,4.4-.4s1.8,0,3,.2c1.2.1,2.4.4,3.6.7,1.2.3,2.2.7,3,1.1.8.4,1.3,1,1.3,1.6s0,.5-.3.7-.4.3-.7.3-.4,0-.6-.2c-1.2-.8-2.6-1.5-4.2-2-1.6-.5-3.3-.8-5.2-.8s-1.7,0-2.6.3c-.9.2-1.7.5-2.5,1-.7.4-1.4,1-1.8,1.7-.5.7-.7,1.5-.7,2.5s.3,2.4.9,3.4c.5.8,1.3,1.6,2.4,2.1,1.1.6,2.4,1.1,3.8,1.6,1.4.5,2.9,1.1,4.4,1.7s2.9,1.3,4.2,2.2c1.2.8,2.3,1.9,3.1,3.1s1.2,2.7,1.2,4.5,0,1.2-.2,1.7Z"/>
    <path class="st0" d="M389.6,473.6c.4-.4.9-.6,1.4-.6s1.1.2,1.5.6c.4.4.6.9.6,1.5v28.9c0,.5-.2,1-.6,1.4s-.9.6-1.5.6-1-.2-1.4-.6-.6-.9-.6-1.4v-28.9c0-.6.2-1.1.6-1.5Z"/>
    <path class="st0" d="M414.6,472.5c2.3,0,4.4.4,6.4,1.2,2,.8,3.7,1.9,5.2,3.3,0,0,.1.1.2.2,0,0,.1.1.2.2h0c.1.2.2.4.2.6,0,.5-.2.7-.7.7s-.5-.1-.6-.3c-1.4-1.4-3-2.4-4.8-3.2-1.8-.8-3.8-1.2-6-1.2h-.1c-1.8,0-3.4.4-5,1.2-1.5.8-2.9,1.9-4.1,3.4-1.2,1.4-2.1,3.1-2.8,5-.7,1.9-1,3.9-1,6.1s.3,4.2,1,6.1c.7,1.9,1.6,3.6,2.8,4.9,1.2,1.4,2.5,2.5,4.1,3.3,1.5.8,3.2,1.2,5,1.2h0c2.2,0,4.2-.4,6.1-1.2s3.5-1.9,4.9-3.4c.1-.1.3-.2.5-.2.5,0,.7.2.7.7s0,.4-.2.5c-1.6,1.6-3.4,2.8-5.4,3.7-2.1.9-4.3,1.3-6.6,1.3s-4.6-.4-6.7-1.3c-2.1-.9-3.9-2.1-5.4-3.7-1.5-1.6-2.8-3.4-3.6-5.4-.9-2-1.3-4.3-1.3-6.6s.4-4.6,1.3-6.7c.9-2.1,2.1-3.9,3.6-5.4,1.5-1.5,3.3-2.8,5.4-3.6,2.1-.9,4.3-1.3,6.7-1.3Z"/>
    <path class="st0" d="M448.2,472.5c2.3,0,4.5.4,6.6,1.3s3.9,2.1,5.5,3.6c1.6,1.5,2.8,3.4,3.7,5.4.9,2.1,1.3,4.3,1.3,6.7s-.4,4.6-1.3,6.6-2.1,3.9-3.7,5.4c-1.6,1.6-3.4,2.8-5.5,3.7-2.1.9-4.3,1.3-6.6,1.3s-4.6-.4-6.7-1.3c-2.1-.9-3.9-2.1-5.4-3.7-1.5-1.6-2.8-3.4-3.6-5.4s-1.3-4.3-1.3-6.6.4-4.6,1.3-6.7c.9-2.1,2.1-3.9,3.6-5.4,1.5-1.5,3.3-2.8,5.4-3.6,2.1-.9,4.3-1.3,6.7-1.3ZM448.2,473.9c-1.8,0-3.4.4-5,1.2-1.5.8-2.9,1.9-4.1,3.4-1.2,1.4-2.1,3.1-2.8,5-.7,1.9-1,3.9-1,6.1s.3,4.2,1,6.1c.7,1.9,1.6,3.6,2.8,4.9,1.2,1.4,2.5,2.5,4.1,3.3,1.5.8,3.2,1.2,5,1.2s3.4-.4,5-1.2c1.5-.8,2.9-1.9,4.1-3.3,1.2-1.4,2.1-3,2.8-4.9.7-1.9,1-3.9,1-6.1s-.3-4.2-1-6.1c-.7-1.9-1.6-3.6-2.8-5-1.2-1.4-2.5-2.5-4.1-3.4-1.5-.8-3.2-1.2-5-1.2ZM447.7,469.7c-.4-.2-.6-.5-.8-1s0-.9.1-1.2l1.7-2.9c.3-.4.6-.6,1-.7.4-.1.8,0,1.2.2.4.2.7.5.8,1,.1.4,0,.9-.2,1.2l-1.7,2.9c-.2.4-.5.6-1,.7-.4.1-.9,0-1.2-.2Z"/>
    <path class="st0" d="M487.5,505.3c0,.5-.2.7-.7.7h-15.8c-.5,0-1-.2-1.4-.6s-.6-.9-.6-1.4v-28.9c0-.6.2-1.1.6-1.5.4-.4.9-.6,1.4-.6s1.1.2,1.5.6c.4.4.6.9.6,1.5v29.5h13.8c.5,0,.7.2.7.7Z"/>
    <path class="st0" d="M504.5,472.5c2.3,0,4.5.4,6.6,1.3s3.9,2.1,5.5,3.6c1.6,1.5,2.8,3.4,3.7,5.4.9,2.1,1.3,4.3,1.3,6.7s-.4,4.6-1.3,6.6-2.1,3.9-3.7,5.4c-1.6,1.6-3.4,2.8-5.5,3.7-2.1.9-4.3,1.3-6.6,1.3s-4.6-.4-6.7-1.3c-2.1-.9-3.9-2.1-5.4-3.7-1.5-1.6-2.8-3.4-3.6-5.4s-1.3-4.3-1.3-6.6.4-4.6,1.3-6.7c.9-2.1,2.1-3.9,3.6-5.4,1.5-1.5,3.3-2.8,5.4-3.6,2.1-.9,4.3-1.3,6.7-1.3ZM504.5,473.9c-1.8,0-3.4.4-5,1.2-1.5.8-2.9,1.9-4.1,3.4-1.2,1.4-2.1,3.1-2.8,5-.7,1.9-1,3.9-1,6.1s.3,4.2,1,6.1c.7,1.9,1.6,3.6,2.8,4.9,1.2,1.4,2.5,2.5,4.1,3.3,1.5.8,3.2,1.2,5,1.2s3.4-.4,5-1.2c1.5-.8,2.9-1.9,4.1-3.3,1.2-1.4,2.1-3,2.8-4.9.7-1.9,1-3.9,1-6.1s-.3-4.2-1-6.1c-.7-1.9-1.6-3.6-2.8-5-1.2-1.4-2.5-2.5-4.1-3.4-1.5-.8-3.2-1.2-5-1.2Z"/>
    <path class="st0" d="M551.1,489.4c.4-.4.9-.6,1.5-.6s1.1.2,1.5.6c.4.4.6.9.6,1.5v10.7c-1.6,1.6-3.4,2.8-5.4,3.7-2.1.9-4.3,1.3-6.6,1.3s-4.6-.4-6.7-1.3c-2.1-.9-3.9-2.1-5.4-3.7-1.5-1.6-2.8-3.4-3.6-5.4-.9-2-1.3-4.3-1.3-6.6s.4-4.6,1.3-6.7c.9-2.1,2.1-3.9,3.6-5.4,1.5-1.5,3.3-2.8,5.4-3.6,2.1-.9,4.3-1.3,6.7-1.3s4,.3,5.8,1c1.8.7,3.5,1.6,4.9,2.8.2.1.3.3.3.5,0,.5-.2.7-.7.7s-.3,0-.4,0c-2.7-2.3-6-3.5-9.8-3.6h-.1c-1.8,0-3.4.4-5,1.2-1.5.8-2.9,1.9-4.1,3.4-1.2,1.4-2.1,3.1-2.8,5-.7,1.9-1,3.9-1,6.1s.3,4.2,1,6.1c.7,1.9,1.6,3.6,2.8,4.9,1.2,1.4,2.5,2.5,4.1,3.3,1.5.8,3.2,1.2,5,1.2h0c1.4,0,2.7-.2,4.1-.5,1.3-.4,2.5-.9,3.7-1.5v-12.2c0-.6.2-1.1.6-1.5Z"/>
    <path class="st0" d="M572.9,474.4l10.5,28.8h0c0,.2,0,.4,0,.8,0,.5-.2,1-.6,1.4s-.9.6-1.5.6-.9-.1-1.2-.4c-.4-.3-.6-.6-.7-1l-3.6-9.8h-13l-3.9,10.7c0,.3-.3.4-.6.4s-.7-.2-.7-.7,0-.1,0-.2h0c0,0,11.2-30.6,11.2-30.6,0-.5.3-.8.7-1.1.4-.3.8-.4,1.3-.4s.9.1,1.2.4c.3.3.6.6.8,1h0ZM569.5,477.1l-6,16.4h12l-6-16.4Z"/>
  </g>
</svg>